<svg id="forgrund" xmlns="http://www.w3.org/2000/svg" xmlns:xlink="http://www.w3.org/1999/xlink" viewBox="0 0 621.24 621.24"><defs><style>.cls-1{fill:#c7a315;}.cls-2{stroke:#333;stroke-miterlimit:10;stroke-width:2px;fill:url(#linear-gradient);}.cls-3{opacity:0.75;fill:url(#linear-gradient-2);}</style><linearGradient id="linear-gradient" x1="6724.74" y1="7022.04" x2="7343.97" y2="7022.04" gradientUnits="userSpaceOnUse"><stop offset="0" stop-color="#ccc"/><stop offset="1" stop-color="#333"/></linearGradient><linearGradient id="linear-gradient-2" x1="6743.68" y1="7022.77" x2="7324.79" y2="7022.77" gradientUnits="userSpaceOnUse"><stop offset="0.02" stop-color="#666"/><stop offset="1" stop-color="#fff"/></linearGradient></defs><title>nedsivning_zoom01_forgrund</title><path class="cls-1" d="M6774.48,7041.48c3.59-8.59,11.14-11.69,20.64-17.77s20.75-8.7,31.82-10.82c34.74-6.66,72.06-9.2,104.28,5.41s56.78,51,47.65,85.13c-7.78,29.15-36.65,48-65.61,56.44-36.44,10.65-78.23,8.42-109.27-13.44s-47.33-65.75-31.17-100.1c0,0,.59-3.93,1.53-2.12Z" transform="translate(-6723.74 -6711.42)"/><path class="cls-1" d="M7247.5,7043.13c22.11,1.67,44.48,8.74,60.84,23.7s25.63,38.68,19.73,60.06c-4.74,17.17-18.62,30.93-34.89,38.19s-34.7,8.55-52.4,6.59c-31-3.43-63.53-19.51-74.18-48.84a58.29,58.29,0,0,1,60.28-77.93Z" transform="translate(-6723.74 -6711.42)"/><path class="cls-1" d="M7000.66,7146.94c9-10.56,14-13.09,27.1-15.86s26.74-1.21,40,.92c16.07,2.58,32.24,6,46.69,13.56s27.14,19.52,32.44,34.91c9.71,28.17-9.23,60.75-36.57,72.62s-59.72,6.29-86.1-7.57c-13-6.85-25.27-15.85-33.58-28s-12.27-27.79-8.26-42S6990.15,7151.56,7000.66,7146.94Z" transform="translate(-6723.74 -6711.42)"/><path class="cls-1" d="M7009.16,6955.2c24.82-2.72,50.34-5.38,74.43,1.17s46.78,24.52,51.31,49.08c4.87,26.41-13.54,53.57-38.36,63.85s-53.87,5.87-77.84-6.25c-16.74-8.47-32-21-40.29-37.88s-8.44-38.31,2.58-53.5,28.17-16.47,39.07-17.62Z" transform="translate(-6723.74 -6711.42)"/><path class="cls-1" d="M6918.14,6912.11c7.08,5,13.9,13.31,12.64,22.73-1.18,8.86-8.9,14.4-16.09,18-9.88,4.89-20.55,8.39-31.28,7.5s-21.54-6.73-27.23-17.18c-7.46-13.69-3.44-34.75,10.59-39.46C6883.67,6898,6903.26,6901.6,6918.14,6912.11Z" transform="translate(-6723.74 -6711.42)"/><path class="cls-1" d="M7028.32,7250.54c7.08,4.37,13.9,11.62,12.64,19.85-1.18,7.74-8.9,12.58-16.09,15.69-9.88,4.27-20.55,7.33-31.28,6.55s-21.54-5.88-27.23-15c-7.46-12-3.44-30.36,10.59-34.47C6993.85,7238.22,7013.45,7241.36,7028.32,7250.54Z" transform="translate(-6723.74 -6711.42)"/><path class="cls-1" d="M6862.8,7178.32c7.08,4.37,13.9,11.62,12.64,19.85-1.18,7.74-8.9,12.58-16.09,15.69-9.88,4.27-20.55,7.33-31.28,6.55s-21.54-5.88-27.23-15c-7.46-12-3.44-30.36,10.59-34.47C6828.33,7166,6847.92,7169.13,6862.8,7178.32Z" transform="translate(-6723.74 -6711.42)"/><path class="cls-1" d="M7208.5,6981.32c-11.75,7.15-25.91,4.91-38-1.3-10.38-5.34-20.8-15.44-21.62-29.5-1.72-29.41,33.42-41.31,51-32.89,10.1,4.83,22.21,14.33,24.24,28.69C7226.13,6960.51,7218.46,6975.26,7208.5,6981.32Z" transform="translate(-6723.74 -6711.42)"/><path class="cls-1" d="M7150.65,6807.19c-10.76,5.21-23.72,3.58-34.78-.95-9.5-3.89-19-11.24-19.8-21.48-1.57-21.41,30.6-30.08,46.7-23.95,9.24,3.52,20.34,10.44,22.19,20.89S7159.76,6802.78,7150.65,6807.19Z" transform="translate(-6723.74 -6711.42)"/><path class="cls-1" d="M7154,7091.77c5.24,9.83,5.56,23-.28,32.4s-16.63,13.82-27,15c-11.57,1.3-23.81-.92-33.27-8.36-19-14.93-17.53-46.24,4.83-56.5C7116,7066.14,7144,7073.1,7154,7091.77Z" transform="translate(-6723.74 -6711.42)"/><path class="cls-1" d="M7184,7257.61c4.33,7.38,4.6,17.25-.23,24.32s-13.74,10.38-22.29,11.25c-9.56,1-19.67-.69-27.49-6.28-15.67-11.2-14.48-34.71,4-42.41C7152.65,7238.37,7175.77,7243.6,7184,7257.61Z" transform="translate(-6723.74 -6711.42)"/><path class="cls-1" d="M6985.67,7158.19c-4.6,6.13-12.38,12.22-19.41,14.66s-12.26,1-15.44-1.7c-3.56-3.06-5.18-7.94-3-14.31,4.34-12.78,23.38-26.58,34.89-24.19C6991.83,7134.55,6994.41,7146.55,6985.67,7158.19Z" transform="translate(-6723.74 -6711.42)"/><path class="cls-1" d="M7278.64,6885.25c7,4.94,11.29,13.83,9.8,22.26s-8.25,15.11-15.69,19.42c-8.31,4.82-18.21,7.47-27.64,5.59-18.89-3.76-27.48-25.68-13.82-40.29C7242.16,6880.61,7265.38,6875.86,7278.64,6885.25Z" transform="translate(-6723.74 -6711.42)"/><path class="cls-1" d="M6881.72,6973c4.11,4,7.16,10.46,7.14,16.08a13.83,13.83,0,0,1-6.48,11.86,14.69,14.69,0,0,1-14,1.33c-10.25-4.27-16.72-20-10.87-28.76C6862.17,6966.57,6873.92,6965.42,6881.72,6973Z" transform="translate(-6723.74 -6711.42)"/><path class="cls-1" d="M7126.31,6844.23c2.38,5.22,2.89,12.35.84,17.58a13.83,13.83,0,0,1-10.33,8.71,14.69,14.69,0,0,1-13.53-3.82c-8-7.69-8.35-24.7.27-30.75C7110.42,6831.14,7121.79,6834.32,7126.31,6844.23Z" transform="translate(-6723.74 -6711.42)"/><path class="cls-1" d="M7090.81,6750.82c2.38,5.22,2.89,12.35.84,17.58a13.83,13.83,0,0,1-10.33,8.71,14.69,14.69,0,0,1-13.53-3.82c-8-7.69-8.35-24.7.27-30.75C7074.92,6737.73,7086.29,6740.91,7090.81,6750.82Z" transform="translate(-6723.74 -6711.42)"/><path class="cls-1" d="M7016.83,7070.56c10.18,0,9.16,3.31,15.7,3.93,7.83,0.74,15.77,1.64,23,4.57s13.83,8.29,16.15,15.5c3.67,11.39-4.78,24-16.14,28.77s-24.55,3.48-36.52.31c-9.61-2.55-19.2-6.41-26-13.38s-10.29-17.61-6.39-26.41,17.16-13.13,21.39-11.58C7010.66,7073.25,7014,7070.56,7016.83,7070.56Z" transform="translate(-6723.74 -6711.42)"/><path class="cls-1" d="M7067.3,6866.32c14.57,1.29,29.33,2.61,43.15,7.82s26.84,14.81,33.65,28.95,6.07,33.17-4.14,44.61c-7.3,8.19-18.24,11.51-28.7,11.33s-20.64-3.48-30.63-6.85c-13.69-4.62-28.55-10.46-35.68-24-6.8-12.94-4.22-30.16,4.16-41.94s3-17.29,16.46-19.89h1.73Z" transform="translate(-6723.74 -6711.42)"/><path class="cls-1" d="M7207.2,7006.73c5,7.31,4.23,19.9-.25,27.89s-11.65,12.08-18.74,14.19c-6.85,2-14,2.5-20.81,0s-13.07-8.25-16.68-16.64c-6.86-15.95-.88-40.46,13.56-40.26,6.19,0.08,12.84,3.34,19,4.68C7190.82,6998.2,7201.49,6998.42,7207.2,7006.73Z" transform="translate(-6723.74 -6711.42)"/><path class="cls-1" d="M6935.46,6853.79c16.5-3.62,33.7-5.5,50.27-2.19s32.52,12.34,41.38,26.72,9.28,34.36-1.31,47.52c-7.08,8.8-18.17,13.78-29.39,15.07s-22.59-.82-33.36-4.23c-14-4.44-27.69-11.37-37.26-22.54s-14.4-27.12-9.66-41,20.46-24.05,34.61-20" transform="translate(-6723.74 -6711.42)"/><path class="cls-1" d="M6926.91,6951.82c8.24-2.78,17.3-2.36,24.64,3.74s12.43,18.71,10.82,30.8-9.48,21-17.77,23.82-17,.67-25.28-2.07c-5.76-1.9-11.62-4.18-16.45-9.13-7.84-8.06-12-26.94-2.08-35.62,2.83-2.48,6.36-1.92,9.46-3.14C6915.94,6958,6921.12,6953.77,6926.91,6951.82Z" transform="translate(-6723.74 -6711.42)"/><path class="cls-1" d="M6842.51,6939c5.69,5.54,11.52,13.46,11.45,23.66-0.08,11.53-7.55,19.52-14.49,24.42-17.46,12.33-37,18-56.24,16.36-9.29-.8-18.7-3.37-26.84-10.15s-14.89-18.25-16.71-32c-4.76-36,21.12-43.49,38.75-45.78C6800.72,6912.67,6823.69,6920.68,6842.51,6939Z" transform="translate(-6723.74 -6711.42)"/><path class="cls-1" d="M6945.24,7175.25c14.7,3.19,27.71,14.84,30.74,29.57,2.31,11.23-1.23,23.28-8.43,32.2s-17.76,14.81-28.94,17.38c-12.66,2.91-26.58,1.56-37.59-5.33-22.08-13.81-20.48-37.21-5.67-55.2C6907.55,7179.07,6925.55,7171,6945.24,7175.25Z" transform="translate(-6723.74 -6711.42)"/><path class="cls-1" d="M7216.5,7181.42c9.81,3.75,20.14,9.65,23,19.74,2.33,8.14-1,17-6.25,23.64-9.55,12.06-26,18.47-41.06,15.16s-27.52-16.65-29-32c-1.16-11.9,5.56-27.58,17-32.84C7190.54,7170.41,7206.8,7177.72,7216.5,7181.42Z" transform="translate(-6723.74 -6711.42)"/><path class="cls-1" d="M7075.27,6783.68c17.23,10.14,29.44,31.54,22.82,50.41-5.29,15.08-21.47,24.62-37.44,25.2s-31.45-6.49-44-16.33c-8.28-6.46-15.71-14.34-20-23.93s-5.13-21-.59-30.52C7009.2,6760.94,7055,6771.75,7075.27,6783.68Z" transform="translate(-6723.74 -6711.42)"/><path class="cls-1" d="M6882.36,6844.5c8.57,9.66,11.5,24.83,4.78,35.85-6,9.84-17.69,14.36-28.6,18-12.82,4.33-26.07,8.48-39.59,7.82s-27.55-7.05-33.74-19.09c-10.61-20.62,5.94-50.59,27.76-56.05S6866.37,6826.48,6882.36,6844.5Z" transform="translate(-6723.74 -6711.42)"/><path class="cls-1" d="M7220.79,6821.18c13.42,6.92,26.11,18.56,27.41,33.6,0.93,10.77-4.41,21.47-12.45,28.7s-18.49,11.3-29.1,13.42c-16.52,3.3-34.34,2-49.14-6.08s-26-23.4-26.82-40.22C7128.28,6800.49,7190.84,6805.73,7220.79,6821.18Z" transform="translate(-6723.74 -6711.42)"/><path class="cls-1" d="M7286,6945.56c14.71,0.84,29.51,7,38.73,18.49s11.84,28.58,4.51,41.36c-8.09,14.1-25.33,19.94-41.37,22.56-13,2.12-26.88,2.78-38.8-2.81a40.67,40.67,0,0,1-22.88-34.1C7224.63,6958.34,7258.17,6944,7286,6945.56Z" transform="translate(-6723.74 -6711.42)"/><path class="cls-1" d="M6946,6773.6c12.95,4.13,25.8,12.38,30,25.31,5.33,16.58-6.42,35.12-22.42,42s-34.57,4.4-51-1.3c-8.74-3-17.33-7-24.16-13.26-13.13-12-17.52-37.59.19-47.78C6897.71,6767.57,6925.6,6767.09,6946,6773.6Z" transform="translate(-6723.74 -6711.42)"/><path class="cls-2" d="M7034.35,6712.42c-171,0-309.62,138.62-309.62,309.62s138.62,309.62,309.62,309.62S7344,7193,7344,7022,7205.35,6712.42,7034.35,6712.42Zm0,581.11c-149.94,0-271.49-121.55-271.49-271.49s121.55-271.49,271.49-271.49S7305.84,6872.1,7305.84,7022,7184.29,7293.53,7034.35,7293.53Z" transform="translate(-6723.74 -6711.42)"/><path class="cls-3" d="M7034.24,6732.22c-160.47,0-290.55,130.09-290.55,290.55s130.09,290.55,290.55,290.55,290.55-130.09,290.55-290.55S7194.71,6732.22,7034.24,6732.22Zm0,558.78C6886.1,7291,6766,7170.91,6766,7022.77s120.09-268.23,268.23-268.23,268.23,120.09,268.23,268.23S7182.38,7291,7034.24,7291Z" transform="translate(-6723.74 -6711.42)"/></svg>