<svg id="forgrund" xmlns="http://www.w3.org/2000/svg" viewBox="0 0 608.42 534.55"><defs><style>.cls-1{fill:#c7a315;}</style></defs><title>nedsivning_zoom01_forgrund</title><path class="cls-1" d="M6774.48,7041.48c3.59-8.59,11.14-11.69,20.64-17.77s20.75-8.7,31.82-10.82c34.74-6.66,72.06-9.2,104.28,5.41s56.78,51,47.65,85.13c-7.78,29.15-36.65,48-65.61,56.44-36.44,10.65-78.23,8.42-109.27-13.44s-47.33-65.75-31.17-100.1c0,0,.59-3.93,1.53-2.12Z" transform="translate(-6739.11 -6758.89)"/><path class="cls-1" d="M7247.5,7043.13c22.11,1.67,44.48,8.74,60.84,23.7s25.63,38.68,19.73,60.06c-4.74,17.17-18.62,30.93-34.89,38.19s-34.7,8.55-52.4,6.59c-31-3.43-63.53-19.51-74.18-48.84a58.29,58.29,0,0,1,60.28-77.93Z" transform="translate(-6739.11 -6758.89)"/><path class="cls-1" d="M7000.66,7146.94c9-10.56,14-13.09,27.1-15.86s26.74-1.21,40,.92c16.07,2.58,32.24,6,46.69,13.56s27.14,19.52,32.44,34.91c9.71,28.17-9.23,60.75-36.57,72.62s-59.72,6.29-86.1-7.57c-13-6.85-25.27-15.85-33.58-28s-12.27-27.79-8.26-42S6990.15,7151.56,7000.66,7146.94Z" transform="translate(-6739.11 -6758.89)"/><path class="cls-1" d="M7009.16,6955.2c24.82-2.72,50.34-5.38,74.43,1.17s46.78,24.52,51.31,49.08c4.87,26.41-13.54,53.57-38.36,63.85s-53.87,5.87-77.84-6.25c-16.74-8.47-32-21-40.29-37.88s-8.44-38.31,2.58-53.5,28.17-16.47,39.07-17.62Z" transform="translate(-6739.11 -6758.89)"/><path class="cls-1" d="M6918.14,6918.22c7.08,4.37,13.9,11.62,12.64,19.85-1.18,7.74-8.9,12.58-16.09,15.69-9.88,4.27-20.55,7.33-31.28,6.55s-21.54-5.88-27.23-15c-7.46-12-3.44-30.36,10.59-34.47C6883.67,6905.9,6903.26,6909,6918.14,6918.22Z" transform="translate(-6739.11 -6758.89)"/><path class="cls-1" d="M7028.32,7250.54c7.08,4.37,13.9,11.62,12.64,19.85-1.18,7.74-8.9,12.58-16.09,15.69-9.88,4.27-20.55,7.33-31.28,6.55s-21.54-5.88-27.23-15c-7.46-12-3.44-30.36,10.59-34.47C6993.85,7238.22,7013.45,7241.36,7028.32,7250.54Z" transform="translate(-6739.11 -6758.89)"/><path class="cls-1" d="M6862.8,7178.32c7.08,4.37,13.9,11.62,12.64,19.85-1.18,7.74-8.9,12.58-16.09,15.69-9.88,4.27-20.55,7.33-31.28,6.55s-21.54-5.88-27.23-15c-7.46-12-3.44-30.36,10.59-34.47C6828.33,7166,6847.92,7169.13,6862.8,7178.32Z" transform="translate(-6739.11 -6758.89)"/><path class="cls-1" d="M7209.85,6976.06c-10.76,5.21-23.72,3.58-34.78-.95-9.5-3.89-19-11.24-19.8-21.48-1.57-21.41,30.6-30.08,46.7-23.95,9.24,3.52,20.34,10.44,22.19,20.89S7219,6971.65,7209.85,6976.06Z" transform="translate(-6739.11 -6758.89)"/><path class="cls-1" d="M7150.65,6807.19c-10.76,5.21-23.72,3.58-34.78-.95-9.5-3.89-19-11.24-19.8-21.48-1.57-21.41,30.6-30.08,46.7-23.95,9.24,3.52,20.34,10.44,22.19,20.89S7159.76,6802.78,7150.65,6807.19Z" transform="translate(-6739.11 -6758.89)"/><path class="cls-1" d="M7141.17,7091c4.33,7.38,4.6,17.25-.23,24.32s-13.74,10.38-22.29,11.25c-9.56,1-19.67-.69-27.49-6.28-15.67-11.2-14.48-34.71,4-42.41C7109.83,7071.8,7132.94,7077,7141.17,7091Z" transform="translate(-6739.11 -6758.89)"/><path class="cls-1" d="M7184,7257.61c4.33,7.38,4.6,17.25-.23,24.32s-13.74,10.38-22.29,11.25c-9.56,1-19.67-.69-27.49-6.28-15.67-11.2-14.48-34.71,4-42.41C7152.65,7238.37,7175.77,7243.6,7184,7257.61Z" transform="translate(-6739.11 -6758.89)"/><path class="cls-1" d="M7278.64,6885.25c7,4.94,11.29,13.83,9.8,22.26s-8.25,15.11-15.69,19.42c-8.31,4.82-18.21,7.47-27.64,5.59-18.89-3.76-27.48-25.68-13.82-40.29C7242.16,6880.61,7265.38,6875.86,7278.64,6885.25Z" transform="translate(-6739.11 -6758.89)"/><path class="cls-1" d="M7013.94,7070.56c7.53,0,6.77,3.15,11.61,3.74,5.79,0.71,11.66,1.56,17,4.35a23.23,23.23,0,0,1,11.94,14.75c2.71,10.83-3.53,22.79-11.93,27.37s-18.14,3.31-27,.3c-7.1-2.42-14.19-6.1-19.24-12.73s-7.61-16.76-4.73-25.13,12.68-12.5,15.81-11C7009.37,7073.12,7011.82,7070.56,7013.94,7070.56Z" transform="translate(-6739.11 -6758.89)"/><path class="cls-1" d="M7080.28,6878.94c12.56,1,25.27,2.06,37.18,6.17s23.12,11.67,29,22.82,5.23,26.15-3.56,35.17c-6.29,6.45-15.72,9.07-24.73,8.93s-17.78-2.74-26.39-5.4c-11.8-3.64-24.6-8.25-30.75-19-5.86-10.2-3.63-23.78,3.58-33.06s18.6-14.63,30.18-16.68" transform="translate(-6739.11 -6758.89)"/><path class="cls-1" d="M7207.2,7002.5c5,5.23,4.23,14.23-.25,19.94s-11.65,8.64-18.74,10.15c-6.85,1.45-14,1.79-20.81,0s-13.07-5.9-16.68-11.9c-6.86-11.41-.88-28.93,13.56-28.79,6.19,0.06,12.84,2.39,19,3.34C7190.82,6996.4,7201.49,6996.56,7207.2,7002.5Z" transform="translate(-6739.11 -6758.89)"/><path class="cls-1" d="M6933.72,6853.46c15.14-3.32,30.93-5,46.13-2s29.84,11.33,38,24.53,8.51,31.53-1.2,43.61c-6.49,8.08-16.68,12.65-27,13.83s-20.74-.75-30.62-3.88c-12.87-4.07-25.41-10.44-34.2-20.69s-13.21-24.89-8.86-37.67,18.78-22.08,31.77-18.4" transform="translate(-6739.11 -6758.89)"/><path class="cls-1" d="M6926.91,6955.42c8.24-2.46,17.3-2.09,24.64,3.31s12.43,16.56,10.82,27.25a26.13,26.13,0,0,1-17.77,21.07c-8.3,2.48-17,.59-25.28-1.83-5.76-1.68-11.62-3.69-16.45-8.08-7.84-7.13-12-23.84-2.08-31.52,2.83-2.19,6.36-1.7,9.46-2.78C6915.94,6960.86,6921.12,6957.15,6926.91,6955.42Z" transform="translate(-6739.11 -6758.89)"/><path class="cls-1" d="M6842.51,6939c5.69,5.54,11.52,13.46,11.45,23.66-0.08,11.53-7.55,19.52-14.49,24.42-17.46,12.33-37,18-56.24,16.36-9.29-.8-18.7-3.37-26.84-10.15s-14.89-18.25-16.71-32c-4.76-36,21.12-43.49,38.75-45.78C6800.72,6912.67,6823.69,6920.68,6842.51,6939Z" transform="translate(-6739.11 -6758.89)"/><path class="cls-1" d="M6945.24,7175.25c14.7,3.19,27.71,14.84,30.74,29.57,2.31,11.23-1.23,23.28-8.43,32.2s-17.76,14.81-28.94,17.38c-12.66,2.91-26.58,1.56-37.59-5.33-22.08-13.81-20.48-37.21-5.67-55.2C6907.55,7179.07,6925.55,7171,6945.24,7175.25Z" transform="translate(-6739.11 -6758.89)"/><path class="cls-1" d="M7216.5,7181.42c9.81,3.75,20.14,9.65,23,19.74,2.33,8.14-1,17-6.25,23.64-9.55,12.06-26,18.47-41.06,15.16s-27.52-16.65-29-32c-1.16-11.9,5.56-27.58,17-32.84C7190.54,7170.41,7206.8,7177.72,7216.5,7181.42Z" transform="translate(-6739.11 -6758.89)"/><path class="cls-1" d="M7075.27,6783.68c17.23,10.14,29.44,31.54,22.82,50.41-5.29,15.08-21.47,24.62-37.44,25.2s-31.45-6.49-44-16.33c-8.28-6.46-15.71-14.34-20-23.93s-5.13-21-.59-30.52C7009.2,6760.94,7055,6771.75,7075.27,6783.68Z" transform="translate(-6739.11 -6758.89)"/><path class="cls-1" d="M6882.36,6844.5c8.57,9.66,11.5,24.83,4.78,35.85-6,9.84-17.69,14.36-28.6,18-12.82,4.33-26.07,8.48-39.59,7.82s-27.55-7.05-33.74-19.09c-10.61-20.62,5.94-50.59,27.76-56.05S6866.37,6826.48,6882.36,6844.5Z" transform="translate(-6739.11 -6758.89)"/><path class="cls-1" d="M7220.79,6821.18c13.42,6.92,26.11,18.56,27.41,33.6,0.93,10.77-4.41,21.47-12.45,28.7s-18.49,11.3-29.1,13.42c-16.52,3.3-34.34,2-49.14-6.08s-26-23.4-26.82-40.22C7128.28,6800.49,7190.84,6805.73,7220.79,6821.18Z" transform="translate(-6739.11 -6758.89)"/><path class="cls-1" d="M7300,6932.56c14.71,0.84,29.51,7,38.73,18.49s11.84,28.58,4.51,41.36c-8.09,14.1-25.33,19.94-41.37,22.56-13,2.12-26.88,2.78-38.8-2.81a40.67,40.67,0,0,1-22.88-34.1C7238.63,6945.34,7272.17,6931,7300,6932.56Z" transform="translate(-6739.11 -6758.89)"/><path class="cls-1" d="M6946,6773.6c12.95,4.13,25.8,12.38,30,25.31,5.33,16.58-6.42,35.12-22.42,42s-34.57,4.4-51-1.3c-8.74-3-17.33-7-24.16-13.26-13.13-12-17.52-37.59.19-47.78C6897.71,6767.57,6925.6,6767.09,6946,6773.6Z" transform="translate(-6739.11 -6758.89)"/></svg>