<?xml version="1.0" encoding="utf-8"?>
<!-- Generator: Adobe Illustrator 19.2.1, SVG Export Plug-In . SVG Version: 6.00 Build 0)  -->
<!DOCTYPE svg PUBLIC "-//W3C//DTD SVG 1.1//EN" "http://www.w3.org/Graphics/SVG/1.1/DTD/svg11.dtd">
<svg version="1.1" xmlns="http://www.w3.org/2000/svg" xmlns:xlink="http://www.w3.org/1999/xlink" x="0px" y="0px"
	 viewBox="0 0 1170 731.2" style="enable-background:new 0 0 1170 731.2;" xml:space="preserve">
<style type="text/css">
	.st0{fill:#E5C180;}
	.st1{fill:#635454;}
	.st2{fill:#2B9ABE;}
	.st3{fill:#5CA5BF;}
	.st4{fill:#63A7BF;}
	.st5{fill:#4CA1BE;}
	.st6{fill:#54A3BF;}
</style>
<g id="vulkan_x5F_vand">
	<path class="st0" d="M957.8,160.1c-16.2-24-31.8-54-61.3-58.9c-18.9-3.1-35.5-7.1-53.1-12.9c-46.8-15.4-66.4,68.3-89.6,110.3
		c-29.7,54-68.1,103.6-113.5,146.6C550,431,433.9,488.7,313.1,527.5S6,455.9,10.1,577.6c1,30.4,27.7,150.6,27.7,150.6l1138.4,7.6
		V585.7V432.4v-58.8c0,0-2.2-29-17.7-43c-30.7-27.7-65.7-50.7-99.2-75C1021.4,228.2,983.9,198.6,957.8,160.1z"/>
</g>
<g id="GUIDE">
</g>
<g id="måger">
	<path class="st1" d="M118.4,25.6c0.6,3.3,1.1,7.1-1.2,11c-2.3,3.8-5.7,6.7-8.8,9.9c-1.2,1.2-2.4,2.5-3.8,3.4
		c-1.4,0.9-3,1.3-4.5,1.8c-3.7,1.3-7.2,3.4-10.3,6.1c-0.8,0.7-1.6,1.5-1.7,2.6c-0.2,1.7,1.4,2.9,2.6,3.9c2.9,2.5,6.5,7.1,3.9,10.9
		c-0.5,0.2-2.1-2.6-3.4-3.1c-5-1.7-10-3.4-15-5.1c-1.9,5.2-7.2,8.1-12,10.5c-4.8,2.4-9.7,4.8-14.8,6.2c-5.1,1.4-10.5,1.7-15.2-0.2
		c10.5-8,18.1-13.9,21.7-17.7c1.6-1.5,3.6-5.1,5.6-6.5c2-1.4,2.3-1.7,4.6-2.3c-4.5-1.9-8.5-3.7-11.6-5.6c-0.3-0.2,1.5-1.5,3.7-2.7
		c0.3-0.2,0.9-0.2,1.3-0.4c0.2-0.1,1.1-1,1.3-1.1c0.8-0.4,0.7-0.2,1.4-0.3c2.8-0.3,1.1-0.1,5.7,3.5c2.3,1.8,3.6,0.3,6.6,0.2
		c2.1,0,4.1-1.5,5.5-3.3c6.1-7.6,28.9-17.6,33.3-21.8c1-1,3.8-2.4,4.9-2C118.6,23.9,118.4,25.6,118.4,25.6z"/>
	<path class="st1" d="M1041.2,170.4c-1,1.8-2.1,4-1.4,6.3c0.7,2.4,2.5,4.3,4,6.3c0.6,0.8,1.1,1.6,1.9,2.3c0.8,0.6,1.8,1,2.7,1.4
		c2.2,1.1,4.2,2.6,5.7,4.3c0.4,0.5,0.8,1,0.6,1.6c-0.2,1-1.5,1.5-2.5,2c-2.4,1.2-5.8,3.5-4.8,5.9c0.3,0.2,1.9-1.3,2.9-1.4
		c3.7-0.5,7.4-1.1,11.1-1.6c0.2,3.1,3.2,5.2,6,7c2.8,1.8,5.5,3.5,8.7,4.8c3.2,1.2,6.7,1.8,10.3,1.2c-5.4-5.4-9.4-9.4-11-11.9
		c-0.8-1-1.4-3.2-2.5-4.1c-1.1-0.9-1.2-1.2-2.7-1.7c3.4-0.7,6.4-1.4,8.9-2.2c0.2-0.1-0.7-1-1.9-1.9c-0.2-0.1-0.6-0.2-0.8-0.3
		c-0.1-0.1-0.6-0.6-0.7-0.7c-0.4-0.3-0.5-0.2-0.9-0.3c-1.8-0.4-0.7-0.1-4.5,1.5c-1.9,0.8-2.5-0.2-4.4-0.4c-1.4-0.2-2.5-1.2-3.1-2.3
		c-2.6-4.9-15.9-12.4-18.1-15.2c-0.5-0.6-2.1-1.7-2.9-1.6C1041.4,169.4,1041.2,170.4,1041.2,170.4z"/>
</g>
<g id="vand_1_">
</g>
<g id="Layer_5">
	<g>
		<path class="st2" d="M16.3,734.5C13,705.8,10,636,7.6,606.1c-2-25.5-3.9-50.9-3.4-76.5c0.1-7,0.3-14.1,2.2-20.9
			c3.1-3.3,4.6-3.2,7.5,0.7c0.8,1.1,1.5,2.4,2.1,3.6c2.4,4.2,3.8,4.6,8.2,2.8c1.7-0.7,3.5-2,5.5-1.2c4.4,1.7,8.6,3.8,11.4,7.8
			c2.5,3.5,4,7.5,5.6,11.4c2,5,4.1,5.8,9.1,3.8c1.4-0.5,2.7-1.3,4-1.9c1.3-0.6,2.6-1.3,4-1c6.1,1.5,11.9,3.6,14.8,9.8
			c1.3,2.8,2.3,5.6,3.2,8.5c1.6,5.2,3.3,6.2,8.4,4.3c6.3-2.3,13.1-0.3,17.1,5c2,2.6,4,5.3,5.9,7.9c3.2,4.3,6.9,7.8,12.7,8.2
			c1.1,0.1,2.1,0.7,3.1,1.3c3.3,1.8,5.2,4.7,7.1,7.8c2,3.3,4.5,4.3,8,2.8c5.3-2.3,9.5-0.3,13,3.2c5.9,6,12.8,10.7,20.2,14.5
			c8.7,4.5,15.8,10.5,20.9,19c3.4,5.7,9.1,8.6,15.6,8.4c4.8-0.2,9.5,0.4,14.2,0.6c7.6,0.4,12.8,4.6,15.6,10.9
			c5.4,12.6,15.4,20.8,25.5,29c6.8,5.5,15,7.7,22.2,12.6c1.3,0.9,2.2,0.5,3.1-0.6c1.9-2.6,4-5,5.9-7.6c1.9-2.5,4.4-4.2,7.2-5.4
			c3.7-1.6,7.7-2.8,11.4-4.4c19.7-8.3,39.6-15.2,60.7-19.2c0.8-0.2,1.5-0.3,2-1.1c0.3,0,0.6,0,1,0c0.9,0.5,1.6,0.4,2.1-0.5
			c0.3,0,0.7,0,1,0c0.7,0.4,1.4,0.5,2.1-0.1c0.3,0,0.7,0,1,0c1,0.1,2,0.1,2.7-0.9c0.3,0,0.7,0,1,0c1,0.5,2,0.6,2.7-0.5
			c0.5,0,1,0,1.5,0c0.9,0.5,1.6,0.4,2.1-0.5c0.5,0,1,0,1.5,0c0.9,0.5,1.8,0.5,2.6-0.1c0.5,0,1,0,1.6,0c2.6-0.1,5.3-0.2,7.8-1
			c0.3,0,0.7,0,1,0c1.2,0,2.5,0.2,3.6-0.5c0.5,0,1,0,1.6,0c2.7,0,5.3-0.3,7.8-1c0.4,0,0.7,0,1.1,0c1.1,0,2.2,0.1,3.1-0.5
			c0.4,0,0.7,0,1.1,0c4.4-0.3,8.8-1.2,13.1-2.1c13-2.6,25.6-6.8,38.5-10.1c0.8-0.2,1.7-0.4,2.2-1.2c0.3,0,0.6,0,1,0
			c0.7,0.4,1.3,0.2,1.6-0.5c0.3,0,0.6,0,1,0c0.6,0.3,0.9,0,1.1-0.5c0.3,0,0.7,0,1,0c4.1,0.1,8.1-0.9,12-2.2c0.3,0,0.7,0,1,0
			c0.5-0.1,1.1-0.3,1.6-0.4c0.3,0,0.7,0,1,0c0.5-0.2,1-0.3,1.6-0.5c0.3,0,0.7,0,1,0c0.9-0.1,1.7-0.2,2.6-0.3
			c14.3-2.4,28-6.7,41.3-12.2c11.9-4.9,24.1-8.8,37-10.1c2.7-0.3,5.6,0.3,8.2-0.8c2.8,0,5.6-0.1,8.3-0.1c0.9,0.1,1.8,0.1,2.6-0.4
			c1,0,2.1-0.1,3.1-0.1c0.7,0,1.3-0.2,1.6-0.9c0.7,0,1.3,0,2,0c0.7,0.4,1.5,0.2,2.3,0.1c3.6-0.7,7.1-1.5,10.6-2.6
			c14.9-4.7,29.3-11,44.4-15.1c0.7-0.2,1.3-0.5,1.7-1.1c0.3,0,0.6,0,1,0c1.5,0.5,2.7,0.2,3.7-1c0.3,0,0.6,0,1,0
			c1.5,0.6,2.8,0,4.2-0.6c0.3,0,0.7,0,1-0.1c0.5-0.1,1.1-0.3,1.6-0.4c0.3,0,0.7,0,1-0.1c0.8,0.1,1.5,0,2.1-0.5c0.3,0,0.7,0,1-0.1
			c0.5-0.1,1.1-0.3,1.6-0.4c0.7,0,1.4-0.1,2.1-0.1c0.5-0.1,1.1-0.3,1.6-0.4c0.7,0,1.4-0.1,2.1-0.1c0.5-0.1,1.1-0.3,1.6-0.4
			c0.7,0,1.4-0.1,2.1-0.1c0.5-0.1,1.1-0.3,1.6-0.4c0.7,0,1.4-0.1,2.1-0.1c0.8,0.1,1.5,0,2.1-0.4c0.7,0,1.4-0.1,2.1-0.1
			c0.9,0.1,1.7,0,2.2-0.9c0.5,0,1,0,1.5,0c0.7,0.4,1.4,0.4,2.1-0.1c0.5,0,1,0,1.6-0.1c0.6,0.1,1.1-0.1,1.6-0.5c0.5,0,1,0,1.6-0.1
			c0.5-0.1,0.9-0.4,1.2-0.9c0.5,0,1,0,1.5,0c0.7,0.4,1.3,0.2,1.6-0.5c0.3,0,0.7,0,1,0c0.6,0.3,0.9,0,1.1-0.5c0.3,0,0.7,0,1,0
			c0.7,0.4,1.3,0.3,2,0.1c6-1.4,12-2.9,17.9-4.3c0.6-0.1,1.1-0.4,1.5-0.9c0.5,0,1,0,1.5,0c0.5,0.3,1.1,0.3,1.6-0.1
			c0.9,0,1.7-0.1,2.6-0.1c0.6,0,1.1-0.1,1.6-0.5c1.6-0.2,3.1-0.4,4.7-0.6c0.5-0.1,1-0.3,1.6-0.4c0.4,0,0.7,0,1.1,0
			c0.7-0.1,1.4-0.2,2.1-0.3c10.1-1.9,19.7-5.4,29.4-8.6c2.1-0.7,4.5-0.7,6.2-2.4c0.3,0,0.6,0,0.9,0c0.6,0.3,0.9,0,1.2-0.5
			c0.5,0,1,0,1.4,0c0.4,0.2,0.7,0.2,1-0.1c0.7,0,1.4-0.1,2.1-0.1c0.3-0.1,0.7-0.3,1-0.4c0.5,0,1-0.1,1.6-0.1c11.1-1.4,22.3-2.5,33-6
			c9.7-3.1,18.5-8.9,28.5-11.2c0.4,0,0.7,0,1.1-0.1c0.9,0.1,1.8,0.1,2.6-0.4c0.9,0,1.7-0.1,2.6-0.1c0.9,0.1,1.8,0.1,2.6-0.4
			c0.7,0,1.4-0.1,2.1-0.1c0.7,0.1,1.5,0,2.1-0.4c0.5,0,1-0.1,1.6-0.1c0.6,0.1,1.1-0.1,1.6-0.4c0.3,0,0.7-0.1,1-0.1
			c0.3,0,0.5,0,0.8,0c8.9-1.7,16.6-6.5,24.9-9.6c0.2-0.1,0.3-0.4,0.5-0.6c0.3,0,0.6,0,0.9,0c0.4,0.2,0.7,0.2,1-0.1
			c0.5,0,1-0.1,1.5-0.1c2.1-0.6,4.3,0,6.3-0.9c4.1,0.7,8.3,1.4,12.4,2.1c3.2,0.5,5.5,2.3,7,5.2c2.9,5.4,3.8,11.4,4.3,17.3
			c1,11.5,1.4,23,1.1,34.6c-0.6,26.5-2.5,52.9-4.8,79.3c-1.6,18.6-3.3,57.2-5.2,74.7L16.3,734.5z"/>
		<path class="st3" d="M773.2,499.2c2.3-0.2,4.4,1.2,6.7,1.2c-1,1.9-3,1.9-4.6,2.6c-1.3,0.5-3.6,0.2-3.5,1.9c0,1.4,2.2,1.3,3.5,1.6
			c5.1,1.5,10.4,1.9,15.2,4.4c1,0.5,2.3,0.8,2.3,2.2c0,1.5-1.2,2-2.3,2.6c-2.5,1.2-5,2.3-7.5,3.6c-0.8,0.4-1.9,0.8-1.7,2
			c0.2,1,1.2,1.2,2,1.5c6.1,2,12.4,3.3,18.9,3.1c1.2,0,2.4-0.1,3-1.2c1.5-2.4,3.9-3.6,6.1-5.2c1.8-1.2,3-2.8,3-5.1
			c0-1.4,0.7-2.5,1.5-3.5c1.2-1.6,1.1-2.8-0.6-3.9c-1.3-0.8-2-1.9-1.4-3.5c3.2,0.7,6.4,1.4,9.7,1.7c1,0.1,2,0.6,3,0.8
			c-0.6,0.3-1,0.7-0.7,1.4c0.5,1.3,0,2.2-0.9,3c-1.6,1.4-2.5,3.3-3.1,5.3c-0.6,2.3-1.7,4.3-3.5,6c-1.8,1.7-1.7,3.6,0.2,5.4
			c1,0.9,2.2,1.4,3.5,1.7c3.5,0.9,7.1,1.3,10.8,1.7c1,0.1,1.9,0,2.5,1.1c-2.3,0-4.5,0.1-6.8,0c-5-0.2-9.4,1.2-13.2,4.5
			c-2.4,2-4.9,3.9-7.7,5.3c-0.9,0.5-1.4,1.2-1.5,2.3c-5.8-0.1-11.6-0.5-17.2,1.2c-1.3,0.4-3.1,0.6-3.1,2.2c0,1.4,1.9,1.6,3.1,2
			c6.4,2.1,13,3,19.6,4c1.3,0.2,2.7,0.2,2.9,2c-0.5,0-1,0.1-1.6,0.1c-0.5-0.2-0.8,0-1,0.4c-0.7,0-1.4,0.1-2.1,0.1
			c-0.4-0.2-0.7-0.2-1,0.1c-0.5,0-1,0-1.4,0c-0.4,0.2-0.8,0.3-1.2,0.5c-0.3,0-0.6,0-0.9,0c-0.7,0.1-1.5,0.3-2.2,0.5
			c-0.1-1.2-0.9-1.8-2.1-2c-8.1-1.2-16.3-1.8-24.4-0.9c-8.4,1-16.7,2-25.1,2.2c-13.4,0.4-26.7,1.4-40.1,1.2
			c-6.3-0.1-12.4,1.1-18.4,3c-1.7,0.5-3.8,0.9-4.7,2.6c-1.8,3.6-5.1,4.6-8.6,5.2c-15.3,2.6-30.6,2.1-45.9-0.3
			c-3.2-0.5-6.3-2-8.5-4.7c-1.4-1.6-1.2-3.1,0.8-4c1.9-0.9,3.9-1.4,5.8-2.2c1.4-0.6,3.4-0.4,3.8-2.2c0.4-1.9-1.5-2.5-2.7-3.5
			c-0.4-0.4-0.8-0.7-1.2-1c-3.1-2.5-3-3.8,0.3-6.1c0.4-0.3,0.8-0.7,1.3-0.8c6.4-1.9,3.6-8.8,6.7-12.6c0.1-0.1,0-0.3-0.1-0.5
			c-0.4-1.7,0.5-2.4,2-2.6c7.2-1,14.5-1.3,21.4,0.9c5.6,1.8,11,1.8,16.6,0.3c5.1-1.3,9.7-3.7,14.6-5.6c6.5-2.5,13.3-3.4,20.2-2.8
			c9,0.9,17.9,2.3,27,1.9c1.6-0.1,3.1-0.2,4.6-0.7c0.6-0.2,1.2-0.4,1.3-1.1c0.1-0.7-0.5-1.1-1-1.4c-1.1-0.8-2.7-1.2-3.2-2.6
			c-0.7-2-2.3-2.7-4.2-3.1c-6.4-1.2-12.9-1.7-19.4-2.2c-8.1-0.6-15.8,1.8-23.6,3.7c5.2-3.3,11-6.1,17.1-6.1
			c11.2,0,22.3,1.9,33.2,4.6c1.9,0.5,3.9,1,5.4,2.4c2.2,2.1,4.8,3,7.6,3.8c1.8,0.5,3.7,1,5.5,1.6c0.7,0.2,1.7,0.4,1.7,1.4
			c0,1.2-1.1,1.3-1.9,1.4c-1.1,0.2-2.2,0.4-3.4,0.4c-9.6-0.2-19.3,0.6-28.9-0.5c-4.9-0.5-9.8-1.1-14.7-1.6
			c-9.5-0.9-18.2,1.5-26.7,5.6c-3.3,1.6-6.7,2.9-10,4.4c-7.3,3.1-14.8,3.1-22.5,1.8c-3.1-0.5-6.2-0.5-9.3,0c-1,0.2-2.1,0.6-2.4,1.8
			c-0.2,1.4,0.9,2,1.8,2.6c0.6,0.4,1.3,0.5,1.9,0.8c0.6,0.3,1.5,0.4,1.6,1.2c0,0.9-1,0.9-1.6,1.1c-2.2,0.8-4.5,1.4-6.5,2.6
			c-4.7,2.8-4.9,5.9-0.7,9.4c0.7,0.6,1.6,1.2,1.4,2.3c-0.2,1.2-1.3,1.6-2.3,1.8c-1.9,0.5-3.9,1.1-5.6,2c-1,0.5-1.7,1.2-1.7,2.4
			c0,1.3,0.8,2,1.9,2.5c0.6,0.2,1.1,0.4,1.7,0.6c10,3.3,20.3,3.2,30.7,2.5c1.8-0.1,3.6-0.5,5.4-1c1.3-0.3,2.7-0.9,3-2.2
			c0.7-3.1,3-3.9,5.6-4.8c5.7-2,11.7-3.3,17.3-5.8c0.7-0.3,1.6-0.6,1.7-1.5c0.1-1.1-1-1.4-1.7-1.7c-3.9-1.5-7.8-3-11.7-4.5
			c-0.8-0.3-1.9-0.5-1.8-1.6c0.1-1.1,1.2-1,2.1-1.2c5.3-0.9,10.7-1.4,15.9-2.7c14.7-3.7,29.6-4.9,44.7-3.6c0.9,0.1,1.7,0.1,2.5,0.5
			c-1.1,0.7-2.4,0.5-3.6,0.5c-7.5,0.2-14.9-0.4-22.4,0.5c-8.6,1-17,2.7-25.2,5.2c-0.9,0.3-2.1,0.4-2,1.6c0.1,1.2,1.4,1.2,2.2,1.4
			c6.2,1.8,12.6,1.4,18.9,0.5c14-2,28.2-2.5,42.2-3.4c10-0.6,20-1.9,30.1-2.2c0.8,0,1.5-0.2,2-1c2.1,0.4,4.2,0.6,6.3,0.5
			c4.9,1.1,10.4-1.5,13.2-6.2c1.4-2.4,0.8-4.2-1.8-5.1c-1.6-0.6-3.4-0.9-5.1-1.2c-10.1-1.6-20.3-2.8-30.2-5.7
			c-1.2-0.4-3.3-0.3-3.3-2c0-1.8,2.1-1.7,3.4-2.2c2.3-0.7,4.7-1.2,6.7-2.8c2.6-2.2,2.4-4-0.6-5.6c-2.8-1.4-5.8-2.2-8.8-3.1
			c-6.9-2.1-14.1-2.8-21.1-4.3c-11-2.3-21.9-3.2-33-0.6c-3.7,0.9-7.4,2.2-11.3,1.7c-7.8-0.9-15.7-2.1-23.3-4.4
			c-2.3-0.7-4.7-1.3-5.8-3.9c-0.3-0.7-1.2-1.1-1.9-1.2c-3.5-0.4-7.1-1.4-9.8,2.1c-0.8,1-2,1.4-3.2,1.7c-5.8,1.7-11.4,3.7-17.3,4.8
			c-3.2,0.7-6.5,1.4-9.5,2.6c-0.7,0.3-1.5,0.6-1.5,1.6c0,0.8,0.8,1.1,1.4,1.5c1.4,0.8,2.9,1.1,4.4,1.4c7.6,1.4,15.3,2.1,22.9,3.6
			c4.8,1,9.7,1.4,14.6,2.1c-0.7,0.9-1.7,1.1-2.8,0.9c-7.9-1-15.8-2.1-23.8-2.8c-5-0.4-10.2-1.2-15,1.5c-7.9,4.4-16.2,8-25.1,9.8
			c-5.1,1-10.1,2.4-15.2,3.7c-2.6,0.7-2.8,1.2-1.1,3.2c0.5,0.5,1,1.1,1,1.8c0.1,2.5,1.7,3.4,3.7,4.2c2.9,1.2,5.9,2.3,8.2,4.4
			c2.5,2.3,2.2,4-0.9,5.5c-4.6,2.3-9.6,3-14.5,3.7c-0.9,0.1-1.9,0.2-2.8,0.6c-1.2,0.6-1.3,1.4-0.1,2.1c0.8,0.5,1.7,0.8,2.6,1.1
			c2.8,1,5.6,1.9,8.3,3.1c2.2,1,2.4,2.7,0.6,4.3c-0.6,0.5-1.2,0.9-1.9,1.4c-2.7,1.9-2.6,3.4,0.5,4.7c0.9,0.4,1.8,0.6,2.7,1
			c2.5,1,5.1,1.6,7.4,3.2c1.8,1.2,2.3,2.8,1.4,4.7c-0.9,2-2.2,3.8-3.9,5.1c-7.3,5.5-15.5,7-24.4,5.2c-18.1-3.8-36.4-5.3-54.9-3.6
			c-3.9,0.3-7.8,0.5-11.6,1.7c-2.2,0.7-5,1.2-5,3.8c0,2.8,3,3.3,5.3,3.7c8.5,1.4,17.1,0.8,25.7,0.5c5.9-0.2,11.8-0.8,17.4-2.7
			c5-1.6,10.1-2.4,15.3-2.7c3.2-0.2,6.4-0.3,9.3,1.5c-2.1,1-4.3,0.2-6.4,0.7c-2.1,0.5-4.7,0.4-5.5,2.8c-0.8,2.3,1.3,3.7,2.6,5.2
			c1.8,2.1,1.7,3.2-0.5,4.9c-1.1,0.8-2.6,1-3.2,2.5c-4.6,1.1-9,2.7-13.4,4.3c-8.5,3.2-16.9,7-25.7,9.3c-0.3-0.1-0.7-0.3-1-0.3
			c-7.8,1.4-15.6,2.5-23.1,4.9c-0.9,0.3-1.6,0.7-2,1.6c-0.7,0.1-1.3,0.3-1.6,1c-0.3,0-0.7,0-1,0.1c-4.2-0.4-8.1,0.9-12,2.2
			c-0.3,0-0.7,0-1,0c-0.4,0.2-0.7,0.3-1.1,0.5c-0.3,0-0.6,0-1,0c-0.5,0.2-1.1,0.3-1.6,0.5c-0.3,0-0.6,0-1,0
			c-8.9,1.7-17.4,4.5-26.1,6.8c-6.2,1.6-12.3,3.5-18.8,4.1c-1.8-1-3.6,0-5.3,0c-7.5,0.1-14.9,1.2-22.2,2.9c-0.8,0.2-1.7,0.3-2.2,1.2
			c-0.5,0-1,0-1.6,0c-0.6-0.3-0.9,0-1.1,0.5c-1.3,0.1-2.7-0.4-3.7,1c-0.5,0-1,0-1.6,0c-0.9-0.5-1.8-0.5-2.6,0.1c-0.5,0-1,0-1.5,0
			c-0.8-0.1-1.5,0-2.1,0.5c-0.5,0-1,0-1.5,0c-0.9-0.1-1.9-0.1-2.7,0.5c-0.3,0-0.7,0-1,0c-1,0-2-0.1-2.7,0.9c-0.3,0-0.7,0-1,0
			c-0.7-0.5-1.4-0.4-2.1,0.1c-0.3,0-0.7,0-1,0c-0.8-0.1-1.5,0-2.1,0.5c-0.3,0-0.6,0-1,0c-3.8,0.1-7.3,1.4-11,2
			c0.3-0.9,1-1.4,1.8-1.9c0.7-0.5,1.3-1,1-1.9c-1-2.7,0.8-3.8,2.7-4.9c3.8-2.1,7.9-3.1,12.1-3.8c9.8-1.7,19.5-3.2,29.3-4.7
			c9.4-1.5,19-2.2,28.5-2c5.7,0.1,11.4,0.6,17.2,0.4c6.1-0.2,12.1-1,17.8-3.4c3.9-1.6,4.3-2.5,2.8-6.5c-0.6-1.6-0.4-2.7,1.3-3.3
			c2.1-0.7,4.1-1.4,6.2-1.9c12.6-3.2,25.4-4,38.2-3.7c5.6,0.2,11.1-0.6,16.5-2.2c6-1.8,12.1-3.4,17.4-6.8c3-1.9,2.9-4-0.1-5.9
			c-4.9-3.1-10.1-3.6-15.5-2c-3.2,1-6.3,2.1-9.4,3.1c-9.4,3.1-19,4.9-29,3.4c-9.9-1.5-19.9-1.6-29.8-0.3
			c-12.9,1.7-25.7,3.9-38.6,6.1c-4.5,0.8-9.1,1.6-13.2,3.9c-1.1,0.6-2,1.4-1.8,2.9c0.3,1.5,1.5,1.9,2.8,1.9c2.8,0.1,5.5,0.2,8.3-0.2
			c5.2-0.8,10.3-1.2,15.5-0.3c0.8,0.1,2,0.3,2,1.3c0,1.1-1.1,1.2-1.9,1.4c-4.9,1.2-9.8,1.3-14.7,0.7c-6.2-0.7-12.4-1.7-18.6-0.1
			c-18.4,4.7-37.1,7.4-56.1,7.6c-6.8,0.1-13.5,0.1-20.3,0.6c-6,0.4-12.1,0.7-18,2.7c-2.4,0.8-4.1,2.3-4.9,4.7
			c-2.8,9-9.6,14.6-17,19.7c-5,3.4-10.8,5.2-16.6,6.7c-2.8,0.7-3.1,1.1-1.2,3.2c1.3,1.4,2.8,2.4,4.5,3.1c4.2,2,8.5,4,13,5.2
			c-1,1.1-2.1,1.9-3.6,2.1c-4.6-2-9.2-4.1-13.7-6.3c-5.9-2.9-10.4-6.5-14.8-11.1c-0.7-0.8-1.3-1.7-0.9-2.8c0.5-1.2,1.6-1.1,2.7-1.1
			c2.4,0,4.9,0,7.3,0c9.6,0,17.2-4.4,23.7-10.9c2.1-2.1,2.4-4.7,1.3-7.5c-2.2-5.4-8.4-9.8-14.2-9.8c-3.3,0-6.6,0-9.9,0
			c-5.8-0.1-11.6-1-17.4-0.4c-7,0.7-14.1,0.2-21.1,0.5c-8.4,0.3-16.6-1.3-24.7-3.3c-5.1-1.2-10-3.1-13.8-7c-1.1-1.1-2.2-2.6-1.6-4.2
			c0.6-1.7,2.4-1.7,4-1.7c4.6-0.1,9.1,0.3,13.7,0.1c11.3-0.5,22.3-2.2,33.1-5.4c11.3-3.4,22.8-6.1,34.6-7.2
			c14.3-1.3,28.3-4.6,41.9-9.2c1.2-0.4,2.5-0.9,3.5-1.7c2.5-1.7,2.7-3.6,0.7-5.9c-1-1.2-2.3-2.3-3-3.6c-2-3.7-5.3-4.9-9.1-5.8
			c-9.2-2-18.5-2-27.7-0.9c-10.8,1.2-21.5,3.3-31.3,8.3c-3.3,1.7-5.6,4-6.2,7.8c-0.5,2.9-2.4,4.8-5,5.9c-1.5,0.6-3.1,1.1-4.7,1.5
			c-11.6,2.9-23.4,3.8-35.3,4.1c-5.2,0.1-10.4,0.2-15.6,1.1c-3.9,0.7-7.4,0.3-10.9-1.2c-2.8-1.2-5.6-2.3-8.3-3.8
			c-3.9-2.2-7.8-4.6-9.5-9.2c-0.4-1.1-1.4-1.8-2.4-2.2c-2.2-0.9-4.3-1.9-6.7-2.2c-3.2-0.4-6.4-0.7-9.6-1c-2.9-0.3-6-0.8-7.8-3.1
			c-3.2-4.3-7.3-6.5-12.4-7.4c-2.3-0.4-4.3-1.5-6-3c-1.2-1.1-2.2-2.6-1.7-4.4c0.5-1.8,2.1-1.8,3.6-1.9c5.5-0.7,10.8-2,15.9-3.9
			c0.8-0.3,1.8-0.6,1.7-1.7c-0.1-1.1-1.2-1.2-2-1.4c-0.5-0.1-1-0.2-1.5-0.3c-9.2-1.5-18.3-2.7-27.7-2.7c-3.6,0-7.4-0.4-10.7-2.5
			c6-0.5,11.9-1.3,17.9-1.5c7.8-0.3,15.6,0.7,23.3,2.3c15.4,3.1,30.7,3.5,45.9-0.8c14.3-4.1,28.4-8.6,42.6-13.2
			c9.6-3.1,19.4-5.4,29.7-4.1c2.5,0.3,4.9,0.7,7.4,1c7,0.8,13.9,1.7,20.9,2.8c1.1,0.2,2.2,0.5,3.3,0.8c0.6,0.2,1.1,0.5,1.1,1.3
			c0,0.6-0.5,0.9-1,1.1c-1.6,0.5-3.1,1.2-4.7,1.4c-8.7,1.3-17.5,2.4-26.3,3.3c-12,1.1-24,2.9-35.8,5.2c-13.1,2.6-26.4,4.3-39.7,5.1
			c-4.9,0.3-9.9,0.7-14.8,1.3c-14.3,1.8-28,6.1-42,9.2c-1.1,0.2-2.5,0.4-2.6,1.7c-0.2,1.5,1.2,2.1,2.3,2.5c4.6,1.7,9.4,2.6,14.3,1.1
			c3.3-1,6.7-2,10-3c10.8-3.2,21.7-5.6,32.9-6.2c-1.1,1.5-2.8,1.3-4.2,1.5c-5.1,0.6-10.2,1.3-15.1,2.7c-2.9,0.8-5.9,1.6-8.6,3
			c-0.6,0.3-1.4,0.7-1.2,1.5c0.1,0.7,1,0.6,1.5,0.8c1.4,0.4,2.9,0.4,4.4,0.4c10.2,0,20.5-0.2,30.7,1c4.8,0.6,9.6,1.3,14.5,1.5
			c7.1,0.3,13.9-1.4,20.6-3.7c4.2-1.5,7.4-4,9.5-8c1.2-2.4,1-2.8-1.7-2.8c-3.2,0-6.4,0.5-9.6,0.6c-7.6,0.1-15.2,0.8-22.8,1.4
			c-3.5,0.3-7.1,0.7-10.6-0.4c3.4-0.5,6.8-1.2,10.3-1.5c10.3-1.1,20.6-2.2,30.5-5.2c10.6-3.2,21.3-4,32.2-2
			c3.8,0.7,7.6,0.2,11.3-0.7c8.8-2.2,17.6-4.2,26.4-6.2c8.6-1.9,17.3-2.8,26.1-3c7.4-0.2,14.9-1.4,22.4-0.3c2.3,0.4,4.8,0.5,7.2-0.6
			c-3.6-1.4-7.2-2.8-10.9-3.6c-2-0.4-3.9-0.8-5.5-2.1c-0.7-0.6-1.9-0.8-1.8-2c0.1-1.2,1.2-1.6,2.2-1.9c4.7-1.9,9.6-2.3,14.5-2.7
			c2.9-0.2,5.9-0.4,8.8-0.7c0.6-0.1,1.6-0.2,1.6-1c0-0.8-0.8-0.7-1.4-0.9c-3.6-1.3-7.3-1.4-11-1.5c-9.7-0.3-19.4,0.8-29.1,0.9
			c-7.8,0.1-15.5,0.9-22.8,3.5c-7.4,2.6-14.9,3.1-22.5,2.8c-2.6-0.1-5.2-0.7-7.6-1.8c-1.5-0.7-1.5-1.6-0.1-2.4
			c0.7-0.4,1.4-0.6,2.2-0.9c9.4-3.1,19-5.1,28.8-5.8c13.9-0.9,27.6-3.2,41.3-5.2c10.7-1.6,21.5-3.2,32.3-3.7
			c8.7-0.4,17.4,1.1,26.1,1.8c7.9,0.6,15.4,3.3,23.3,3.9c0.4,0,0.9,0.1,1,0.6c0.1,0.5-0.3,0.8-0.7,1c-1,0.5-2.2,0.8-3,1.4
			c-4.6,3.7-10.2,4.8-15.7,5.9c-6.3,1.3-10.1,4.3-11.2,10.5c-0.5,2.5-1.8,4.1-4.1,4.9c-3.6,1.3-7.2,1.8-11,1.7
			c-0.9,0-2.4-0.4-2.5,0.7c-0.1,1.3,1.5,1,2.4,1.3c0.2,0.1,0.5,0.1,0.8,0.1c6.9,1.3,13.9,2.1,20.9,2.4c2.1,0.1,4-0.3,5.2-2.3
			c1.3-2.3,3.5-3.4,5.9-4.4c11.6-4.9,24.2-6,36.3-9.3c1.7-0.5,3.6-0.5,4.5-2.3c2-4.1,5.8-4.9,9.6-5.5c1.9-0.3,3.8-0.4,5.7-0.7
			c0.7-0.1,1.6-0.1,1.7-0.9c0.2-0.9-0.8-1-1.4-1.2c-3.5-0.9-7.1-1.8-10.6-2.5c-3.5-0.6-6.8-1.9-10.5-1.6c-4.6,0.3-9.2-0.3-13.8,0.3
			c-0.7,0.1-1.6,0-1.9-0.7c-0.4-0.9,0.6-1.2,1.1-1.5c1.9-1.2,3.8-2.5,5.8-3.5c12.9-6.4,26.6-9.1,40.8-9.2c9.9,0,19.8-0.8,29.6-1.3
			c4.2-0.2,8.4-1.3,12.6-2c0.6-0.1,1.4-0.2,1.5-0.8c0.2-0.9-0.8-1-1.4-1.2c-1.6-0.5-3.2-0.9-4.8-1c-2.4-0.2-4.7-0.5-7.3-0.8
			c1.1-1.3,2.3-1.7,3.4-2c8.3-2.6,16.9-4,25.6-4.5c8.1-0.4,16.1-1.2,24-2.9c0.8-0.2,1.9-0.2,2.3-1.3c-1.9-1.3-4.4-0.6-6.2-2
			c1-0.6,2.2-0.6,3.3-0.5c3.8,0.4,7.5,1,11.3,1.3c3.9,0.3,7.8,0.5,11.6-0.6c0.9-0.3,1.9-0.6,2-1.8c0.1-1.1-1-1.4-1.7-1.7
			c-1.6-0.7-3.3-1.2-4.9-1.8c-0.6-0.2-1.4-0.5-1.4-1.4c0-0.8,0.6-1.2,1.3-1.4c0.9-0.3,1.8-0.6,2.7-0.8c2.5-0.7,5-1.3,7.5-2.1
			c0.6-0.2,1.2-0.4,1.1-1.2c-0.1-0.6-0.8-0.6-1.3-0.7c-2.2-0.4-4.4-0.6-6.7-0.6c-1.1,0-2.3,0.2-3-1c8-0.4,16.2,0.5,24-2.6
			c0.4,0.1,0.7,0.1,1.1,0.2c0.4,0.1,0.7,0.2,1.1,0.3c4.9,1.4,9.9,2.8,14.8,4.1c0.3,0.1,0.6,0.3,0.8,0.5c-1.6,1-3.4,1.2-5.3,1.1
			c-5.8-0.2-11.6,0.2-17.4,0.6c-3,0.2-6,0.8-9,1.4c-1.1,0.2-2.8,0.3-2.9,1.7c0,1.8,1.9,1.5,3,1.8c1.9,0.5,3.9,0.8,5.8,1.4
			c0.9,0.2,2.1,0.3,2.2,1.4c0.1,1.2-1.1,1.4-2,1.7c-3.4,1.4-6.9,2.3-10.6,2.5c-1,0.1-2.2-0.2-3,0.9c0.4,0.7,1,0.6,1.5,0.7
			c4.8,1.1,9.7,0.3,14.5,0.8c6,0.6,12.1,1.4,18.2,0.4c11.4-1.9,22-6.3,32.9-9.8c0.6-0.2,1.6-0.3,1.5-1.6c-3.4-1.1-7.1-0.7-11.2-1.8
			c2.3-1.4,4.5-1.2,6.3-2.1c5.4,0.5,10.7,1.9,16.1,2.6c7.6,1,15.1,2.4,22.5,4.7c12.1,3.7,24.7,4.8,37.2,5.8c5.8,0.5,11.6,1.2,17.1,3
			c-3.1,2-6.7,2.6-10.2,2.2c-8.1-1-15.9-3.5-24-4.9c-6-1.1-12.1-1.3-18.1-0.3c-2.3,0.4-3.9,1.4-4.1,4c-0.2,2.7,1.8,3.4,3.7,3.9
			c3.1,0.8,6.3,1.3,9.5,1.8c10,1.5,20,2.8,30,1.2c2.9-0.5,5.7-0.3,8.5,0.5c6.4,1.9,13,3.2,19.6,4.2
			C762.5,501.4,768,501.9,773.2,499.2z M600.6,499.8c-0.7,0.6-1.5,0.9-2.3,1.1c-2,0.4-4.1,0.7-6.1,1.3c-1.1,0.3-2.6,1.1-0.9,2.2
			c2.5,1.6,4.8,3.5,7.7,4.2c5.4,1.3,10.9,1.9,16.5,1.7c1.9-0.1,3.5-0.2,4.6-2.1c0.7-1.1,2-1.7,3.2-2.1c2.7-0.7,5.3-1.5,8-2.1
			c6.8-1.5,13.7-2.1,20.3-4.6c1.5-0.5,3.2-0.9,3.9-2.4c1.3-2.7,3.6-3.6,6.1-4.3c1.4-0.4,2.8-0.8,4.2-1.3c0.7-0.3,1.6-0.5,1.6-1.5
			c0-1-1-1.1-1.7-1.3c-4-1.2-8.2-1.7-12.3-1.6c-13.4,0.3-26.5,3.2-39.6,5.8c-1.4,0.3-2.6,0.9-3.5,2.1c-2.1,3-5.3,4.3-8.8,5.1
			c0.4-0.7,0.8-1.4,1.5-1.7c3.8-1.5,2-4.5,1.7-6.9c-0.2-2-2.3-1.8-3.8-2.1c-10.9-2.1-22-1.4-33-0.9c-6.7,0.3-13.5,1.3-20.1,2.3
			c-4.6,0.7-9.2-0.2-13.7,0.9c-1.3,0.3-3.4,0.2-3.4,1.7c0.1,1.5,2.2,1.2,3.5,1.4c6.7,1.1,13.5,0,20.3,1c4.4,0.6,8.7,1.5,12.9,3
			c1.3,0.5,2.4,1.2,0.4,2.3c-1,0.6-0.9,1.5,0.1,1.6c4.7,0.6,9.5,3.3,14.2-0.3c1-0.8,2.4-0.8,3.8-0.9c1.5-0.1,2.9-0.4,4.4-0.4
			C593.8,501.1,597.1,499.6,600.6,499.8z M585.8,586.8c3.5,0.3,7.4-0.2,10.9-2.2c2.4-1.4,5-3,4.9-6.2c-0.2-3.1-3-4-5.3-5.1
			c-3.1-1.4-6.3-2.5-9.4-3.9c-1.2-0.5-3-0.8-3.1-2.4c-0.1-1.9,2-1.8,3.2-2.5c0.1-0.1,0.3-0.1,0.5-0.2c0.9-0.5,2-0.9,2-2.2
			c0-1.3-1.1-2-2.1-2.4c-1.7-0.8-3.5-1.5-5.4-1.9c-9.2-1.8-18.5-1.1-27.8-1.1c-1.1,0-2.2,0.4-3.3,0.8c-7.6,3.4-15.8,4-24,4.2
			c-9.5,0.2-18.9,0.3-28.3,1.1c-10.3,0.9-20.2,3.3-29,9.1c-2.2,1.4-4.5,2.7-6.9,3.7c-6.2,2.5-12.6,4.4-18.9,6.6
			c-2.6,0.9-5.2,1.9-7.7,3.1c-1.5,0.7-2.6,1.8-1.7,3.8c1.6,3.4,1.4,3.8-2.5,4.5c-1.2,0.2-2.4,0.4-3.6,0.5
			c-11.5,0.4-22.9-0.5-34.1-3.4c-8.3-2.1-16.7-2.2-24.9,0.4c-5.7,1.8-6.8,3.2-6.8,9.2c0,2.9-1.2,4.8-3.8,5.9c-4,1.8-8,3.3-12.3,4.2
			c-11.1,2.2-22.5,2-33.6,3.6c-4.6,0.7-9.4,1-13.5,3.5c-2.2,1.3-3.6,3.3-3.5,6c0.1,2,1.1,3.5,3.1,4.1c1.7,0.5,3.6,1,5.4,0.8
			c9.4-0.7,18.8-1.6,28.2-2.6c8.1-0.8,16.2-0.7,24.2-0.2c11.3,0.6,22.6,0.6,33.7-1.9c3.9-0.9,8.1-1.6,10.7-5
			c3.1-4.2,7.4-6.2,12.2-7.4c9.3-2.4,18.7-3.9,28.1-5.7c5.5-1.1,11-2.2,15.6-5.4c3.1-2.2,6.3-3,9.9-3.5c8.2-1.2,16.6-1.9,24-6.3
			c4.2-2.6,8.8-4.1,13.6-4.9c7.2-1.3,14.5-1.5,21.8-1.7c8.9-0.3,17.7,0,26.6-0.1c5.3,0,10.6,0.6,15.8,1.3
			C574.1,585.8,579.6,587.1,585.8,586.8z M564.9,527.5c-0.9-0.2-1.8-0.5-2.7-0.7c-8.3-1.5-16.7-2.2-25.1-2.7
			c-12.9-0.7-25.8-1.1-38.7-0.6c-1.6,0.1-3.1,0.1-4.7,0.2c-2.5,0.3-2.9,1.2-1.6,3.2c1.5,2.5,3.7,4.4,6.4,5.5
			c2.3,0.9,4.6,1.7,6.8,2.6c1.5,0.6,3.6,0.9,3.7,2.8c0,1.9-2,2.6-3.4,3.6c-0.3,0.2-0.6,0.3-1,0.4c-9.8,3.9-20.1,5.6-30.5,6
			c-11.1,0.4-22.2,0.2-33.3,1.2c-4,0.4-7.9,0.7-11.9,1.2c-1.3,0.1-2.9,0.6-2.1,2.4c1,2.3-0.1,3.5-1.7,4.5c-1.4,1-2.9,1.9-4.5,2.6
			c-3.6,1.6-7.2,3.1-10.8,4.7c-0.8,0.4-2,0.6-1.9,1.9c0.1,1.1,1.2,1.4,2.1,1.7c1.9,0.6,3.8,1.1,5.7,1.8c1.7,0.6,4,1,4.2,3.3
			c0.2,2.3-2,2.8-3.4,3.8c-0.1,0.1-0.3,0.2-0.4,0.3c-0.7,0.5-1.5,1-1.4,2c0.1,1,1,1.4,1.9,1.6c2.8,0.8,5.6,1.4,8.5,1.1
			c11.2-1.5,21.8-4.5,31.1-11.1c7.1-5.2,15.1-7.6,23.6-9.1c11.3-2.1,22.8-2.2,34.2-2.1c3.8,0,7.6-0.5,11.4-1.3
			c0.7-0.2,1.7-0.3,1.8-1.2c0.1-1-0.8-1.2-1.5-1.6c-1.9-0.9-4-1.3-6-1.7c-1.2-0.3-2.9-0.2-3.1-1.8c-0.2-1.4,1.4-1.8,2.5-2.3
			c3-1.5,5.8-3.1,8.5-5.1c2.5-1.8,4.5-3.8,4.4-7.2c-0.1-1.6,0.8-3,2-4.1c1.7-1.7,3.9-2.3,6-2.9c6.8-1.8,13.7-2.2,20.7-2
			C562,528.4,563.5,528.7,564.9,527.5z M235,626c10.3-0.8,20.2-1.1,30-2.4c5.2-0.6,10.2-1.7,14.2-5.2c4.7-4,10.2-6.1,16.2-7.2
			c11.4-2.1,23.1-2.7,34.6-4.2c5.4-0.7,10.9-1.4,15.4-4.9c2.5-2,2.3-5.1-0.5-6.6c-0.8-0.5-1.8-0.6-2.7-0.9
			c-4.6-1.2-9.2-0.6-13.7,0.2c-24.8,4.4-49.7,7.9-74.1,14.5c-13.8,3.7-27.9,5.4-42.2,5.6c-1.8,0-4.4-0.5-4.9,1.8
			c-0.6,2.3,2,3,3.6,3.8C218.6,624.5,227,625.3,235,626z M477.6,505c-7,0.3-13.8,1.2-20.4,3.8c-0.9,0.3-1.7,0.8-2.5,1.3
			c-0.7,0.5-1.5,1.1-1.3,2.1c0.1,1,1,1.4,1.8,1.6c8.9,2.4,17.6,5.3,27,5.4c5.5,0,10.9-0.8,16.3-1.3c3.6-0.3,7.2-1.5,10.8-0.2
			c11.1,3.7,22.7,4.8,34.3,5.6c8.7,0.6,17.3,1,25.9,2.6c9.5,1.7,19,2.4,28.3-0.7c5.8-1.9,11.2-5.2,17.4-6c1.5-0.2,3.8-0.4,3.8-2.5
			c0-2-2.2-2.3-3.7-2.7c-8.9-2.7-18-3.9-27.2-1.2c-6.8,2-13.7,1.6-20.6,0.9c-6.7-0.7-13.3-2.5-20.1-2.9c-10.9-0.6-21.5,1.5-32,3.8
			c-5.9,1.3-10.9,0.5-16-2.8C492.9,507.4,485.7,504.6,477.6,505z M344.2,566.9c1.6,0,3.2,0.2,4.7,0c11.6-1.7,23.3-1.9,35-2.4
			c6.5-0.2,12.8-1,19.1-2.3c3.5-0.7,7-1.6,9.9-3.9c2.2-1.7,2-3.3-0.4-4.6c-1.8-0.9-3.7-1.5-5.7-1.9c-13.4-2.4-26.8-4.9-40.4-5.9
			c-10.1-0.7-20.2-1.4-30.4-1.9c-9.1-0.4-18.2,0.4-27.2,1.7c-7.3,1-14.6,2.2-21.3,5.6c-2.4,1.2-2.7,2.8-1,5c2,2.7,4.9,3.8,8,4.3
			c7,1,13.9,2,20.9,3C324.8,565.1,334.4,566.8,344.2,566.9z M334.5,570.2c-6.1-1.9-12.3-3.4-18.5-4.3c-5.3-0.7-10.5-0.9-15.8-1.2
			c-6-0.3-11.9-0.5-17.9,0c-5,0.4-10-0.2-15-1c-1.6-0.3-2.8-0.8-2.7-2.8c0.1-1.8-1.1-2.4-2.7-2.3c-1.9,0.1-3.6,0.8-4.7,2.5
			c-1.7,2.7-4.3,4.1-7.2,5.3c-4.5,1.9-9.2,3.2-13.5,5.6c-1.1,0.6-2.4,1.4-2.2,2.9c0.2,1.6,1.5,2.2,3,2.5c3.4,0.7,6.9,0.7,10.4,0.1
			c8.3-1.4,16.5-3.1,24.8-4.6c17.6-3.1,35.4-4.8,53.3-3C328.6,570.4,331.6,569.9,334.5,570.2z M366.2,522.7
			c5.7-0.3,11.7,0.3,17.7,1.4c3.7,0.7,7.4,0.9,11.2,0.6c4.2-0.3,8.3-1,12.1-2.8c0.9-0.4,1.8-0.9,1.8-2c0-1.2-0.9-1.9-1.8-2.3
			c-1.5-0.8-3.2-1.2-4.9-1.7c-7.7-1.9-15.5-1.4-23.3-2c-5.7-0.4-11.5,0-17.2,0.5c-7.2,0.6-14.3,1.8-21.3,3.7c-1,0.3-2.4,0.5-2.2,1.8
			c0.1,1.3,1.6,1.1,2.5,1.3C349.1,522.3,357.4,522.7,366.2,522.7z M469.1,546.2c4.9,0,9.7,0.1,14.6-0.5c4.9-0.7,9.8-1.4,14.3-3.7
			c1.1-0.6,2.3-1,2.4-2.5c0.1-1.6-1.3-2.2-2.5-2.7c-1.8-0.8-3.7-1.4-5.6-2.2c-2.3-0.9-4.8-1.6-6.4-3.7c-4.1-5.2-14.9-6.7-19.9-2.3
			c-2.5,2.1-5.2,3-8.2,3.5c-6.3,1-12.7,1.7-19,3.1c-6.6,1.5-13.1,3.2-19.3,6.2c-1.2,0.6-2.7,1.3-2.5,3c0.1,1.7,1.7,2.1,3,2.4
			c5.1,1.4,10.3,1.7,15.5,1.3C446.6,547.3,457.8,545.9,469.1,546.2z M336.9,570.4c0.2,0.8,0.6,0.9,1,1.1c3.2,1.2,5.9,2.9,6.7,6.6
			c0.3,1.6,1.7,2.5,3.1,3c4.5,1.5,9.2,2.4,14,1.9c7.1-0.8,13.8-3.4,20.6-5.3c1.4-0.4,3-0.8,3.2-2.6c0.2-1.7-1.3-2.6-2.5-3.4
			c-0.8-0.6-1.8-1-2.8-1.2c-2.9-0.8-5.9-1.3-9-1.3c-11.1,0.1-22.1,1.5-33.2,1.1C337.7,570.2,337.4,570.3,336.9,570.4z M564.9,530.5
			c-1.8,0-3.7-0.1-5.5,0c-5.3,0.3-10.5,1-14.6,4.6c-3.2,2.8-5.9,6.1-8.8,9.2c-1.4,1.6-1,3.1,0.7,4.1c1,0.6,2.1,0.9,3.1,1.2
			c4.5,1.2,9.1,1.4,13.7,1.6c9.3,0.3,18.5-0.7,27.8-1.6c4.2-0.4,8.5-1.1,12.4-2.8c1.6-0.7,2.9-1.7,3.2-3.5c0.3-1.9-1.2-2.7-2.4-3.6
			c-2.2-1.7-5.1-2.4-6.9-4.6c-1.2-1.4-2.6-2.2-4.3-2.7C577.2,530.7,571.1,530.5,564.9,530.5z M213.6,545.4c1,0.9,1.8,0.6,2.5,0.5
			c16-3,32.2-3.7,48.4-4.5c5.3-0.3,10.5-1,15.7-2.4c0.9-0.2,2.1-0.4,2-1.7c-0.1-1-1.1-1.3-1.9-1.5c-9.2-2.3-18.4-3.2-27.9-2.4
			c-9.5,0.9-18.3,3.9-27.1,7.3C221.5,542.2,217.4,543.3,213.6,545.4z M519.7,505.4c-4.3,0.3-8.3-0.3-12.3,0.4
			c-0.9,0.2-2.2,0-2.3,1.3c-0.1,1.2,1.2,1.2,2.1,1.5c4.7,1.8,9.7,1.3,14.4,0.8c10-1,20-2.1,30-1.4c3.4,0.2,6.8,0.4,10.1,0.9
			c7.1,1.1,14.1,1.6,21.2,0.2c0.7-0.1,1.9,0,1.8-1c0-0.9-1.2-0.8-1.9-1c-0.2-0.1-0.5-0.1-0.8-0.1c-8.9-1-17.9-1.9-26.8-3.2
			c-5.2-0.7-10.3-1.4-15.5-0.2C533.1,505.1,526.3,505.9,519.7,505.4z M368.7,530.5c-3.7,0-7.5-0.3-11.1,0.8c-1.1,0.4-2.6,0.5-2.8,2
			c-0.1,1.5,1.3,1.9,2.4,2.3c5.6,2.4,11.5,3.8,17.6,4.6c3,0.4,6,0.8,9-0.1c1.5-0.4,2.9-0.9,3.3-2.6c0.4-1.7-0.8-2.8-2-3.7
			c-1.2-0.9-2.5-1.6-3.9-2.1C377.2,530.4,373,530.4,368.7,530.5z M548.6,497.8c0-0.1,0-0.2,0-0.2c-1.8,0.1-3.6,0.1-5.4,0.3
			c-0.7,0.1-1.8,0-1.9,1c-0.1,1,1,1.1,1.7,1.2c3.7,0.6,7.4,0.3,11.1-0.6c0.5-0.1,1.1-0.3,1-1c-0.1-0.3-0.6-0.7-1-0.7
			C552.3,497.8,550.4,497.8,548.6,497.8z"/>
		<path class="st4" d="M693.4,514.9c7.8-1.9,15.4-4.3,23.6-3.7c6.5,0.5,13,1,19.4,2.2c1.9,0.4,3.4,1,4.2,3.1
			c0.5,1.4,2.1,1.8,3.2,2.6c0.5,0.4,1.1,0.7,1,1.4c-0.1,0.7-0.8,0.9-1.3,1.1c-1.5,0.5-3.1,0.6-4.6,0.7c-9.1,0.4-18-1-27-1.9
			c-6.9-0.7-13.7,0.3-20.2,2.8c-4.9,1.8-9.5,4.2-14.6,5.6c-5.6,1.5-11,1.5-16.6-0.3c-7-2.3-14.2-1.9-21.4-0.9
			c-1.5,0.2-2.4,0.9-2,2.6c0,0.2,0.2,0.4,0.1,0.5c-3.1,3.7-0.3,10.6-6.7,12.6c-0.5,0.1-0.9,0.5-1.3,0.8c-3.3,2.3-3.4,3.6-0.3,6.1
			c0.4,0.3,0.8,0.7,1.2,1c1.1,1,3.1,1.6,2.7,3.5c-0.4,1.8-2.5,1.7-3.8,2.2c-1.9,0.8-3.9,1.4-5.8,2.2c-2,0.9-2.1,2.4-0.8,4
			c2.2,2.7,5.4,4.2,8.5,4.7c15.3,2.4,30.6,2.9,45.9,0.3c3.4-0.6,6.7-1.6,8.6-5.2c0.9-1.7,2.9-2.1,4.7-2.6c6-1.9,12.2-3.1,18.4-3
			c13.4,0.2,26.7-0.9,40.1-1.2c8.4-0.2,16.8-1.2,25.1-2.2c8.1-1,16.3-0.3,24.4,0.9c1.2,0.2,1.9,0.8,2.1,2c-3.2,0.4-6.1,1.7-9.2,2.6
			c-3.4,1-6.6,2.5-10.1,3.1c-1.1-0.7-2.4-0.6-3.5-0.5c-7.4,0.9-14.9,0.2-22.3,0.5c-2.8,0.1-5.7,0.6-8.5,1c-0.9,0.1-2,0.3-2.2,1.4
			c-0.2,1.1,0.8,1.4,1.5,1.8c1,0.6,1.9,1.2,2.2,2.4c-0.7,0.2-1.5,0.4-2.2,0.6c-5.8,1.3-11.6,2.3-17.1,4.7c-0.3,0-0.7,0-1,0
			c-0.4,0-0.7,0-1.1-0.1c-2.8-1.5-5.9-1.4-8.9-1.5c-9.8-0.6-19.5,0.6-29.3,1.7c-5.1,0.6-10.2,0.1-15.3,0.8c-4,0.6-7.9,1.1-11.6,2.8
			c-2.5,1.2-2.7,2.5-0.4,3.9c2.6,1.5,2.7,2.9,0.7,4.8c-5,1.2-9.7,3.1-14.5,5c-8.6,3.3-17.2,6.4-26.2,8.6c-0.4-1.2-1.5-1.6-2.6-2
			c-5.7-2.3-11.7-3.8-17.8-4.7c-4.4-0.1-8.6-1.8-13-2.1c-0.3-0.2-0.7-0.3-1-0.5c-0.9,0-1.7,0-2.6,0c-2.9-1.8-6.2-1.7-9.3-1.5
			c-5.2,0.4-10.4,1.1-15.3,2.7c-5.7,1.9-11.6,2.5-17.4,2.7c-8.6,0.3-17.2,0.9-25.7-0.5c-2.3-0.4-5.3-0.9-5.3-3.7
			c0-2.5,2.9-3.1,5-3.8c3.8-1.2,7.7-1.3,11.6-1.7c18.5-1.6,36.7-0.1,54.9,3.6c8.8,1.8,17.1,0.3,24.4-5.2c1.7-1.3,3-3.1,3.9-5.1
			c0.9-1.9,0.3-3.5-1.4-4.7c-2.3-1.5-4.9-2.2-7.4-3.2c-0.9-0.4-1.8-0.6-2.7-1c-3.1-1.4-3.2-2.8-0.5-4.7c0.6-0.5,1.3-0.9,1.9-1.4
			c1.7-1.6,1.5-3.4-0.6-4.3c-2.7-1.2-5.5-2.1-8.3-3.1c-0.9-0.3-1.8-0.7-2.6-1.1c-1.2-0.7-1.1-1.4,0.1-2.1c0.9-0.5,1.8-0.5,2.8-0.6
			c5-0.8,10-1.4,14.5-3.7c3.1-1.6,3.4-3.3,0.9-5.5c-2.4-2.1-5.4-3.2-8.2-4.4c-1.9-0.8-3.6-1.7-3.7-4.2c0-0.7-0.6-1.2-1-1.8
			c-1.7-1.9-1.5-2.5,1.1-3.2c5-1.3,10.1-2.7,15.2-3.7c9-1.8,17.2-5.4,25.1-9.8c4.9-2.7,10-1.9,15-1.5c7.9,0.6,15.8,1.8,23.8,2.8
			c1.1,0.1,2.1,0,2.8-0.9C682.7,516.9,688,515.5,693.4,514.9z"/>
		<path class="st5" d="M299.3,677.6c1.5-0.1,2.7-0.9,3.6-2.1c1.1-0.5,2.1-1.2,3.3-1.6c9.8-3.1,19.1-6.4,28.6-10
			c11.8-4.5,23.6-8.6,35.9-11.4c3.7-0.6,7.2-1.9,11-2c-0.5,0.7-1.2,0.9-2,1.1c-21.1,4-41,10.9-60.7,19.2c-3.8,1.6-7.7,2.7-11.4,4.4
			c-2.8,1.2-5.3,2.9-7.2,5.4c-1.9,2.6-4,5-5.9,7.6c-0.9,1.2-1.8,1.5-3.1,0.6c-7.1-5-15.4-7.1-22.2-12.6c-10.1-8.2-20.1-16.4-25.5-29
			c-2.7-6.4-7.9-10.5-15.6-10.9c-4.7-0.3-9.4-0.8-14.2-0.6c-6.5,0.2-12.2-2.7-15.6-8.4c-5.1-8.5-12.2-14.5-20.9-19
			c-7.4-3.9-14.3-8.5-20.2-14.5c-3.4-3.5-7.7-5.5-13-3.2c-3.5,1.5-6,0.5-8-2.8c-1.9-3.1-3.8-6-7.1-7.8c-1-0.5-2-1.2-3.1-1.3
			c-5.7-0.4-9.5-3.9-12.7-8.2c-2-2.7-3.9-5.3-5.9-7.9c-4-5.3-10.9-7.3-17.1-5c-5.1,1.9-6.8,0.9-8.4-4.3c-0.9-2.9-1.9-5.8-3.2-8.5
			c-2.9-6.3-8.8-8.3-14.8-9.8c-1.4-0.3-2.7,0.4-4,1c-1.3,0.6-2.6,1.3-4,1.9c-5,2-7.1,1.1-9.1-3.8c-1.6-3.9-3.1-7.9-5.6-11.4
			c-2.9-4-7-6.1-11.4-7.8c-1.9-0.8-3.7,0.5-5.5,1.2c-4.4,1.8-5.9,1.4-8.2-2.8c-0.7-1.2-1.3-2.5-2.1-3.6c-2.8-3.9-4.4-4-7.5-0.7
			c-0.1-3.1,2-5.1,3.6-7.3c0.5,0,1,0,1.4,0c0.5,0,1,0,1.6,0c2.5,2.3,4.6,5.1,6.7,7.8c1.1,1.5,3,2.6,4.8,0.6c0.5,0,1,0,1.6,0
			c1.5,0.6,2.8,0,4.2-0.5c0.3,0,0.7,0,1,0c0.3,0.8,0.8,1,1.6,0.5c0.3,0.2,0.7,0.3,1,0.5c0.4,1,1.4,1.2,2.2,1.6
			c2.6,1.4,5.2,2.8,7.7,4.3c2.2,1.2,3.4,3.1,3.6,5.6c0.2,2.3,1,4.4,2,6.4c1.4,2.8,4.1,3.5,6.3,1.8c0.5,0,1,0,1.6,0
			c2.7,0.2,5.3-0.4,7.8-1c1.4,0.3,2.7,1.1,4.2,1c1.5,2,4,2.2,6.1,3.1c4.5,2,8.2,4.5,8.5,10c0.1,1.6,0.9,3,1.8,4.3
			c1.7,2.6,5.7,3.2,8.2,1.4c0.3,0,0.7,0,1,0c2.6,1.9,5.8,2.1,8.7,3.1c5.3,1.9,9.9,4.2,12.3,9.9c2.2,5.3,6.3,9,12.3,10.2
			c3.9,0.8,7.3,2.6,9.6,5.9c2.8,4.1,6.7,5.1,11.3,4.8c4.8-0.2,9.4,1.1,12.6,4.6c6.8,7.2,15.4,11.8,24.1,16.2
			c5.4,2.7,10,6.2,13.1,11.5c3.6,6.2,8.9,9.8,15.7,11.6c2.7,0.7,5.5,0.7,8.2,1.2c6.4,1.1,12.8,2.8,19.2,3.2
			c8.8,0.6,17.7,1.1,26.4,2.3c6.2,0.8,12.4,1.7,18.2,4.3c1.8,0.8,3.5,1.9,3.4,4.1c-0.1,2.2-1.7,3.6-3.5,4.5c-4.2,2-8.7,3-13.4,2.3
			c-3.7-0.5-7.4-0.9-11.1-1.2c-3.2-0.3-4.6,1.8-3.1,4.6c0.8,1.5,1.8,2.8,2.9,4c4.7,5.2,10.3,8.3,15.9,12.4c5.4,4,11.6,6.7,17.6,9.4
			C296.5,678.4,298.1,679.4,299.3,677.6z"/>
		<path class="st4" d="M806,543.5c0-1,0.5-1.8,1.5-2.3c2.8-1.4,5.3-3.3,7.7-5.3c3.8-3.2,8.2-4.7,13.2-4.5c2.3,0.1,4.5,0,6.8,0
			c0.5,0,1,0,1.6,0c4.8,0.8,9.3,0.4,13.4-2.3c1.3-0.9,2.7-1.8,3-3.4c0.5-2.8,2.4-3.8,4.7-4.7c2.4-0.9,4.8-1.9,7.2-3
			c1-0.5,2.1-1.1,1.5-2.6c11.6,2.2,23.5,2.4,35.2,4c3.9,0.6,8,0.6,11.7,2.1c0.6,1.3,1.8,1.3,3,1.5c1.2,0.3,2.8,0.1,3.2,1.9
			c-0.5,0-1,0.1-1.5,0.1c-0.4-0.2-0.7-0.2-1,0.1c-0.3,0-0.6,0-0.9,0c-6.6,1.1-12.3,4.4-18.3,7c-2.6,1.1-5.5,1.3-7.8,3.2
			c-0.3,0-0.7,0.1-1,0.1c-0.7-0.4-1.2-0.3-1.6,0.4c-0.5,0-1,0.1-1.6,0.1c-0.8-0.5-1.5-0.5-2.1,0.4c-0.7,0-1.4,0.1-2.1,0.1
			c-1-0.5-1.9-0.6-2.6,0.4c-0.9,0-1.7,0.1-2.6,0.1c-1-0.6-1.9-0.6-2.6,0.4c-0.4,0-0.7,0-1.1,0.1c-1-0.6-2-0.3-3-0.1
			c-6.3,1.2-11.9,4.2-17.6,6.8c-5.3,2.4-10.5,3.9-16.7,2.6C825.8,544.9,815.9,543.8,806,543.5z"/>
		<path class="st6" d="M806,543.5c9.9,0.2,19.7,1.4,29.3,3.5c6.2,1.4,11.4-0.1,16.7-2.6c5.7-2.6,11.3-5.6,17.6-6.8
			c1-0.2,2-0.5,3,0.1c-10.1,2.3-18.8,8-28.5,11.2c-10.7,3.5-21.9,4.6-33,6c-0.2-1.7-1.6-1.8-2.9-2c-6.6-0.9-13.2-1.9-19.6-4
			c-1.2-0.4-3-0.5-3.1-2c0-1.6,1.9-1.8,3.1-2.2C794.4,543,800.3,543.4,806,543.5z"/>
		<path class="st3" d="M661.6,586.8c2-1.9,2-3.3-0.7-4.8c-2.3-1.3-2.1-2.7,0.4-3.9c3.6-1.7,7.6-2.2,11.6-2.8
			c5.1-0.8,10.2-0.3,15.3-0.8c9.7-1.1,19.5-2.2,29.3-1.7c3,0.2,6.1,0,8.9,1.5c0,0.2,0,0.4,0,0.6c-0.3,0-0.7,0-1,0
			c-0.5,0.2-1.1,0.3-1.6,0.5c-0.5,0-1,0-1.5,0c-0.5,0.1-0.9,0.4-1.2,0.9c-0.5,0-1,0-1.6,0.1c-0.7-0.4-1.2-0.2-1.6,0.5
			c-0.5,0-1,0-1.6,0.1c-0.7-0.5-1.4-0.4-2.1,0.1c-0.5,0-1,0-1.5,0c-0.9-0.1-1.7,0-2.2,0.9c-0.7,0-1.4,0.1-2.1,0.1
			c-0.8-0.5-1.6-0.5-2.1,0.4c-0.7,0-1.4,0.1-2.1,0.1c-0.7-0.4-1.2-0.3-1.6,0.4c-0.7,0-1.4,0.1-2.1,0.1c-0.7-0.4-1.2-0.3-1.6,0.4
			c-0.7,0-1.4,0.1-2.1,0.1c-0.7-0.4-1.2-0.3-1.6,0.4c-0.7,0-1.4,0.1-2.1,0.1c-0.7-0.4-1.2-0.3-1.6,0.4c-0.3,0-0.7,0-1,0.1
			c-0.8-0.5-1.6-0.5-2.1,0.5c-0.3,0-0.7,0-1,0.1c-0.7-0.4-1.2-0.3-1.6,0.4c-0.3,0-0.7,0-1,0.1c-1.5-0.7-2.8-0.1-4.2,0.6
			c-0.3,0-0.6,0-1,0c-1.3,0.1-2.6,0.3-3.7,1c-0.3,0-0.6,0-1,0C670.6,583.9,666.2,585.7,661.6,586.8z"/>
		<path class="st6" d="M587.6,591.5c4.4,0.3,8.6,2,13,2.1c0.7,1.4,2.1,1.3,3.3,1.7c3.7,1.4,7.8,2.1,9.2,6.6c-0.2,0.3-0.4,0.6-0.5,1
			c-1,0-2.1,0.1-3.1,0.1c-1-0.6-1.9-0.7-2.6,0.4c-2.8,0-5.6,0.1-8.3,0.1c0.1-1.1,0.8-1.6,1.7-2.1c2.9-1.7,2.9-2.8-0.2-4.4
			c-4.6-2.4-9.7-3.3-14.8-3.4c-0.6,0-1.2,0.1-1.8,0.3c-1,0.3-2.1,0.5-2.4,1.7c-0.3,1.3,0.5,2.2,1.4,2.9c1.1,0.9,2.3,1.6,3.4,2.3
			c1.3,0.9,1.4,1.8-0.1,2.5c-1,0.5-2.1,0.9-3.2,1.1c-3.9,0.9-7.8,1.8-11.7,2.7c0.6-1.5,2.1-1.7,3.2-2.5c2.2-1.7,2.3-2.9,0.5-4.9
			c-1.3-1.5-3.5-2.9-2.6-5.2c0.9-2.4,3.5-2.2,5.5-2.8c2.1-0.5,4.4,0.3,6.4-0.7c0.9,0,1.7,0,2.6,0C586.7,591.5,587,591.8,587.6,591.5
			z"/>
		<path class="st5" d="M570.9,607.2c3.9-0.9,7.8-1.8,11.7-2.7c1.1-0.3,2.2-0.6,3.2-1.1c1.4-0.7,1.4-1.6,0.1-2.5
			c-1.1-0.8-2.3-1.5-3.4-2.3c-0.9-0.7-1.7-1.6-1.4-2.9c0.3-1.2,1.4-1.4,2.4-1.7c0.6-0.2,1.2-0.3,1.8-0.3c5.2,0.1,10.2,1,14.8,3.4
			c3,1.5,3,2.6,0.2,4.4c-0.9,0.5-1.6,1.1-1.7,2.1c-2.7,1.1-5.5,0.5-8.2,0.8c-12.9,1.3-25.1,5.2-37,10.1
			c-13.4,5.5-27.1,9.7-41.3,12.2c-0.9,0.1-1.7,0.2-2.6,0.3c1.6-1.8,4-1.4,6-1.9c5.5-1.5,11.2-1.9,16.4-4.3
			c8.9-2.3,17.2-6.1,25.7-9.3C561.9,609.8,566.3,608.3,570.9,607.2z"/>
		<path class="st3" d="M747.7,569.1c-0.3-1.2-1.2-1.9-2.2-2.4c-0.7-0.4-1.7-0.8-1.5-1.8c0.2-1.1,1.3-1.3,2.2-1.4
			c2.8-0.4,5.6-0.9,8.5-1c7.4-0.3,14.9,0.3,22.3-0.5c1.2-0.1,2.4-0.2,3.5,0.5c-4.2,1.8-8.6,2.6-13,3.7c-1.2,0.3-2.5,0.3-3.2,1.5
			c-0.4,0-0.7,0-1.1,0c-0.7-0.4-1.2-0.3-1.6,0.4c-1.6,0.2-3.1,0.4-4.7,0.6c-0.7-0.4-1.2-0.2-1.6,0.5c-0.9,0-1.7,0.1-2.6,0.1
			c-0.5-0.4-1.1-0.3-1.6,0.1c-0.5,0-1,0-1.5,0C749.1,569.2,748.4,569.1,747.7,569.1z"/>
		<path class="st5" d="M661.6,586.8c4.6-1.1,8.9-2.9,13.6-3.6c-0.4,0.6-1,0.9-1.7,1.1c-15.1,4.1-29.5,10.4-44.4,15.1
			c-3.5,1.1-7,1.9-10.6,2.6c-0.8,0.1-1.5,0.4-2.3-0.1c1.4-1.1,3.2-0.9,4.7-1.6c9-2.2,17.6-5.3,26.2-8.6
			C651.9,589.9,656.6,588,661.6,586.8z"/>
		<path class="st5" d="M440.5,642.1c6.4-0.6,12.6-2.5,18.8-4.1c8.7-2.2,17.3-5.1,26.1-6.8c-0.5,0.8-1.4,1-2.2,1.2
			c-12.9,3.3-25.5,7.5-38.5,10.1c-4.3,0.9-8.7,1.7-13.1,2.1c0.8-1.3,2.2-1.2,3.4-1.4C436.9,642.9,438.8,642.9,440.5,642.1z"/>
		<path class="st3" d="M620.9,600.4c-1.5,0.7-3.3,0.5-4.7,1.6c-0.7,0-1.3,0-2,0c-0.4,0-0.7,0-1.1-0.1c-1.4-4.5-5.6-5.2-9.2-6.6
			c-1.2-0.4-2.6-0.4-3.3-1.7c6.1,0.9,12,2.4,17.8,4.7C619.4,598.8,620.5,599.2,620.9,600.4z"/>
		<path class="st6" d="M440.5,642.1c-1.7,0.8-3.6,0.9-5.4,1.2c-1.2,0.2-2.6,0.1-3.4,1.4c-0.4,0-0.7,0-1.1,0
			c-1.2-0.6-2.3-0.8-3.1,0.5c-0.4,0-0.7,0-1.1,0c-2.8-0.8-5.4-0.6-7.8,1c-0.5,0-1,0-1.6,0c-1.3-0.6-2.6-0.9-3.6,0.5
			c-0.3,0-0.7,0-1,0c-0.5-0.2-1-0.3-1.6-0.5c0.4-0.9,1.3-1,2.2-1.2c7.3-1.8,14.7-2.8,22.2-2.9C437,642.1,438.8,641.1,440.5,642.1z"
			/>
		<path class="st6" d="M531.8,620.7c-5.2,2.4-11,2.8-16.4,4.3c-2,0.6-4.4,0.1-6,1.9c-0.3,0-0.7,0-1,0c-0.7-0.4-1.2-0.3-1.6,0.5
			c-0.3,0-0.7,0-1,0c0-0.2,0-0.4,0-0.5c0.3-0.9,1.1-1.3,2-1.6c7.5-2.5,15.4-3.6,23.1-4.9C531.1,620.4,531.5,620.6,531.8,620.7z"/>
		<path class="st6" d="M764.3,567.5c0.7-1.2,2-1.2,3.2-1.5c4.4-1.1,8.8-1.9,13-3.7c3.5-0.7,6.7-2.1,10.1-3.1c3-0.9,6-2.2,9.2-2.6
			c0.7-0.2,1.5-0.3,2.2-0.5c-1.7,1.7-4.1,1.7-6.2,2.4c-9.7,3.2-19.3,6.7-29.4,8.6C765.7,567.3,765,567.4,764.3,567.5z"/>
		<path class="st6" d="M890,535.6c2.3-1.9,5.2-2.1,7.8-3.2c6-2.6,11.8-5.9,18.3-7c-0.2,0.2-0.3,0.5-0.5,0.6
			c-8.3,3.2-16,7.9-24.9,9.6C890.5,535.6,890.2,535.6,890,535.6z"/>
		<path class="st5" d="M747.7,569.1c0.7,0,1.4,0,2.2,0.1c-0.4,0.5-0.9,0.8-1.5,0.9c-6,1.4-12,2.9-17.9,4.3c-0.7,0.2-1.4,0.3-2-0.1
			c5.5-2.4,11.3-3.3,17.1-4.7C746.2,569.5,746.9,569.3,747.7,569.1z"/>
		<path class="st6" d="M919.6,525.2c-0.4-1.8-2-1.6-3.2-1.9c-1.2-0.2-2.4-0.2-3-1.5c4.2,0.5,8.5,1.1,12.5,2.5
			C923.9,525.2,921.7,524.6,919.6,525.2z"/>
		<path class="st5" d="M491.1,630.1c3.9-1.2,7.8-2.5,12-2.2C499.2,629.2,495.3,630.3,491.1,630.1z"/>
		<path class="st5" d="M418.6,646.2c2.4-1.6,5.1-1.8,7.8-1C423.9,646,421.3,646.3,418.6,646.2z"/>
		<path class="st5" d="M410.8,646.3c0.5,0.2,1,0.3,1.6,0.5c-2.6,0.8-5.2,0.9-7.8,1c0.9-1.4,2.4-0.9,3.7-1c0.4-0.2,0.7-0.3,1.1-0.5
			C409.8,646.3,410.3,646.3,410.8,646.3z"/>
		<path class="st5" d="M680.9,582.2c1.3-0.7,2.6-1.3,4.2-0.6C683.7,582.2,682.4,582.7,680.9,582.2z"/>
		<path class="st5" d="M413.4,646.8c1-1.4,2.3-1.1,3.6-0.5C415.9,647,414.7,646.8,413.4,646.8z"/>
		<path class="st5" d="M676.2,583.2c1.1-0.7,2.4-1,3.7-1C678.9,583.4,677.7,583.7,676.2,583.2z"/>
		<path class="st5" d="M427.5,645.2c0.9-1.3,2-1.1,3.1-0.5C429.7,645.3,428.6,645.2,427.5,645.2z"/>
		<path class="st6" d="M879,537.2c0.7-1,1.6-1,2.6-0.4C880.8,537.3,879.9,537.3,879,537.2z"/>
		<path class="st5" d="M606.9,603.4c0.7-1.1,1.6-1,2.6-0.4C608.7,603.5,607.8,603.5,606.9,603.4z"/>
		<path class="st5" d="M400.4,647.9c0.9-0.6,1.7-0.6,2.6-0.1C402.1,648.4,401.3,648.4,400.4,647.9z"/>
		<path class="st6" d="M873.8,537.7c0.7-1.1,1.6-1,2.6-0.4C875.6,537.8,874.7,537.8,873.8,537.7z"/>
		<path class="st5" d="M392.6,648.9c0.8-0.6,1.7-0.6,2.7-0.5C394.5,649.5,393.6,649.5,392.6,648.9z"/>
		<path class="st5" d="M388.9,649.8c0.6-1,1.7-0.9,2.7-0.9C390.9,650,389.9,649.9,388.9,649.8z"/>
		<path class="st5" d="M382.7,650.5c0.6-0.5,1.4-0.6,2.1-0.5C384.3,650.9,383.5,651,382.7,650.5z"/>
		<path class="st5" d="M688.7,581c0.5-0.9,1.2-1,2.1-0.5C690.2,581,689.5,581.1,688.7,581z"/>
		<path class="st5" d="M706.4,578.4c0.5-0.9,1.3-1,2.1-0.4C707.9,578.4,707.2,578.5,706.4,578.4z"/>
		<path class="st5" d="M710.6,577.9c0.5-0.8,1.3-0.9,2.2-0.9C712.3,577.8,711.5,578,710.6,577.9z"/>
		<path class="st5" d="M714.3,577c0.7-0.5,1.4-0.5,2.1-0.1C715.7,577.4,715,577.4,714.3,577z"/>
		<path class="st6" d="M883.7,536.6c0.5-0.9,1.3-0.9,2.1-0.4C885.2,536.7,884.5,536.8,883.7,536.6z"/>
		<path class="st5" d="M396.7,648.4c0.6-0.5,1.4-0.6,2.1-0.5C398.4,648.8,397.6,648.9,396.7,648.4z"/>
		<path class="st5" d="M385.8,650c0.7-0.5,1.4-0.5,2.1-0.1C387.2,650.4,386.5,650.4,385.8,650z"/>
		<path class="st5" d="M505.7,627c0,0.2,0,0.4,0,0.5c-0.5,0.1-1.1,0.3-1.6,0.4C504.5,627.3,505,627,505.7,627z"/>
		<path class="st5" d="M506.8,627.5c0.3-0.7,0.9-0.9,1.6-0.5C507.8,627.1,507.3,627.3,506.8,627.5z"/>
		<path class="st5" d="M613.1,602c0.4,0,0.7,0,1.1,0.1c-0.4,0.6-0.9,0.9-1.6,0.9C612.8,602.6,612.9,602.3,613.1,602z"/>
		<path class="st5" d="M486.4,631.2c0.5-0.2,1.1-0.3,1.6-0.5C487.7,631.4,487.1,631.6,486.4,631.2z"/>
		<path class="st6" d="M887.4,536.1c0.4-0.7,0.9-0.8,1.6-0.4C888.5,536.1,887.9,536.2,887.4,536.1z"/>
		<path class="st5" d="M686.1,581.5c0.4-0.7,0.9-0.9,1.6-0.4C687.1,581.2,686.6,581.4,686.1,581.5z"/>
		<path class="st5" d="M691.8,580.5c0.4-0.7,0.9-0.9,1.6-0.4C692.9,580.2,692.4,580.3,691.8,580.5z"/>
		<path class="st5" d="M695.5,579.9c0.4-0.7,0.9-0.9,1.6-0.4C696.5,579.7,696,579.8,695.5,579.9z"/>
		<path class="st5" d="M699.1,579.4c0.4-0.7,0.9-0.9,1.6-0.4C700.2,579.1,699.7,579.3,699.1,579.4z"/>
		<path class="st5" d="M702.8,578.9c0.4-0.7,0.9-0.9,1.6-0.4C703.8,578.6,703.3,578.8,702.8,578.9z"/>
		<path class="st5" d="M717.9,576.8c0.4-0.7,0.9-0.9,1.6-0.5C719,576.7,718.5,576.9,717.9,576.8z"/>
		<path class="st5" d="M723.6,575.4c0.5-0.2,1.1-0.3,1.6-0.5C724.9,575.6,724.4,575.8,723.6,575.4z"/>
		<path class="st5" d="M751.3,569.2c0.5-0.4,1-0.5,1.6-0.1C752.3,569.5,751.8,569.5,751.3,569.2z"/>
		<path class="st5" d="M755.4,569c0.4-0.7,0.9-0.9,1.6-0.5C756.5,568.9,756,569,755.4,569z"/>
		<path class="st6" d="M761.7,567.9c0.4-0.7,0.9-0.8,1.6-0.4C762.8,567.7,762.2,567.8,761.7,567.9z"/>
		<path class="st6" d="M917.1,525.4c0.3-0.3,0.7-0.3,1-0.1C917.8,525.6,917.4,525.6,917.1,525.4z"/>
		<path class="st5" d="M489,630.7c0.4-0.2,0.7-0.3,1.1-0.5C489.9,630.6,489.6,630.9,489,630.7z"/>
		<path class="st5" d="M721,576.3c0.2-0.5,0.6-0.8,1.2-0.9C721.9,575.9,721.6,576.2,721,576.3z"/>
		<path class="st5" d="M726.3,574.9c0-0.2,0-0.4,0-0.6c0.4,0,0.7,0,1.1,0.1C727.1,574.9,726.8,575.2,726.3,574.9z"/>
		<path class="st6" d="M808.6,555.4c0.2-0.5,0.5-0.7,1-0.4C809.3,555.1,809,555.3,808.6,555.4z"/>
		<path class="st6" d="M805.5,555.6c0.3-0.3,0.7-0.3,1-0.1C806.2,555.8,805.9,555.8,805.5,555.6z"/>
		<path class="st6" d="M802.9,556.1c0.4-0.2,0.8-0.3,1.2-0.5C803.8,556.1,803.5,556.4,802.9,556.1z"/>
		<path class="st4" d="M561,482.6c1.8,1.4,4.3,0.7,6.2,2c-0.4,1.1-1.5,1.1-2.3,1.3c-7.9,1.7-15.9,2.5-24,2.9
			c-8.7,0.5-17.2,1.9-25.6,4.5c-1.1,0.3-2.3,0.7-3.4,2c2.6,0.3,5,0.6,7.3,0.8c1.7,0.1,3.3,0.5,4.8,1c0.6,0.2,1.5,0.3,1.4,1.2
			c-0.1,0.7-0.9,0.7-1.5,0.8c-4.2,0.7-8.4,1.8-12.6,2c-9.9,0.5-19.7,1.2-29.6,1.3c-14.2,0.1-28,2.8-40.8,9.2c-2,1-3.9,2.3-5.8,3.5
			c-0.5,0.3-1.5,0.6-1.1,1.5c0.3,0.7,1.2,0.8,1.9,0.7c4.6-0.6,9.2,0,13.8-0.3c3.7-0.2,7,1,10.5,1.6c3.6,0.7,7.1,1.6,10.6,2.5
			c0.6,0.2,1.6,0.2,1.4,1.2c-0.1,0.8-1.1,0.8-1.7,0.9c-1.9,0.3-3.8,0.3-5.7,0.7c-3.9,0.7-7.7,1.4-9.6,5.5c-0.8,1.8-2.8,1.8-4.5,2.3
			c-12,3.3-24.6,4.4-36.3,9.3c-2.4,1-4.6,2.1-5.9,4.4c-1.2,2-3.1,2.4-5.2,2.3c-7-0.4-14-1.1-20.9-2.4c-0.3,0-0.5,0-0.8-0.1
			c-0.9-0.3-2.5,0-2.4-1.3c0.1-1.1,1.6-0.7,2.5-0.7c3.8,0.1,7.4-0.4,11-1.7c2.3-0.9,3.7-2.5,4.1-4.9c1.1-6.1,5-9.2,11.2-10.5
			c5.4-1.2,11.1-2.2,15.7-5.9c0.9-0.7,2-1,3-1.4c0.4-0.2,0.8-0.5,0.7-1c-0.1-0.5-0.6-0.6-1-0.6c-7.9-0.6-15.5-3.3-23.3-3.9
			c-8.7-0.7-17.3-2.3-26.1-1.8c-10.8,0.5-21.6,2.1-32.3,3.7c-13.7,2.1-27.4,4.3-41.3,5.2c-9.8,0.7-19.4,2.7-28.8,5.8
			c-0.7,0.2-1.5,0.5-2.2,0.9c-1.4,0.8-1.4,1.8,0.1,2.4c2.4,1,5,1.7,7.6,1.8c7.7,0.2,15.2-0.2,22.5-2.8c7.3-2.6,15-3.4,22.8-3.5
			c9.7-0.1,19.4-1.2,29.1-0.9c3.7,0.1,7.5,0.2,11,1.5c0.5,0.2,1.4,0.1,1.4,0.9c0,0.9-0.9,1-1.6,1c-2.9,0.3-5.9,0.5-8.8,0.7
			c-4.9,0.4-9.9,0.8-14.5,2.7c-1,0.4-2.1,0.7-2.2,1.9c-0.1,1.2,1.1,1.4,1.8,2c1.6,1.2,3.5,1.6,5.5,2.1c3.7,0.8,7.3,2.2,10.9,3.6
			c-2.4,1-4.8,0.9-7.2,0.6c-7.5-1.1-14.9,0.2-22.4,0.3c-8.8,0.2-17.5,1.1-26.1,3c-8.8,1.9-17.6,4-26.4,6.2
			c-3.8,0.9-7.5,1.5-11.3,0.7c-10.9-2-21.6-1.3-32.2,2c-9.9,3-20.2,4.2-30.5,5.2c-3.4,0.4-6.8,1-10.3,1.5c-0.3,0-0.7,0-1,0
			c-1.6,0.1-3.2-0.3-4.7,0.5c-0.5,0-1,0-1.6,0c-11.3,0.6-22.2,3-32.9,6.2c-3.3,1-6.7,2-10,3c-4.9,1.5-9.6,0.6-14.3-1.1
			c-1.1-0.4-2.5-1-2.3-2.5c0.2-1.3,1.6-1.5,2.6-1.7c14-3.1,27.7-7.4,42-9.2c4.9-0.6,9.8-1.1,14.8-1.3c13.4-0.8,26.6-2.5,39.7-5.1
			c11.9-2.3,23.8-4.1,35.8-5.2c8.8-0.8,17.6-1.9,26.3-3.3c1.6-0.2,3.2-0.9,4.7-1.4c0.5-0.2,1-0.5,1-1.1c0.1-0.7-0.5-1.1-1.1-1.3
			c-1.1-0.3-2.2-0.7-3.3-0.8c-6.9-1.1-13.9-2-20.9-2.8c-2.5-0.3-4.9-0.7-7.4-1c-10.3-1.3-20,1-29.7,4.1
			c-14.1,4.5-28.3,9.1-42.6,13.2c-15.2,4.3-30.5,3.9-45.9,0.8c-7.7-1.6-15.4-2.6-23.3-2.3c-6,0.2-11.9,1-17.9,1.5
			c-0.7,0-1.4,0-2.1,0c-1.5-1.2-3-1.3-4.7-0.5c-0.3,0-0.7,0-1,0c-0.3-0.6-0.8-0.9-1.4-1c-1.4-0.3-2.8-0.8-2.9-2.5
			c-0.1-1.8,1.5-2.2,2.8-2.6c5.5-1.9,11.2-2.4,16.9-2c9.6,0.6,19.2,1.3,28.8,1.9c5.6,0.4,11.1-0.2,16.6-0.6
			c5.2-0.3,10.4-0.8,15.4-2.2c2-0.5,4.4-1,5.1-3.2c1.5-4.3,4.9-5.3,8.6-5.4c8.7-0.1,17.2-1.9,25.7-3.5c10.8-2,21.8-3,32.9-2.9
			c9.9,0.1,19.7-1.4,29.3-4.2c7.4-2.1,14.9-4.1,22.8-3.6c1,0.1,1.9,0,2.8-0.5c0.9,0,1.7,0,2.6,0c0.8,0.4,1.7,0.5,2.6,0.5
			c6.2,0.3,12.3-0.6,18.4-1.1c8.1-0.6,15.8-2.8,23.3-6.2c2.5-1.1,5-2.3,7.8-2.7c9.4-1.3,18.8-1,28.2,0.3c6.5,0.9,13,2.1,19.6,2.8
			c8,0.7,15.1-2.4,22.3-5.5c0.8-0.4,2.1-0.6,1.9-1.8c-0.2-1.2-1.4-1.1-2.3-1.3c-3.1-0.6-6.1-1.1-9.2-1.7c-0.8-0.2-2-0.3-1.9-1.4
			c0.1-1.2,1.4-0.8,2.1-0.8c8.2,0.2,16.3-0.9,24.4-0.6c0.6,0,1.2,0,1.8-0.1c0.8-0.1,1.7-0.2,1.9-1.1c0.2-1.1-0.8-1.4-1.6-1.8
			c-2-0.8-4.1-1.4-6.3-1.7c-10.6-1.6-21.3-0.9-31.9-1.6c-0.5,0-1,0-1.6,0c-3.6-1.1-7.3-0.9-10.9-1.6c1-1.5,2.4-1,3.8-0.9
			c4.9,0.6,9.7,0.6,14.5-0.3c0.7-0.1,1.8-0.1,1.8-1c0-0.9-1.1-0.9-1.8-1.2c-0.4-0.2-0.8-0.2-1.3-0.4c-0.8-0.3-2-0.2-2-1.3
			c0.1-1,1.3-0.9,2.1-1.1c1.2-0.3,2.4-0.5,3.4-1.1c8.3-4.6,17.4-6.9,26.7-8.5c7.8-1.4,16-1.4,23-5.8c0.4-0.3,1-0.3,1.5-0.4
			c2.8-0.8,5.7-0.4,8.5,0c1,0.1,2.7,0.5,2.9-0.9c0.2-1.5-1.5-1.3-2.5-1.6c-1.6-0.4-3.2-0.6-4.8-1c-0.8-0.2-1.8-0.6-1.5-1.7
			c0.6-1.9-0.7-2.1-1.9-2.2c-8.1-0.4-16.1-2.8-24.1,1.5c-4.7,2.5-10.4,2.8-15.7,3.2c-10,0.8-20.1,0.5-30.2,0.6
			c-3.9,0-7.8,0.8-11.7,0.5c-7.3-0.7-14.5-0.7-21.8-0.5c-11,0.3-21.5,2.4-31.5,7.1c-6.4,3.1-13.2,4.2-20.3,2.8
			c-4.3-0.8-8.6-1-13-1.1c-9.3-0.1-18.6,0-27.8,1.1c-5.4,0.6-10.8,1.4-16.3,2.1c-0.8,0.1-2.1,0.2-2,1.2c0,1,1.3,1,2.1,1.1
			c3.1,0.3,6.2,0.7,9.3,0.7c10.9-0.1,21.7-2.3,32.7-1c3.4,0.4,6.7,0.7,10.2,1.5c-1,1.4-2.1,1.1-3.1,1.1c-4.9,0.4-9.9-0.3-14.8,0.2
			c-5.5,0.5-11.1,0.2-16.6,0.8c-7.9,0.8-15.7,1.8-23.4,3.5c-1.8,0.4-3.3,1.2-4.1,2.9c-0.6,1.2-1.6,1.5-2.8,1.5
			c-7.8,0.1-15.6,0.6-23.4,1c-13.2,0.7-26.2-0.4-39.1-3.4c-12.6-2.9-25.1-2.6-37.6,0.8c-4,1.1-7.5,3.2-11.5,4.2
			c-10,2.5-20.1,4.2-30.6,3.7c-9.9-0.5-19.8,0.5-29.6,1c-5,0.3-10,0.7-15,1.2c-9,0.8-18,1.6-26.9,2.4c-2.3,0.2-4.5-0.3-6.3-2
			c5.4-0.5,10.7-1,16.1-1.5c25.8-2.3,51.5-4.8,77.1-8.6c19-2.9,37.9-5.8,57.1-7.6c8.8-0.8,17.4-3.3,26.2-4.2
			c9.9-1,19.8-1.6,29.6-1.8c17.6-0.3,35.2-2.5,52.8-3.2c12.6-0.5,25.2-0.9,37.6-3.4c9.1-1.8,18.3-3.4,27.4-4.9
			c4.2-0.7,8.5-1.1,12.7-1.1c15.2-0.1,30.1-2.2,45.1-4c13.6-1.7,27.2-2.5,40.8-2.3c14.9,0.2,29.2-1.8,43.1-7.2
			c9.4-3.6,19.2-5.9,29.3-4.9c5,0.5,10.1,0.8,14.9,2.4c-1.4,0.6-2.9,1-4.5,1.2c-5.6,0.7-11.2,1.6-16.4,4.1c-0.8,0.4-2,0.7-1.8,1.9
			c0.1,1.2,1.3,1.4,2.2,1.5c2.5,0.4,5,0.8,7.5,1c7.2,0.6,14.2,1.8,21.5,1c4.4-0.5,9-0.6,13.5,0c0.7,0.1,1.8,0.2,1.9,1.1
			c0.1,1.1-1.1,0.9-1.7,1.2c-0.6,0.3-1.4,0-1.8,0.8c2.8,3.2,6.4,5.2,10.7,5.6c-2.1,1.4-4.4,1-6.5,1.7c-7,2.7-14.3,4.2-21.6,5.7
			c-11,2.2-22.3,2.2-33.5,2.1c-6.8-0.1-13.5,0.7-20,2.7c-5.4,1.7-10.8,3.3-15.7,6.2c-1.2,0.7-2.6,1.5-2.4,3.1c0.2,1.6,1.8,1.8,3,2.1
			c5.7,1.4,11.5,2.4,17.3,1.8c10-1.1,20-2.4,30.1-1.9c0.5,0,1,0,1.6,0c4.4,0.2,8.7-0.7,13-1c0.7-0.2,1.3-0.3,2-0.6
			c4-1.6,8-3.3,12.1-4.8c5.8-2.2,11.8-1.1,17.8-1.3c0.7,0,1.4,0,2.1,0c1.5,0.8,3.1,0.4,4.7,0.5C559.9,482.6,560.5,482.6,561,482.6z
			 M193.7,486.7c2.5,0.4,5-0.4,7.6-0.5c6.1-0.4,12-1.6,17.9-3c0.9-0.2,2.3-0.4,2.3-1.7c-0.1-1.2-1.4-1-2.3-1.3
			c-0.3-0.1-0.7-0.2-1-0.2c-8.9-1-17.8-0.9-26.7,0.6c-2.4,0.4-4.7,1.2-6.8,2.4c-0.7,0.4-1.6,0.9-1.4,2c0.2,0.9,1.2,1.1,1.9,1.1
			C188.1,486.2,190.8,486.9,193.7,486.7z M500.8,496.8c1.7,0.5,3,0.4,4.2,0.2c0.6-0.1,1.3-0.4,1.3-1.1c-0.1-0.8-0.8-0.8-1.4-0.7
			C503.6,495.5,502.3,495.5,500.8,496.8z M508.8,495.5l0,0.2l0.2-0.1L508.8,495.5z"/>
		<path class="st3" d="M14.6,499.3c1.8,1.7,4,2.2,6.3,2c9-0.7,18-1.6,26.9-2.4c5-0.4,10-0.9,15-1.2c9.9-0.5,19.8-1.5,29.6-1
			c10.5,0.5,20.5-1.3,30.6-3.7c4-1,7.5-3.1,11.5-4.2c12.5-3.4,25.1-3.7,37.6-0.8c12.9,3,25.9,4,39.1,3.4c7.8-0.4,15.6-0.9,23.4-1
			c1.2,0,2.2-0.3,2.8-1.5c0.8-1.7,2.3-2.5,4.1-2.9c7.7-1.7,15.5-2.7,23.4-3.5c5.5-0.6,11.1-0.3,16.6-0.8c4.9-0.5,9.9,0.3,14.8-0.2
			c1-0.1,2.1,0.3,3.1-1.1c-3.5-0.8-6.9-1.1-10.2-1.5c-11-1.2-21.8,0.9-32.7,1c-3.1,0-6.2-0.4-9.3-0.7c-0.8-0.1-2.1-0.1-2.1-1.1
			c0-1.1,1.2-1.1,2-1.2c5.4-0.7,10.8-1.5,16.3-2.1c9.2-1.1,18.5-1.3,27.8-1.1c4.4,0.1,8.7,0.2,13,1.1c7.1,1.4,13.9,0.3,20.3-2.8
			c10-4.8,20.6-6.8,31.5-7.1c7.3-0.2,14.5-0.2,21.8,0.5c3.9,0.4,7.8-0.4,11.7-0.5c10.1,0,20.1,0.3,30.2-0.6
			c5.4-0.4,11.1-0.7,15.7-3.2c8-4.3,16-2,24.1-1.5c1.2,0.1,2.6,0.2,1.9,2.2c-0.4,1.2,0.6,1.5,1.5,1.7c1.6,0.4,3.2,0.6,4.8,1
			c1,0.2,2.7,0.1,2.5,1.6c-0.2,1.4-1.9,1-2.9,0.9c-2.9-0.4-5.7-0.8-8.5,0c-0.5,0.1-1.1,0.1-1.5,0.4c-7.1,4.4-15.2,4.4-23,5.8
			c-9.3,1.6-18.3,3.9-26.7,8.5c-1.1,0.6-2.3,0.9-3.4,1.1c-0.8,0.2-2.1,0.1-2.1,1.1c-0.1,1.1,1.2,1,2,1.3c0.4,0.2,0.9,0.2,1.3,0.4
			c0.7,0.3,1.8,0.3,1.8,1.2c0,1-1.1,0.9-1.8,1c-4.8,0.9-9.7,0.8-14.5,0.3c-1.3-0.2-2.8-0.7-3.8,0.9c-3.2,0.2-6.5,0.6-9.7,0.5
			c-6.9-0.2-13.8,0.8-20.2,3.1c-15.2,5.3-31,6.4-46.8,6.8c-7.5,0.2-14.8,1.1-22.2,2c-4,0.5-7.9,1.9-12,1.8c0.6-1.2,1.9-1.1,2.9-1.4
			c13.4-2.7,27-3.7,40.5-4.9c8.1-0.7,16.4-0.8,24.1-3.6c11.9-4.3,24-6,36.6-5.2c0.6,0,1.4,0.3,1.8-0.6c-1.1-0.8-2.3-0.7-3.5-1
			c-4-0.8-8-1.6-12-2.4c-0.6-0.1-1.3-0.3-1.4-1c0-0.8,0.7-0.9,1.3-1c1.9-0.6,3.9-0.6,5.9-0.8c2.7-0.2,5.5,0.1,7.7-2.3
			c1.3-1.5,0.8-2.1-0.7-2.6c-2.2-0.8-4.4-0.8-6.7-0.6c-4.4,0.4-8.8,0.9-13.2,0.9c-7.8,0.1-15.4,1.1-22.8,3.3
			c-6.4,1.9-12.9,3.8-19.7,3.4c-6.4-0.4-12.7-0.8-19.1,0.1c-3.7,0.5-7.4,0.6-11.1,0.9c-0.6,0-1.4,0.2-1.4,0.9c0,0.7,0.7,0.9,1.3,1.1
			c1.4,0.3,2.9,0.5,4.4,0.8c2.7,0.4,5.3,0.8,7.9,1.4c1.2,0.3,3.3,0.3,3.2,2c0,1.5-1.9,1.5-3.1,1.8c-4.5,1-9.3,1.2-13.7,0.3
			c-8.8-1.8-17.6-3.1-26.6-1.7c-6.5,1-13.7-1.3-19.4,3.9c-0.1,0.1-0.3,0.1-0.5,0.2c-6.7,2-13.5,4.1-20.2,6.1
			c-4.3,1.3-8.9,1.8-12.5,5c-0.7,0.6-1.7,0.7-2.7,0.9c-5.5,1.2-10.9,0.2-16.2-1.3c-1.6-0.4-3.4-1-3.8-2.8c-0.4-1.8,1.5-2.3,2.6-3.1
			c0.5-0.4,1-0.7,0.8-1.5c-0.2-0.7-0.8-0.9-1.4-1c-0.8-0.1-1.6-0.1-2.3,0c-3.3,0.5-6.5,1.1-9.8,1.6c-5.7,0.9-11.1,2.7-16.9,2.9
			c0.5-1,1.6-1,2.5-1.2c5.6-1.3,11.2-2.6,16.4-5c0.9-0.4,2.1-0.8,2.1-2c0-1.3-1.3-1.5-2.3-1.8c-9.5-2.9-19.3-3.8-28.8-1.9
			c-12.4,2.5-24.4,6.6-36.9,9.2c-6,1.2-12,2.1-18.1,1.4c-13.1-1.4-26.1-1.4-39.2,0.8c-1,0.2-2.5,0.2-2.6,1.3
			c-0.1,1.4,1.6,1.4,2.6,1.6c6.3,1.3,12.6,2.5,18.9,3.8c4.6,0.9,9.4,1.1,14,0.3c11.9-2.2,23.8-3.3,35.8-4.4
			c-0.7,1.3-2.1,1.2-3.2,1.4c-8.2,1.7-16.3,3.5-24.6,4.2c-6.1,0.5-12.2,1.6-18.4,0.9c-6.2-0.8-12.3-2.4-18.4-3.3
			c-11-1.6-22.1-1.3-33.1-2.9c-1.3-0.2-2.3,0.3-2.5,1.7c-0.1,1.4,0.8,2.3,2.1,2.6c1.4,0.4,3-0.2,4.3,0.7c-0.3,0.3-0.7,0.7-1,1
			c-0.5,0-1,0-1.6,0c-3.1,0.2-4.6-2-6-4.2c-1.3-2.1-2.9-3.8-5.5-4.2c-0.5,0-1,0-1.6,0c0-0.5,0-0.9,0-1.4c0.2-0.1,0.3-0.1,0.5-0.2
			c0.2-0.1,0.3-0.2,0.5-0.3C13.2,499.4,13.9,499.3,14.6,499.3z M347.8,474.7C347.8,474.7,347.8,474.7,347.8,474.7
			c2.6,0,5.2,0.2,7.8,0c5-0.3,10-0.7,14.8-2.3c1.2-0.4,2.6-1.1,2.5-2.7c-0.1-1.6-1.5-2-2.8-2.2c-8.5-1.4-17.1-1.6-25.6,0.1
			c-2.5,0.5-4.9,1.3-7,2.7c-1,0.7-2,1.6-1.6,3c0.4,1.4,1.6,1.4,2.8,1.4C341.8,474.7,344.8,474.7,347.8,474.7z M424.8,468.5
			c-4.2-0.7-8.3-0.8-12.3,0.6c-3.6,1.2-7.4,1.9-11.2,2.1c-3.6,0.2-7.3,0.6-10.8,1.6c-1,0.3-2.4,0.7-1.5,2c0.9,1.4,1.4,2.6,1.3,4.3
			c-0.1,0.7,0.7,1.2,1.4,1.3c2.1,0.3,4.2,1,6.4,0.4c5.7-1.8,11.5-3.3,17.1-5.4C418.9,474,421.2,470.3,424.8,468.5z M384.3,487.4
			c-0.2,0.2-0.3,0.3-0.5,0.4c0.1,0.1,0.2,0.3,0.3,0.3c0.2-0.1,0.3-0.2,0.5-0.3C384.6,487.6,384.4,487.5,384.3,487.4z"/>
		<path class="st6" d="M554.7,482c-0.7,0-1.4,0-2.1,0c-0.4-0.8-1.1-0.9-2-1c-3.2-0.3-6.3-0.8-9.5-1c-4.6-0.3-9.1-0.3-12.6,3.7
			c-1.4,1.6-3.4,2.6-5.5,3.4c-0.9,0.3-1.8,0.7-2.2,1.7c-4.3,0.3-8.6,1.2-13,1c0.6-1,1.5-1,2.5-1c2.4-0.2,4.8-0.9,7-1.9
			c1.2-0.6,2.2-1.5,2.2-2.9c0-1.4-1.2-1.9-2.2-2.3c-0.9-0.4-1.9-0.8-2.9-1.1c-7.9-2.2-15.9-2.5-24-2.1c-2.2,0.1-4.5,0.5-6.6,1.5
			c-1.6,0.8-4.3,1-4,3.4c0.3,2.3,2.7,2.4,4.5,2.7c6.5,1.2,13,2.3,19.6,2.7c0.9,0,1.7,0.1,2.3,1c-10.1-0.5-20.1,0.8-30.1,1.9
			c-5.8,0.6-11.6-0.4-17.3-1.8c-1.2-0.3-2.8-0.6-3-2.1c-0.2-1.6,1.2-2.4,2.4-3.1c4.9-2.9,10.3-4.5,15.7-6.2c6.5-2,13.2-2.8,20-2.7
			c11.2,0.1,22.4,0.1,33.5-2.1c7.3-1.5,14.6-3,21.6-5.7c2-0.8,4.3-0.4,6.5-1.7c-4.4-0.4-7.9-2.3-10.7-5.6c0.4-0.8,1.2-0.5,1.8-0.8
			c0.7-0.3,1.8-0.1,1.7-1.2c-0.1-0.9-1.1-1-1.9-1.1c-4.5-0.6-9.1-0.5-13.5,0c-7.3,0.8-14.4-0.3-21.5-1c-2.5-0.2-5-0.6-7.5-1
			c-0.9-0.1-2-0.3-2.2-1.5c-0.1-1.2,1-1.5,1.8-1.9c5.2-2.4,10.7-3.4,16.4-4.1c1.6-0.2,3.1-0.6,4.5-1.2c4.1,0.6,7.9,2,11.5,3.9
			c8.6,4.5,17.8,7.4,27,10.3c-1.2,2-0.5,3.2,1.7,3.7c2,0.4,3.2,1.6,3.6,3.6c-0.7,0.4-1.5,0.1-2.3,0.1c-3.8,0.2-7.7-0.2-10.8,2.6
			c-1.1,1-2.7,1.2-4.1,1.4c-2.6,0.4-5.2,0.7-7.6,1.8c-0.6,0.3-1.4,0.5-1.4,1.4c0,0.8,0.6,1.2,1.3,1.5c1.6,0.8,3.4,1.2,5.2,1.5
			c8.1,1.5,16.4,1.5,24.5,2.6c2.3,0.3,4.6,1,6.9,0.1c0.6-0.2,1.3-0.3,1.3-1.1c0.1-0.8-0.6-1-1.1-1.3c-1.4-0.6-2.9-1.1-4.3-1.8
			c-0.8-0.3-1.9-0.5-1.9-1.6c0-1.1,1.2-1.1,2-1.3c1.8-0.5,3.6-0.8,5.3-1.3c0.9-0.2,2.2-0.3,2.1-1.5c0-1.2-1.4-1-2.2-1.4
			c-1.4-0.6-3.5,0.3-4.1-1.9c1.9,0,3.8,0,5.7,0c0.7,1.2,1.9,1,3,1c2.3-0.1,4.5,0.2,6.7,0.6c0.5,0.1,1.1,0.1,1.3,0.7
			c0.2,0.8-0.5,1-1.1,1.2c-2.5,0.7-5,1.4-7.5,2.1c-0.9,0.3-1.8,0.5-2.7,0.8c-0.7,0.2-1.3,0.6-1.3,1.4c0,0.9,0.7,1.1,1.4,1.4
			c1.6,0.6,3.3,1.1,4.9,1.8c0.8,0.3,1.8,0.6,1.7,1.7c-0.1,1.1-1.1,1.5-2,1.8c-3.8,1.1-7.7,0.9-11.6,0.6c-3.8-0.3-7.6-0.9-11.3-1.3
			c-1.1-0.1-2.3-0.1-3.3,0.5c-0.5,0-1,0-1.6,0C558,480.9,556.4,481.5,554.7,482z"/>
		<path class="st4" d="M649.2,472.1c-1.8,0.9-4,0.7-6.3,2.1c4.1,1.1,7.8,0.7,11.2,1.8c0.1,1.2-0.8,1.4-1.5,1.6
			c-10.9,3.6-21.5,7.9-32.9,9.8c-6.1,1-12.1,0.2-18.2-0.4c-4.8-0.5-9.7,0.3-14.5-0.8c-0.5-0.1-1.1,0-1.5-0.7c0.7-1.1,1.9-0.8,3-0.9
			c3.7-0.2,7.2-1.1,10.6-2.5c0.8-0.3,2.1-0.6,2-1.7c-0.1-1.2-1.4-1.2-2.2-1.4c-1.9-0.5-3.9-0.8-5.8-1.4c-1.1-0.3-3,0-3-1.8
			c0-1.5,1.7-1.5,2.9-1.7c3-0.5,6-1.2,9-1.4c5.8-0.4,11.6-0.8,17.4-0.6c1.8,0.1,3.7-0.1,5.3-1.1c7.5,1.1,15,0.4,22.5,0.7
			C647.8,471.7,648.5,471.9,649.2,472.1z"/>
		<path class="st4" d="M813.9,503.4c-0.6,1.6,0,2.7,1.4,3.5c1.8,1.1,1.8,2.3,0.6,3.9c-0.8,1-1.5,2.2-1.5,3.5c0,2.3-1.2,3.9-3,5.1
			c-2.2,1.5-4.6,2.8-6.1,5.2c-0.7,1-1.9,1.1-3,1.2c-6.5,0.2-12.8-1.1-18.9-3.1c-0.8-0.3-1.8-0.5-2-1.5c-0.2-1.2,0.9-1.6,1.7-2
			c2.5-1.3,5-2.4,7.5-3.6c1.1-0.5,2.3-1.1,2.3-2.6c0-1.4-1.3-1.7-2.3-2.2c-4.8-2.5-10.1-2.9-15.2-4.4c-1.3-0.4-3.5-0.2-3.5-1.6
			c0-1.7,2.2-1.4,3.5-1.9c1.7-0.7,3.6-0.7,4.6-2.6c10.3,1.6,20.8,1.4,31.1,2.6C812,503,812.9,503.2,813.9,503.4z"/>
		<path class="st6" d="M773.2,499.2c-5.2,2.7-10.7,2.3-16.3,1.5c-6.6-1-13.2-2.3-19.6-4.2c-2.8-0.8-5.6-0.9-8.5-0.5
			c-10.1,1.6-20.1,0.4-30-1.2c-3.2-0.5-6.3-1-9.5-1.8c-1.9-0.5-4-1.1-3.7-3.9c0.2-2.5,1.8-3.6,4.1-4c6.1-1,12.1-0.8,18.1,0.3
			c8,1.4,15.8,4,24,4.9c3.6,0.4,7.1-0.2,10.2-2.2C752.7,491.2,763,494.9,773.2,499.2z M710.7,494.6c2.2-0.1,4.2,0.2,6.1-0.4
			c0.9-0.3,2-0.4,2.2-1.5c0.2-1.2-0.9-1.6-1.7-2c-3.3-1.7-6.9-2.8-10.6-3.4c-3.4-0.6-6.9-1-10.2,0.4c-1.2,0.5-2.2,1.3-2.2,2.6
			c0,1.4,1.2,1.8,2.3,2.1C701.2,494,706,494.6,710.7,494.6z"/>
		<path class="st6" d="M836.8,531.6c-0.5,0-1,0-1.6,0c-0.6-1-1.5-0.9-2.5-1.1c-3.6-0.4-7.2-0.8-10.8-1.7c-1.3-0.3-2.5-0.8-3.5-1.7
			c-1.8-1.8-2-3.7-0.2-5.4c1.8-1.7,2.8-3.7,3.5-6c0.6-2,1.4-3.9,3.1-5.3c0.9-0.8,1.4-1.7,0.9-3c-0.3-0.7,0.1-1.2,0.7-1.4
			c8,1.5,15.7,4.1,23.6,6c3.2,0.8,6.4,1.6,9.6,2.4c0.6,4,0.5,4.3-3.4,5.6c-1.9,0.6-3.8,1.1-5.7,1.8c-1.5,0.5-2.8,1.3-3.3,3
			c-1.3,4.1-3.2,5.6-7.5,5.8C838.7,530.6,837.5,530.3,836.8,531.6z M842.8,520.1c2.5,0.1,5,0,7.5-0.6c1.2-0.3,2.8-0.5,2.9-2.1
			c0.1-1.5-1.3-1.9-2.3-2.4c-3.4-1.6-7-2.6-10.7-3c-2.4-0.3-4.9-1.1-7.4-0.2c-1.5,0.6-3.1,1.1-3.3,2.9c-0.3,1.9,1.3,2.7,2.6,3.5
			C835.3,519.9,839,520.3,842.8,520.1z"/>
		<path class="st4" d="M568.3,468.5c-0.4-2-1.6-3.1-3.6-3.6c-2.2-0.5-2.9-1.6-1.7-3.7c9.4,2.3,19.1,1.4,28.7,2.6
			c5.1,0.6,10.2,0.6,15.1,2.1c-7.8,3.1-15.9,2.2-24,2.6c-1.9,0-3.8,0-5.7,0C574.2,468.5,571.2,468.5,568.3,468.5z"/>
		<path class="st3" d="M836.8,531.6c0.7-1.2,1.9-1,3-1c4.3-0.2,6.2-1.7,7.5-5.8c0.5-1.7,1.8-2.5,3.3-3c1.9-0.6,3.8-1.1,5.7-1.8
			c3.9-1.3,4.1-1.6,3.4-5.6c2.3,0.4,4.5,0.8,6.8,1.2c0.6,1.5-0.4,2.1-1.5,2.6c-2.4,1.1-4.8,2-7.2,3c-2.3,0.9-4.2,1.9-4.7,4.7
			c-0.3,1.6-1.7,2.5-3,3.4C846.1,531.9,841.6,532.4,836.8,531.6z"/>
		<path class="st4" d="M11.5,499.9c0,0.5,0,0.9,0,1.4c-0.5,0-1,0-1.4,0C10,500.4,10.7,500.1,11.5,499.9z"/>
		<path class="st4" d="M609,466.4c-0.4-0.1-0.7-0.2-1.1-0.3C608.3,466.1,608.7,466.3,609,466.4z"/>
		<path class="st4" d="M12.5,499.4c-0.2,0.1-0.3,0.2-0.5,0.3C12.1,499.6,12.3,499.5,12.5,499.4z"/>
		<path class="st4" d="M370.7,652.5c-12.3,2.8-24.1,7-35.9,11.4c-9.6,3.6-18.8,7-28.6,10c-1.1,0.4-2.2,1-3.3,1.6
			c-4.5-1.2-8.8-3.2-13-5.2c-1.7-0.8-3.2-1.8-4.5-3.1c-2-2.1-1.6-2.5,1.2-3.2c5.8-1.5,11.6-3.2,16.6-6.7c7.4-5.1,14.1-10.7,17-19.7
			c0.7-2.4,2.5-3.9,4.9-4.7c5.8-2,11.9-2.3,18-2.7c6.7-0.4,13.5-0.5,20.3-0.6c19-0.3,37.7-2.9,56.1-7.6c6.2-1.6,12.4-0.7,18.6,0.1
			c4.9,0.6,9.9,0.5,14.7-0.7c0.8-0.2,2-0.3,1.9-1.4c0-1.1-1.2-1.2-2-1.3c-5.2-0.9-10.4-0.6-15.5,0.3c-2.8,0.5-5.5,0.3-8.3,0.2
			c-1.3,0-2.5-0.4-2.8-1.9c-0.3-1.4,0.6-2.2,1.8-2.9c4.1-2.3,8.7-3.1,13.2-3.9c12.8-2.2,25.7-4.4,38.6-6.1
			c9.9-1.3,19.9-1.2,29.8,0.3c10,1.5,19.5-0.3,29-3.4c3.1-1,6.2-2.1,9.4-3.1c5.4-1.7,10.6-1.1,15.5,2c3.1,1.9,3.2,4,0.1,5.9
			c-5.4,3.4-11.4,5-17.4,6.8c-5.3,1.6-10.8,2.3-16.5,2.2c-12.9-0.4-25.7,0.5-38.2,3.7c-2.1,0.5-4.2,1.2-6.2,1.9
			c-1.7,0.6-1.9,1.7-1.3,3.3c1.5,4,1.1,4.8-2.8,6.5c-5.7,2.4-11.7,3.2-17.8,3.4c-5.7,0.2-11.4-0.2-17.2-0.4
			c-9.5-0.2-19.1,0.5-28.5,2c-9.8,1.5-19.6,3-29.3,4.7c-4.2,0.7-8.4,1.7-12.1,3.8c-1.9,1.1-3.7,2.2-2.7,4.9c0.3,0.9-0.3,1.5-1,1.9
			C371.7,651.1,371,651.6,370.7,652.5z"/>
		<path class="st6" d="M585.8,586.8c-6.2,0.3-11.7-1-17.3-1.8c-5.3-0.7-10.5-1.3-15.8-1.3c-8.9,0-17.7-0.2-26.6,0.1
			c-7.3,0.2-14.6,0.4-21.8,1.7c-4.8,0.9-9.4,2.4-13.6,4.9c-7.4,4.4-15.8,5.1-24,6.3c-3.6,0.5-6.8,1.3-9.9,3.5
			c-4.6,3.3-10.1,4.4-15.6,5.4c-9.4,1.8-18.8,3.3-28.1,5.7c-4.8,1.2-9,3.2-12.2,7.4c-2.5,3.4-6.8,4.1-10.7,5
			c-11.1,2.5-22.3,2.5-33.7,1.9c-8-0.4-16.1-0.6-24.2,0.2c-9.4,0.9-18.8,1.8-28.2,2.6c-1.8,0.1-3.6-0.4-5.4-0.8
			c-1.9-0.5-3-2.1-3.1-4.1c-0.1-2.7,1.2-4.7,3.5-6c4.2-2.5,8.9-2.8,13.5-3.5c11.2-1.6,22.5-1.5,33.6-3.6c4.3-0.8,8.3-2.4,12.3-4.2
			c2.6-1.2,3.8-3,3.8-5.9c0-5.9,1.1-7.4,6.8-9.2c8.3-2.6,16.6-2.5,24.9-0.4c11.2,2.9,22.6,3.8,34.1,3.4c1.2,0,2.4-0.3,3.6-0.5
			c3.8-0.7,4.1-1.1,2.5-4.5c-0.9-1.9,0.2-3.1,1.7-3.8c2.5-1.2,5.1-2.1,7.7-3.1c6.3-2.2,12.7-4.1,18.9-6.6c2.4-1,4.7-2.2,6.9-3.7
			c8.8-5.8,18.7-8.2,29-9.1c9.4-0.9,18.9-0.9,28.3-1.1c8.2-0.1,16.3-0.8,24-4.2c1-0.5,2.2-0.8,3.3-0.8c9.3-0.1,18.6-0.8,27.8,1.1
			c1.9,0.4,3.7,1,5.4,1.9c1,0.5,2.1,1.1,2.1,2.4c0,1.2-1.1,1.6-2,2.2c-0.2,0.1-0.3,0.1-0.5,0.2c-1.2,0.7-3.3,0.6-3.2,2.5
			c0.1,1.7,1.9,1.9,3.1,2.4c3.1,1.4,6.3,2.5,9.4,3.9c2.4,1,5.2,2,5.3,5.1c0.2,3.2-2.4,4.8-4.9,6.2
			C593.1,586.6,589.3,587.1,585.8,586.8z M579.1,583.8c3.1,0,6.1,0,8.9-1.6c3.4-2,3.4-4.7,0.1-6.8c-0.5-0.3-1.1-0.6-1.6-0.8
			c-16.4-6.8-33.4-10.3-51.2-10.2c-8,0.1-16-0.1-23.9,0.5c-6.9,0.5-13.8,1.4-20.4,3.7c-2.3,0.8-4.6,1.7-6.2,3.7
			c-2.1,2.5-1.6,5,1.4,6.2c2,0.8,4.1,1.3,6.3,1.6c11.6,1.4,23.3,1.7,35,2c10.2,0.3,20.3,0,30.5,0.1c1.6,0,3.1,0.2,4.7,0.3
			C568,582.9,573.6,583.4,579.1,583.8z M378,600.8c0,4.4,3.6,8.2,8.3,8.9c4.7,0.8,9.3,0.1,14-0.6c10.6-1.4,21.2-2.9,31.4-6
			c1.7-0.5,4.6-0.5,4.4-2.8c-0.3-2.4-3.2-2.3-5.1-2.5c-5.8-0.7-11.6-1-17.4-1.2c-5.2-0.2-10.4-0.8-15.5-1.3
			c-5.3-0.5-10.7-1.5-16,0.2C378.9,596.5,378,597.7,378,600.8z"/>
		<path class="st6" d="M693.4,514.9c-5.4,0.6-10.7,2-16.2,1.6c-4.9-0.7-9.8-1.2-14.6-2.1c-7.6-1.5-15.3-2.2-22.9-3.6
			c-1.5-0.3-3.1-0.6-4.4-1.4c-0.6-0.4-1.3-0.7-1.4-1.5c0-0.9,0.8-1.3,1.5-1.6c3.1-1.3,6.3-2,9.5-2.6c5.9-1.2,11.5-3.2,17.3-4.8
			c1.2-0.3,2.4-0.7,3.2-1.7c2.7-3.5,6.3-2.5,9.8-2.1c0.8,0.1,1.6,0.4,1.9,1.2c1.1,2.6,3.4,3.3,5.8,3.9c7.6,2.2,15.4,3.4,23.3,4.4
			c3.8,0.4,7.6-0.9,11.3-1.7c11.1-2.6,22-1.7,33,0.6c7,1.5,14.2,2.3,21.1,4.3c3,0.9,6,1.7,8.8,3.1c3,1.5,3.2,3.4,0.6,5.6
			c-1.9,1.6-4.3,2.1-6.7,2.8c-1.3,0.4-3.4,0.4-3.4,2.2c0,1.7,2,1.6,3.3,2c9.9,2.9,20.1,4.1,30.2,5.7c1.7,0.3,3.4,0.6,5.1,1.2
			c2.6,0.9,3.2,2.7,1.8,5.1c-2.8,4.7-8.3,7.3-13.2,6.2c0.6-1.4,2.1-1.7,3.1-2.7c2-1.9,2-3.7-0.1-5.5c-1.4-1.2-3.2-1.8-4.9-2.2
			c-5.8-1.4-11.7-1.5-17.6-1.6c-5.6-0.1-11.3,0.3-16.9-0.4c-7.1-0.9-14.3-2-21.5-1.7c-5.9,0.2-11.8-0.5-17.6-1.4
			c-7.5-1.1-15-1.6-22.3,1.1c-3.8,1.4-7.6,3.1-10.9,5.4c-1.1,0.8-2.2,1.6-1.9,3.1c0.3,1.4,1.7,1.7,2.9,1.9c2.1,0.4,4.2,0.9,6.4,0.7
			c5.9-0.5,11.7-1.6,17.5-2.7c7.2-1.4,14.3-2.6,21.7-1.4c4.8,0.8,9.6,1.1,14.5,1.6c6.9,0.8,13.9,0.3,20.7,1.6c3,0.6,6.3,0.2,8.8,2.5
			c-6.5,0.1-12.8-1.4-19.3-1.1c-0.3-0.8-0.8-1-1.6-0.5c-3.2,0.3-6.2-0.5-9.4-0.5c-0.8-0.5-1.6-0.5-2.5-0.5
			c-15.1-1.3-30-0.1-44.7,3.6c-5.2,1.3-10.6,1.8-15.9,2.7c-0.8,0.1-2,0-2.1,1.2c-0.1,1.1,1,1.3,1.8,1.6c3.9,1.5,7.8,3,11.7,4.5
			c0.8,0.3,1.8,0.6,1.7,1.7c-0.1,0.9-1,1.2-1.7,1.5c-5.5,2.5-11.5,3.8-17.3,5.8c-2.5,0.9-4.9,1.7-5.6,4.8c-0.3,1.4-1.8,1.9-3,2.2
			c-1.8,0.4-3.6,0.9-5.4,1c-10.3,0.6-20.7,0.8-30.7-2.5c-0.6-0.2-1.2-0.4-1.7-0.6c-1.1-0.5-1.9-1.2-1.9-2.5c0-1.2,0.7-1.9,1.7-2.4
			c1.8-1,3.7-1.5,5.6-2c1-0.3,2.1-0.6,2.3-1.8c0.2-1.1-0.6-1.7-1.4-2.3c-4.2-3.5-4-6.6,0.7-9.4c2-1.2,4.3-1.9,6.5-2.6
			c0.6-0.2,1.6-0.2,1.6-1.1c0-0.8-0.9-0.9-1.6-1.2c-0.6-0.3-1.3-0.5-1.9-0.8c-1-0.6-2.1-1.2-1.8-2.6c0.2-1.2,1.3-1.6,2.4-1.8
			c3.1-0.5,6.2-0.5,9.3,0c7.7,1.3,15.2,1.3,22.5-1.8c3.4-1.4,6.7-2.8,10-4.4c8.4-4.1,17.2-6.5,26.7-5.6c4.9,0.5,9.8,1,14.7,1.6
			c9.6,1.1,19.3,0.3,28.9,0.5c1.1,0,2.2-0.2,3.4-0.4c0.8-0.2,1.9-0.3,1.9-1.4c0-0.9-1-1.2-1.7-1.4c-1.8-0.6-3.7-1.1-5.5-1.6
			c-2.8-0.8-5.5-1.7-7.6-3.8c-1.5-1.4-3.5-2-5.4-2.4c-10.9-2.6-22-4.6-33.2-4.6C704.4,508.8,698.7,511.6,693.4,514.9z M658.9,545.1
			c-1.7,0.3-3.9,0.6-6.1,1.1c-1.9,0.4-3.5,1.4-3.9,3.4c-0.4,2,1.2,3.1,2.7,4.1c8.8,6.2,18.1,6,27.8,2.6c1.8-0.6,4.1-1.1,4.3-3.3
			c0.1-2.3-2.2-3.1-4-3.8C673.2,546.2,666.4,545.7,658.9,545.1z M678.5,514.4c3,0.2,6.5-0.4,9.8-2c1.4-0.7,3-1.5,2.8-3.4
			c-0.2-1.8-1.7-2.5-3.2-3c-4.5-1.7-9.2-2.6-13.9-3.1c-5-0.5-9.9,0-14.3,2.7c-2.7,1.6-2.7,2.8,0,4.4c0.4,0.3,0.9,0.5,1.4,0.7
			C666.5,512.9,672,514.5,678.5,514.4z"/>
		<path class="st6" d="M98,548.8c0.7,0,1.4,0,2.1,0c3.3,2.1,7.1,2.5,10.7,2.5c9.3,0,18.5,1.2,27.7,2.7c0.5,0.1,1,0.1,1.5,0.3
			c0.8,0.2,1.9,0.3,2,1.4c0.1,1.1-0.9,1.4-1.7,1.7c-5.1,2-10.4,3.3-15.9,3.9c-1.5,0.2-3.1,0.2-3.6,1.9c-0.5,1.8,0.5,3.3,1.7,4.4
			c1.7,1.5,3.7,2.6,6,3c5.1,0.9,9.2,3.2,12.4,7.4c1.8,2.4,4.9,2.8,7.8,3.1c3.2,0.3,6.4,0.6,9.6,1c2.3,0.3,4.5,1.3,6.7,2.2
			c1.1,0.5,2,1.1,2.4,2.2c1.7,4.6,5.6,7,9.5,9.2c2.6,1.5,5.5,2.6,8.3,3.8c3.5,1.5,7.1,1.9,10.9,1.2c5.1-0.9,10.3-1,15.6-1.1
			c11.9-0.3,23.8-1.1,35.3-4.1c1.6-0.4,3.2-0.9,4.7-1.5c2.6-1.1,4.6-2.9,5-5.9c0.6-3.8,2.9-6.1,6.2-7.8c9.8-5,20.5-7.1,31.3-8.3
			c9.3-1,18.5-1.1,27.7,0.9c3.8,0.8,7.1,2.1,9.1,5.8c0.7,1.3,2,2.4,3,3.6c2,2.3,1.8,4.2-0.7,5.9c-1.1,0.7-2.3,1.3-3.5,1.7
			c-13.6,4.6-27.6,7.9-41.9,9.2c-11.8,1.1-23.3,3.9-34.6,7.2c-10.8,3.2-21.8,4.9-33.1,5.4c-4.6,0.2-9.2-0.2-13.7-0.1
			c-1.6,0-3.4,0-4,1.7c-0.6,1.6,0.4,3,1.6,4.2c3.8,3.8,8.7,5.8,13.8,7c8.1,1.9,16.3,3.6,24.7,3.3c7-0.3,14.1,0.3,21.1-0.5
			c5.8-0.6,11.6,0.3,17.4,0.4c3.3,0.1,6.6,0,9.9,0c5.8,0.1,12,4.4,14.2,9.8c1.1,2.8,0.8,5.4-1.3,7.5c-6.6,6.5-14.2,10.8-23.7,10.9
			c-2.4,0-4.9,0-7.3,0c-1,0-2.2-0.1-2.7,1.1c-0.4,1.1,0.2,2.1,0.9,2.8c4.4,4.7,8.9,8.2,14.8,11.1c4.5,2.2,9.1,4.3,13.7,6.3
			c-1.2,1.8-2.7,0.8-3.9,0.3c-6.1-2.8-12.2-5.4-17.6-9.4c-5.6-4.2-11.2-7.3-15.9-12.4c-1.1-1.2-2.1-2.5-2.9-4
			c-1.4-2.8-0.1-4.9,3.1-4.6c3.7,0.3,7.4,0.7,11.1,1.2c4.7,0.6,9.2-0.3,13.4-2.3c1.8-0.9,3.5-2.3,3.5-4.5c0.1-2.2-1.7-3.4-3.4-4.1
			c-5.8-2.6-12-3.5-18.2-4.3c-8.8-1.2-17.6-1.7-26.4-2.3c-6.5-0.4-12.8-2.1-19.2-3.2c-2.7-0.5-5.5-0.4-8.2-1.2
			c-6.8-1.8-12.1-5.4-15.7-11.6c-3.1-5.3-7.6-8.8-13.1-11.5c-8.7-4.4-17.2-9-24.1-16.2c-3.3-3.5-7.9-4.8-12.6-4.6
			c-4.7,0.2-8.5-0.7-11.3-4.8c-2.3-3.3-5.7-5.1-9.6-5.9c-6-1.2-10.1-4.9-12.3-10.2c-2.4-5.7-7-8-12.3-9.9c-2.9-1-6.1-1.3-8.7-3.1
			C95.9,548.7,97,549.3,98,548.8z M288,594.7c4.1,0,7.6-0.5,11.1-1.2c5.6-1.1,11.3-2.2,16.1-5.5c3.5-2.4,3.6-5.7,0.4-8.4
			c-1.9-1.6-4-2.7-6.5-3.1c-8.9-1.6-17.6-0.6-26.1,2.1c-2.2,0.7-4.4,1.5-6.3,3c-2.3,1.8-3.5,4-2.9,7c0.5,2.9,2.7,4.2,5.2,4.9
			C282.1,594.4,285.3,594.5,288,594.7z"/>
		<path class="st4" d="M564.9,527.5c-1.4,1.1-2.9,0.9-4.4,0.9c-7-0.1-13.9,0.2-20.7,2c-2.2,0.6-4.3,1.2-6,2.9
			c-1.2,1.1-2.1,2.5-2,4.1c0.1,3.4-1.9,5.4-4.4,7.2c-2.7,1.9-5.5,3.6-8.5,5.1c-1.1,0.5-2.6,0.9-2.5,2.3c0.2,1.6,1.9,1.5,3.1,1.8
			c2,0.5,4.1,0.8,6,1.7c0.7,0.3,1.6,0.6,1.5,1.6c-0.1,1-1.1,1.1-1.8,1.2c-3.7,0.8-7.5,1.3-11.4,1.3c-11.5-0.1-22.9,0-34.2,2.1
			c-8.4,1.6-16.4,4-23.6,9.1c-9.2,6.7-19.9,9.7-31.1,11.1c-2.9,0.4-5.7-0.2-8.5-1.1c-0.8-0.2-1.7-0.6-1.9-1.6c-0.1-1,0.7-1.5,1.4-2
			c0.1-0.1,0.3-0.2,0.4-0.3c1.4-1,3.7-1.5,3.4-3.8c-0.2-2.4-2.5-2.7-4.2-3.3c-1.9-0.7-3.8-1.2-5.7-1.8c-0.9-0.3-2-0.6-2.1-1.7
			c-0.1-1.2,1-1.5,1.9-1.9c3.6-1.6,7.2-3,10.8-4.7c1.6-0.7,3.1-1.6,4.5-2.6c1.6-1.1,2.8-2.3,1.7-4.5c-0.9-1.9,0.8-2.3,2.1-2.4
			c4-0.5,7.9-0.8,11.9-1.2c11.1-1,22.2-0.8,33.3-1.2c10.4-0.4,20.7-2.1,30.5-6c0.3-0.1,0.7-0.2,1-0.4c1.4-1,3.4-1.7,3.4-3.6
			c0-2-2.2-2.2-3.7-2.8c-2.2-0.9-4.5-1.7-6.8-2.6c-2.8-1.1-4.9-3-6.4-5.5c-1.3-2.1-0.8-3,1.6-3.2c1.5-0.2,3.1-0.2,4.7-0.2
			c12.9-0.5,25.8-0.1,38.7,0.6c8.4,0.5,16.8,1.2,25.1,2.7C563.1,527,564,527.3,564.9,527.5z"/>
		<path class="st4" d="M235,626c-8-0.8-16.4-1.5-24.1-5.5c-1.6-0.8-4.2-1.4-3.6-3.8c0.6-2.3,3.1-1.8,4.9-1.8
			c14.3-0.2,28.5-1.9,42.2-5.6c24.4-6.6,49.3-10.1,74.1-14.5c4.5-0.8,9.1-1.4,13.7-0.2c0.9,0.2,1.9,0.4,2.7,0.9
			c2.8,1.6,3,4.7,0.5,6.6c-4.5,3.6-10,4.3-15.4,4.9c-11.5,1.4-23.2,2-34.6,4.2c-6,1.1-11.5,3.2-16.2,7.2c-4.1,3.4-9.1,4.5-14.2,5.2
			C255.2,624.9,245.3,625.3,235,626z"/>
		<path class="st6" d="M477.6,505c8.1-0.4,15.3,2.4,21.8,6.7c5.1,3.3,10.2,4.1,16,2.8c10.5-2.3,21.1-4.5,32-3.8
			c6.8,0.4,13.4,2.2,20.1,2.9c6.9,0.7,13.8,1.1,20.6-0.9c9.2-2.7,18.2-1.5,27.2,1.2c1.5,0.4,3.7,0.7,3.7,2.7c0,2.1-2.3,2.3-3.8,2.5
			c-6.3,0.8-11.6,4.1-17.4,6c-9.3,3.1-18.8,2.4-28.3,0.7c-8.6-1.5-17.2-1.9-25.9-2.6c-11.6-0.9-23.2-1.9-34.3-5.6
			c-3.7-1.2-7.2-0.1-10.8,0.2c-5.4,0.5-10.8,1.4-16.3,1.3c-9.4,0-18.1-2.9-27-5.4c-0.8-0.2-1.7-0.6-1.8-1.6c-0.1-1,0.6-1.6,1.3-2.1
			c0.8-0.5,1.7-1,2.5-1.3C463.8,506.2,470.6,505.3,477.6,505z M579,524.3c2.2,0.1,4.9,0.1,7.4-1c0.9-0.4,1.9-0.7,1.9-1.9
			c0-1.1-0.9-1.7-1.7-2.2c-1.8-1-3.7-1.4-5.7-1.7c-6.5-0.9-13.1-1.6-19.6-2.7c-8.5-1.4-16.8-3.5-25.5-2c-3.4,0.6-6.9,0.9-10.1,2.3
			c-0.9,0.4-1.9,0.8-1.8,1.9c0.1,1.1,1.1,1.5,2,1.8c0.6,0.2,1.1,0.4,1.7,0.6c5.3,1.5,10.7,2.1,16.2,2.3c5.5,0.2,11.1,0.7,16.6,0.9
			C566.4,522.9,572.4,524.4,579,524.3z"/>
		<path class="st5" d="M780,539.9c-2.5-2.3-5.8-1.9-8.8-2.5c-6.8-1.3-13.8-0.8-20.7-1.6c-4.8-0.6-9.7-0.9-14.5-1.6
			c-7.4-1.2-14.5,0-21.7,1.4c-5.8,1.1-11.6,2.3-17.5,2.7c-2.2,0.2-4.3-0.4-6.4-0.7c-1.1-0.2-2.6-0.4-2.9-1.9
			c-0.3-1.5,0.8-2.4,1.9-3.1c3.4-2.3,7.1-4,10.9-5.4c7.3-2.7,14.8-2.3,22.3-1.1c5.8,0.9,11.7,1.6,17.6,1.4
			c7.2-0.3,14.4,0.8,21.5,1.7c5.6,0.7,11.3,0.3,16.9,0.4c5.9,0.1,11.8,0.2,17.6,1.6c1.8,0.4,3.5,1,4.9,2.2c2.1,1.8,2.1,3.6,0.1,5.5
			c-1,0.9-2.5,1.2-3.1,2.7c-2.1,0.1-4.2-0.1-6.3-0.5C788,540.6,784,540.3,780,539.9z"/>
		<path class="st4" d="M601.7,499.8c3.5-0.7,6.6-2,8.8-5.1c0.9-1.2,2.1-1.9,3.5-2.1c13.1-2.6,26.2-5.5,39.6-5.8
			c4.1-0.1,8.3,0.5,12.3,1.6c0.7,0.2,1.7,0.3,1.7,1.3c0,0.9-0.9,1.2-1.6,1.5c-1.4,0.5-2.8,0.9-4.2,1.3c-2.5,0.7-4.9,1.6-6.1,4.3
			c-0.7,1.5-2.4,1.9-3.9,2.4c-6.6,2.4-13.5,3.1-20.3,4.6c-2.7,0.6-5.4,1.4-8,2.1c-1.3,0.4-2.6,1-3.2,2.1c-1.1,1.9-2.7,2.1-4.6,2.1
			c-5.6,0.2-11.1-0.4-16.5-1.7c-2.9-0.7-5.3-2.6-7.7-4.2c-1.7-1.1-0.1-1.9,0.9-2.2c2-0.5,4.1-0.9,6.1-1.3c0.9-0.2,1.7-0.4,2.3-1.1
			C601,499.8,601.3,499.8,601.7,499.8z"/>
		<path class="st6" d="M190.8,559.7c0.3,0,0.7,0,1,0c3.5,1,7.1,0.6,10.6,0.4c7.6-0.6,15.2-1.3,22.8-1.4c3.2,0,6.4-0.5,9.6-0.6
			c2.8,0,3,0.4,1.7,2.8c-2.1,4-5.3,6.5-9.5,8c-6.7,2.3-13.5,4-20.6,3.7c-4.8-0.2-9.7-0.9-14.5-1.5c-10.2-1.2-20.4-1-30.7-1
			c-1.5,0-3,0-4.4-0.4c-0.6-0.2-1.4,0-1.5-0.8c-0.2-0.8,0.6-1.2,1.2-1.5c2.7-1.4,5.7-2.2,8.6-3c4.9-1.4,10-2.1,15.1-2.7
			c1.5-0.2,3.2,0,4.2-1.5c0.5,0,1,0,1.6,0C187.8,560.8,189.4,561.4,190.8,559.7z"/>
		<path class="st6" d="M344.2,566.9c-9.8-0.1-19.3-1.9-28.9-3.2c-7-1-13.9-2-20.9-3c-3.2-0.5-6-1.6-8-4.3c-1.7-2.2-1.4-3.8,1-5
			c6.7-3.4,14-4.5,21.3-5.6c9-1.3,18.1-2.1,27.2-1.7c10.1,0.4,20.2,1.2,30.4,1.9c13.6,1,27,3.5,40.4,5.9c2,0.4,3.9,0.9,5.7,1.9
			c2.4,1.3,2.6,2.9,0.4,4.6c-2.9,2.3-6.4,3.2-9.9,3.9c-6.3,1.2-12.6,2-19.1,2.3c-11.7,0.4-23.4,0.7-35,2.4
			C347.3,567.1,345.7,566.9,344.2,566.9z M329.1,546.2c-5.3,0.4-12.7,0.5-20,1.7c-4.2,0.7-8.4,1.3-12.3,3.2
			c-2.7,1.3-2.9,3.4-0.6,5.2c1.2,0.9,2.5,1.6,3.9,2.1c4.4,1.6,8.9,2.4,13.4,3.3c16.3,3.6,32.6,4.8,49,0.4c5.1-1.4,10.3-1.8,15.7-1.5
			c7.3,0.4,14.7,1.2,22-0.4c1.4-0.3,2.7-0.7,3.9-1.4c2.3-1.3,2.4-2.8,0-4.2c-0.5-0.3-1.1-0.6-1.7-0.7c-10.1-2.7-20.3-4.7-30.8-3.7
			c-2.9,0.3-5.9,0.3-8.8-0.2C352.4,548,341.9,546.1,329.1,546.2z"/>
		<path class="st4" d="M334.5,570.2c-2.9-0.3-5.8,0.2-8.7-0.1c-17.9-1.8-35.7-0.1-53.3,3c-8.3,1.5-16.5,3.2-24.8,4.6
			c-3.4,0.6-6.9,0.6-10.4-0.1c-1.4-0.3-2.8-0.9-3-2.5c-0.2-1.5,1-2.3,2.2-2.9c4.3-2.4,9-3.7,13.5-5.6c2.9-1.2,5.4-2.6,7.2-5.3
			c1.1-1.6,2.7-2.4,4.7-2.5c1.6-0.1,2.8,0.5,2.7,2.3c-0.1,2,1.1,2.6,2.7,2.8c5,0.8,10,1.4,15,1c6-0.5,11.9-0.4,17.9,0
			c5.3,0.3,10.6,0.5,15.8,1.2C322.2,566.8,328.3,568.3,334.5,570.2z"/>
		<path class="st6" d="M366.2,522.7c-8.8-0.1-17.1-0.5-25.3-1.6c-1-0.1-2.4,0-2.5-1.3c-0.1-1.3,1.3-1.5,2.2-1.8
			c7-2,14.1-3.1,21.3-3.7c5.7-0.5,11.4-1,17.2-0.5c7.8,0.6,15.6,0.2,23.3,2c1.7,0.4,3.4,0.8,4.9,1.7c0.9,0.5,1.9,1.1,1.8,2.3
			c0,1.1-1,1.6-1.8,2c-3.8,1.9-7.9,2.5-12.1,2.8c-3.7,0.3-7.5,0.1-11.2-0.6C377.9,523,371.9,522.4,366.2,522.7z"/>
		<path class="st6" d="M469.1,546.2c-11.3-0.2-22.5,1.2-33.7,2c-5.2,0.4-10.4,0.1-15.5-1.3c-1.3-0.4-2.9-0.7-3-2.4
			c-0.1-1.7,1.3-2.4,2.5-3c6.1-2.9,12.7-4.7,19.3-6.2c6.3-1.4,12.7-2.1,19-3.1c3-0.5,5.7-1.4,8.2-3.5c5.1-4.3,15.8-2.9,19.9,2.3
			c1.7,2.1,4.1,2.8,6.4,3.7c1.8,0.8,3.7,1.4,5.6,2.2c1.2,0.5,2.5,1.1,2.5,2.7c0,1.5-1.3,1.9-2.4,2.5c-4.5,2.3-9.4,3-14.3,3.7
			C478.8,546.3,473.9,546.1,469.1,546.2z M468.1,544.1c0.7,0,1.4,0,2.1,0c5.8,0.1,11.6,0,17.3-1.5c1.2-0.3,2.8-0.6,2.9-2.2
			c0.1-1.7-1.5-1.9-2.7-2.4c-0.9-0.3-1.8-0.6-2.7-0.8c-12.8-2.8-25.7-4.1-38.7-1.9c-6.4,1.1-12.8,2.4-18.8,5.2
			c-1.2,0.5-2.7,1.1-2.6,2.6c0.1,1.7,1.9,1.9,3.2,2.2c4.7,1.3,9.5,1.1,14.2,0.6C450.8,545.1,459.4,543.6,468.1,544.1z"/>
		<path class="st4" d="M780,539.9c4,0.4,8,0.7,12,1.1c-0.4,0.8-1.2,1-2,1c-10.1,0.3-20,1.6-30.1,2.2c-14.1,0.9-28.2,1.4-42.2,3.4
			c-6.3,0.9-12.6,1.3-18.9-0.5c-0.9-0.3-2.2-0.2-2.2-1.4c-0.1-1.2,1.2-1.4,2-1.6c8.2-2.5,16.6-4.2,25.2-5.2
			c7.5-0.9,14.9-0.3,22.4-0.5c1.2,0,2.4,0.1,3.6-0.5c3.1,0,6.2,0.8,9.4,0.5c0.5,0.2,1,0.3,1.6,0.5C767.2,538.5,773.5,540,780,539.9z
			"/>
		<path class="st4" d="M336.9,570.4c0.5-0.1,0.8-0.3,1.1-0.2c11.1,0.4,22.2-0.9,33.2-1.1c3,0,6,0.5,9,1.3c1,0.3,2,0.6,2.8,1.2
			c1.2,0.8,2.6,1.7,2.5,3.4c-0.2,1.8-1.8,2.2-3.2,2.6c-6.8,2-13.5,4.6-20.6,5.3c-4.9,0.5-9.5-0.4-14-1.9c-1.4-0.5-2.8-1.4-3.1-3
			c-0.8-3.7-3.4-5.4-6.7-6.6C337.6,571.3,337.1,571.2,336.9,570.4z"/>
		<path class="st6" d="M564.9,530.5c6.2,0,12.3,0.1,18.3,1.9c1.7,0.5,3.1,1.3,4.3,2.7c1.8,2.2,4.7,2.9,6.9,4.6
			c1.3,0.9,2.7,1.7,2.4,3.6c-0.3,1.8-1.6,2.9-3.2,3.5c-4,1.7-8.2,2.3-12.4,2.8c-9.2,1-18.5,2-27.8,1.6c-4.6-0.2-9.2-0.4-13.7-1.6
			c-1.1-0.3-2.2-0.7-3.1-1.2c-1.8-1-2.2-2.5-0.7-4.1c2.9-3.1,5.6-6.4,8.8-9.2c4.1-3.6,9.4-4.3,14.6-4.6
			C561.2,530.4,563.1,530.5,564.9,530.5z M558.3,548.8c4.6-0.4,10.2-1,15.7-1.5c4.4-0.4,8.9-0.7,13-2.5c3.9-1.7,4.1-3.6,0.5-6
			c-4.5-3.1-9.5-4.8-14.8-5.5c-10.2-1.2-19.6,0.3-26.9,8.4c-2.5,2.7-2.2,4.6,1.3,5.7C550.5,548.5,553.9,548.7,558.3,548.8z"/>
		<path class="st6" d="M601.7,499.8c-0.3,0-0.7,0-1,0c-3.5-0.2-6.8,1.4-10.3,1.2c-1.5-0.1-2.9,0.3-4.4,0.4c-1.3,0.1-2.7,0.1-3.8,0.9
			c-4.7,3.6-9.5,0.9-14.2,0.3c-1-0.1-1.1-1-0.1-1.6c2-1.1,0.9-1.8-0.4-2.3c-4.2-1.5-8.5-2.4-12.9-3c-6.7-1-13.5,0.1-20.3-1
			c-1.3-0.2-3.4,0.1-3.5-1.4c-0.1-1.5,2.1-1.4,3.4-1.7c4.5-1.1,9.2-0.2,13.7-0.9c6.7-1,13.4-2,20.1-2.3c11-0.6,22-1.2,33,0.9
			c1.4,0.3,3.6,0.1,3.8,2.1c0.2,2.4,2.1,5.4-1.7,6.9C602.4,498.3,602,499,601.7,499.8z M587.6,499.8c2.6,0.1,6.2-0.3,9.7-1.6
			c1.1-0.4,2.5-0.8,2.5-2.3c0.1-1.4-1.2-2-2.3-2.6c-1.4-0.8-3-1.4-4.6-1.8c-7.7-1.9-15.5-1.3-23.2-0.9c-1.3,0.1-2.6,0.6-3.7,1.1
			c-1.5,0.7-1.5,1.8-0.4,2.9c0.6,0.5,1.3,0.9,2,1.2C573.6,498.3,579.9,499.8,587.6,499.8z"/>
		<path class="st6" d="M213.6,545.4c3.8-2.2,7.9-3.3,11.7-4.7c8.8-3.3,17.6-6.4,27.1-7.3c9.4-0.9,18.7,0.1,27.9,2.4
			c0.8,0.2,1.8,0.5,1.9,1.5c0.1,1.3-1.1,1.4-2,1.7c-5.1,1.4-10.4,2.1-15.7,2.4c-16.2,0.8-32.4,1.5-48.4,4.5
			C215.4,546.1,214.6,546.4,213.6,545.4z"/>
		<path class="st4" d="M519.7,505.4c6.5,0.5,13.3-0.3,20-1.8c5.2-1.1,10.3-0.5,15.5,0.2c8.9,1.2,17.9,2.1,26.8,3.2
			c0.3,0,0.5,0,0.8,0.1c0.7,0.2,1.9,0.1,1.9,1c0,1-1.1,0.9-1.8,1c-7.1,1.5-14.1,1-21.2-0.2c-3.3-0.5-6.7-0.7-10.1-0.9
			c-10.1-0.7-20,0.4-30,1.4c-4.7,0.5-9.7,1-14.4-0.8c-0.9-0.3-2.1-0.3-2.1-1.5c0.1-1.3,1.4-1.1,2.3-1.3
			C511.4,505.1,515.4,505.7,519.7,505.4z"/>
		<path class="st6" d="M368.7,530.5c4.3-0.1,8.5-0.2,12.6,1.3c1.4,0.5,2.7,1.2,3.9,2.1c1.2,0.9,2.3,2,2,3.7
			c-0.4,1.7-1.8,2.2-3.3,2.6c-3,0.9-6,0.5-9,0.1c-6-0.8-11.9-2.2-17.6-4.6c-1.1-0.5-2.5-0.9-2.4-2.3c0.1-1.5,1.6-1.6,2.8-2
			C361.2,530.2,365,530.6,368.7,530.5z"/>
		<path class="st4" d="M548.6,497.8c1.8,0,3.6,0,5.4,0c0.4,0,0.9,0.4,1,0.7c0.2,0.7-0.5,0.8-1,1c-3.7,0.8-7.3,1.1-11.1,0.6
			c-0.7-0.1-1.8-0.2-1.7-1.2c0.1-0.9,1.2-0.9,1.9-1c1.8-0.2,3.6-0.2,5.4-0.3C548.6,497.7,548.6,497.8,548.6,497.8z"/>
		<path class="st6" d="M409.3,646.3c-0.4,0.2-0.7,0.3-1.1,0.5C408.4,646.3,408.7,646,409.3,646.3z"/>
		<path class="st3" d="M587.6,591.5c-0.6,0.3-0.9,0-1-0.5C586.9,591.2,587.2,591.4,587.6,591.5z"/>
		<path class="st4" d="M156.4,501.3c5.8-0.2,11.3-2,16.9-2.9c3.3-0.5,6.5-1.1,9.8-1.6c0.8-0.1,1.6-0.1,2.3,0c0.6,0.1,1.2,0.3,1.4,1
			c0.2,0.7-0.3,1.1-0.8,1.5c-1.2,0.8-3,1.3-2.6,3.1c0.4,1.8,2.2,2.4,3.8,2.8c5.3,1.5,10.7,2.5,16.2,1.3c0.9-0.2,2-0.4,2.7-0.9
			c3.6-3.2,8.2-3.7,12.5-5c6.7-2.1,13.5-4.1,20.2-6.1c0.2-0.1,0.4-0.1,0.5-0.2c5.7-5.2,12.9-2.9,19.4-3.9c9-1.4,17.8-0.1,26.6,1.7
			c4.4,0.9,9.2,0.8,13.7-0.3c1.2-0.3,3.1-0.3,3.1-1.8c0-1.7-2-1.7-3.2-2c-2.6-0.6-5.3-0.9-7.9-1.4c-1.5-0.2-2.9-0.5-4.4-0.8
			c-0.6-0.1-1.3-0.3-1.3-1.1c0-0.7,0.8-0.9,1.4-0.9c3.7-0.3,7.5-0.4,11.1-0.9c6.4-0.9,12.7-0.5,19.1-0.1c6.7,0.4,13.3-1.5,19.7-3.4
			c7.5-2.2,15.1-3.2,22.8-3.3c4.4,0,8.8-0.5,13.2-0.9c2.3-0.2,4.5-0.1,6.7,0.6c1.4,0.5,2,1.1,0.7,2.6c-2.1,2.5-5,2.1-7.7,2.3
			c-2,0.2-4,0.1-5.9,0.8c-0.6,0.2-1.3,0.3-1.3,1c0,0.7,0.8,0.9,1.4,1c4,0.8,8,1.7,12,2.4c1.2,0.2,2.4,0.2,3.5,1
			c-0.4,0.9-1.2,0.6-1.8,0.6c-12.6-0.7-24.7,1-36.6,5.2c-7.8,2.8-16,2.9-24.1,3.6c-13.6,1.2-27.1,2.2-40.5,4.9
			c-1.1,0.2-2.3,0.1-2.9,1.4c-0.3,0-0.7,0-1,0c-0.3,0.2-0.7,0.3-1,0.5c-0.3,0-0.7,0-1,0c-0.3,0.2-0.7,0.3-1,0.5c-0.3,0-0.7,0-1,0
			c-0.3,0.2-0.7,0.3-1,0.5c-0.9,0.2-1.7,0.4-2.6,0.5c-1.4,0-2.8,0.1-4.1,0.6c-3.2,1.2-6.3,2.4-9.5,3.6c-7.8,3-15.7,4.8-24.1,4.7
			c-6.8,0-13.5-1.1-20.2-1.6c-8.6-0.7-17.1-1.2-25.6-2.9c-6-1.2-11.9-2.4-18-2.8c-18.4-1.3-35.7,2.9-52.2,10.9
			c-7.7,3.8-15.5,7-24,8.6c-6.2,1.2-12.4,2.8-18.8,2.3c-4.8-0.4-9.5-1.9-14.3,0.4c-1.7,0.8-3.7-0.4-4.1-2.2
			c-0.5-2.1,1.5-2.1,2.9-2.5c0.7-0.2,1.4-0.2,2.1-0.2c2.9-0.1,5.4-1,7.8-2.5c2.1-1.3,4.2-2.5,6.2-3.8c0.6-0.4,1.6-0.6,1.5-1.6
			c-0.1-1-0.9-1.5-1.8-1.7c-2.1-0.7-4.1-1.4-6.2-1.8c-8.4-1.7-16.9-2.1-25.3-2.6c-2.1-0.1-4.2-1.4-6.4-0.6c-0.5,0-1,0-1.6,0
			c-0.3,0-0.7,0-1,0c-1-0.6-2.1-0.5-3.1-0.5c-1.4-0.8-2.9-0.3-4.3-0.7c-1.3-0.3-2.2-1.2-2.1-2.6c0.1-1.4,1.2-1.9,2.5-1.7
			c11,1.5,22.1,1.3,33.1,2.9c6.2,0.9,12.2,2.5,18.4,3.3c6.2,0.8,12.3-0.3,18.4-0.9c8.3-0.7,16.5-2.5,24.6-4.2
			c1.1-0.2,2.5-0.1,3.2-1.4c0.3,0,0.7,0,1,0c0.9,0.5,1.6,0.5,2.1-0.5c0.3,0,0.7,0,1,0c3.9,0.4,7.7-0.5,11.5-1c4.5-0.6,9-0.4,13.6,0
			c1.2,0,2.5,0.2,3.7-0.5C154.7,501.3,155.5,501.3,156.4,501.3z"/>
		<path class="st3" d="M32.8,509.2c2.2-0.8,4.2,0.5,6.4,0.6c8.5,0.5,17,0.9,25.3,2.6c2.1,0.4,4.2,1.1,6.2,1.8
			c0.8,0.3,1.7,0.7,1.8,1.7c0,1-0.9,1.2-1.5,1.6c-2.1,1.3-4.2,2.5-6.2,3.8c-2.4,1.5-5,2.5-7.8,2.5c-0.7,0-1.4,0.1-2.1,0.2
			c-1.4,0.4-3.4,0.4-2.9,2.5c0.5,1.8,2.5,3,4.1,2.2c4.8-2.3,9.5-0.7,14.3-0.4c6.4,0.5,12.6-1.1,18.8-2.3c8.4-1.6,16.3-4.8,24-8.6
			c16.4-8,33.8-12.1,52.2-10.9c6.1,0.4,12,1.6,18,2.8c8.5,1.6,17,2.2,25.6,2.9c6.7,0.6,13.4,1.6,20.2,1.6c8.4,0,16.4-1.8,24.1-4.7
			c3.2-1.2,6.3-2.4,9.5-3.6c1.3-0.5,2.7-0.6,4.1-0.6c-1.6,2-4.1,2.1-6.2,3c-4.1,1.7-8,3.8-11.9,5.8c-1,0.5-2.4,1.2-2.2,2.6
			c0.2,1.3,1.8,1.2,2.8,1.4c4.1,0.5,8.3,0.6,12.4,0c7.7-1.2,15.4-2.5,23.2-2.6c3.5-0.1,7.1-0.2,10.5,0.8c-0.9,0.5-1.8,0.6-2.8,0.5
			c-7.9-0.5-15.3,1.5-22.8,3.6c-9.6,2.8-19.3,4.2-29.3,4.2c-11.1-0.1-22,0.9-32.9,2.9c-8.5,1.6-17,3.4-25.7,3.5
			c-3.7,0-7.1,1.1-8.6,5.4c-0.7,2.2-3.1,2.7-5.1,3.2c-5,1.4-10.3,1.8-15.4,2.2c-5.5,0.4-11.1,1-16.6,0.6c-9.6-0.6-19.2-1.3-28.8-1.9
			c-5.8-0.4-11.4,0.1-16.9,2c-1.3,0.5-2.9,0.9-2.8,2.6c0.1,1.7,1.5,2.2,2.9,2.5c0.6,0.1,1.1,0.5,1.4,1c-0.6,0-1.2,0-1.8-0.1
			c-2.5-0.3-4.3-1.3-4.8-4c-0.4-2.3,1-4.4,3.5-5.4c1.4-0.5,2.8-0.9,4.3-1c7.7-0.3,15.4,0.5,23.1,1.3c11.1,1.1,22.2,2.8,33.4,1.3
			c5.2-0.7,10.4-1.2,15.1-3.5c1.1-0.5,2.1-1.2,2.5-2.5c1.6-4.2,2.4-4.9,6.9-4.9c15,0.1,29.4-3.4,43.8-7.1c1.6-0.4,4.1-0.8,4.1-2.6
			c0-2-2.5-2.3-4.2-2.7c-8-1.9-16.1-2.7-24.2-3.3c-6.9-0.5-13.9-0.7-20.6-2.8c-6-2-12.4-2.5-18.6-1.7c-13.3,1.9-26.5,4.6-38.6,11.2
			c-3,1.6-6.1,2.9-9.4,3.9c-8.7,2.4-17.6,3.9-26.2,6.8c-2,0.7-4.1,0.5-6.2,0c-1.8-0.4-3.6-0.8-5.3-1.2c-1.5,0.1-2.8-0.7-4.2-1
			c-2.8-1-5.4-0.3-7.8,1c-0.5,0-1,0-1.6,0c-0.3,0-0.5,0-0.8,0c-2.6-0.2-5.3-2.4-5.3-4.7c-0.1-2.8,2.1-3.2,4.2-3.7
			c1.7-0.4,3.1-1.1,4.2-2.5c1-1.3,3.7-1.7,3-3.7c-0.7-2-3.2-1.7-5-2.1c-7.4-1.4-15.1-0.1-22.2-3.1c-0.3-0.2-0.7-0.3-1-0.5
			C32.8,509.5,32.8,509.3,32.8,509.2z"/>
		<path class="st6" d="M69.3,530c1.8,0.4,3.6,0.8,5.3,1.2c2.1,0.5,4.2,0.7,6.2,0c8.6-2.9,17.5-4.4,26.2-6.8c3.3-0.9,6.4-2.2,9.4-3.9
			c12-6.6,25.2-9.3,38.6-11.2c6.2-0.9,12.5-0.3,18.6,1.7c6.7,2.2,13.6,2.4,20.6,2.8c8.1,0.6,16.3,1.4,24.2,3.3
			c1.7,0.4,4.2,0.7,4.2,2.7c0,1.8-2.5,2.2-4.1,2.6c-14.4,3.7-28.8,7.2-43.8,7.1c-4.5,0-5.4,0.7-6.9,4.9c-0.5,1.3-1.4,1.9-2.5,2.5
			c-4.8,2.3-10,2.8-15.1,3.5c-11.2,1.5-22.3-0.2-33.4-1.3c-7.7-0.7-15.4-1.5-23.1-1.3c-1.5,0.1-2.9,0.4-4.3,1
			c-2.5,1-3.9,3.2-3.5,5.4c0.5,2.6,2.4,3.7,4.8,4c0.6,0.1,1.2,0,1.8,0.1c0.3,0,0.7,0,1,0c0.2,0.2,0.3,0.4,0.5,0.5
			c-2.5,1.8-6.5,1.2-8.2-1.4c-0.9-1.3-1.7-2.7-1.8-4.3c-0.3-5.5-4-8-8.5-10C73.3,532.2,70.9,532,69.3,530z M177.5,527.9
			c10.2,0.4,19.5-1.4,28.5-4.8c1.4-0.5,3.3-1,3.2-2.9c-0.1-1.7-2-1.9-3.4-2.4c-0.9-0.3-1.8-0.5-2.8-0.7c-4.5-0.7-8.9-1.3-13.5-1.2
			c-10,0.2-20-0.1-29.9-1.5c-8.5-1.2-16.8-0.1-24.9,2.4c-2.9,0.9-6,2-8,4.7c-1.2,1.6-2.6,2.4-4.5,2.8c-6.7,1.2-13.3,2.4-20,3.7
			c-2.8,0.5-5.6,1.3-8.2,2.5c-0.7,0.3-1.5,0.7-1.5,1.7c0,0.9,0.7,1.4,1.4,1.8c1.5,0.8,3.1,1.1,4.7,1.3c5.3,0.7,10.7,1.3,16,1.9
			c10.7,1.2,21.2,3.4,32.1,2.3c4.1-0.4,8.1-0.9,11.9-2.6c3.5-1.6,4-3.2,2-6.5c-0.4-0.7-1.3-1.4-0.8-2.3c0.5-0.9,1.5-0.6,2.4-0.6
			C167.6,527.2,172.8,528.4,177.5,527.9z"/>
		<path class="st6" d="M33.9,510.2c7.1,3,14.8,1.7,22.2,3.1c1.8,0.3,4.3,0,5,2.1c0.7,2-2,2.4-3,3.7c-1,1.3-2.5,2.1-4.2,2.5
			c-2.1,0.5-4.3,0.9-4.2,3.7c0.1,2.3,2.8,4.6,5.3,4.7c0.3,0,0.5,0,0.8,0c-2.3,1.7-4.9,1-6.3-1.8c-1-2-1.8-4.1-2-6.4
			c-0.2-2.6-1.5-4.4-3.6-5.6c-2.6-1.5-5.1-2.9-7.7-4.3C35.3,511.4,34.3,511.2,33.9,510.2z"/>
		<path class="st6" d="M13,501.3c2.6,0.4,4.2,2.1,5.5,4.2c1.4,2.2,2.9,4.4,6,4.2c-1.9,2-3.7,0.9-4.8-0.6
			C17.6,506.4,15.5,503.7,13,501.3z"/>
		<path class="st6" d="M57.3,530c2.5-1.4,5-2.1,7.8-1C62.6,529.6,60,530.2,57.3,530z"/>
		<path class="st3" d="M93.8,548.8c-0.2-0.2-0.3-0.4-0.5-0.5c1.7-0.8,3.2-0.7,4.7,0.5c-1,0.5-2.1-0.1-3.1,0
			C94.5,548.8,94.2,548.8,93.8,548.8z"/>
		<path class="st6" d="M27.1,508.6c1.1,0,2.2-0.1,3.1,0.5c-1.3,0.6-2.7,1.2-4.2,0.5C26.4,509.3,26.7,509,27.1,508.6z"/>
		<path class="st6" d="M32.8,509.2c0,0.2,0,0.3,0,0.5c-0.7,0.5-1.2,0.2-1.6-0.5C31.8,509.2,32.3,509.2,32.8,509.2z"/>
		<path class="st5" d="M397.8,490.4c0.5,0,1,0,1.6,0c0.4,0.7,1,0.9,1.7,1c2.3,0.2,4.7,0.3,7,0.6c2.9,0.3,5.9,0.4,8.8,1.1
			c0.6,0.2,1.6,0.1,1.6,1c0,0.9-0.9,0.8-1.6,1c-1.5,0.4-3.1,0.6-4.6,0.6c-3.6,0-7.1,0-10.7-0.5c-1.1-0.1-2.5-0.2-2.9,1.2
			c-0.4,1.2,0.8,1.8,1.6,2.4c1.3,0.9,2.6,1.7,3.9,2.6c1.7,1.3,1.6,2.6-0.3,3.6c-0.8,0.5-1.8,0.7-2.7,1c-4.7,1.2-9.3,0.7-13.9-0.2
			c-8.9-1.6-17.7-3.4-26.9-2.8c-3.5,0.2-7.1,0.9-10.6,0.3c-2.9-0.5-5.9-0.3-8.8-0.3c-1.7,0-2.7,0.6-2.7,2.4c0.1,2.2-1.3,3.5-3,4.5
			c-3.7,2.2-7.9,3.2-12.1,3.9c-6.4,1-12.9,1.4-19.5,1.1c-1,0-2.1-0.1-3,0.5c-0.7-0.2-1.4-0.3-2.1-0.5c-2.5-1-5.2-0.5-7.7-0.7
			c-5.6-0.4-11.2-1.2-16.8-0.5c-4.2,0.5-8.4,1-12.7,0.7c-1-0.1-2.2-0.1-2.6-1.3c-0.4-1.3,0.8-1.8,1.6-2.4c2.6-1.6,5.4-2.8,8.3-3.8
			c19.8-6.3,40.1-7.7,60.7-5.7c1.8,0.2,3.6,0.2,5.4-0.3c3.6-1.1,7.1-2.2,10.7-3.2c7.4-2.1,14.8-4.5,22.4-5.7c8.6-1.4,17.3-0.9,26-1
			C395.3,490.9,396.6,491.1,397.8,490.4z M309.5,513.3c4.6,0.3,9.5-0.3,14.4-1.5c1.9-0.5,3.7-1.2,5.1-2.5c1.3-1.2,1.3-2.4-0.3-3.4
			c-1.6-1-3.3-1.5-5.1-1.8c-9-1.7-18-1.4-26.9,0.1c-3,0.5-6,1.2-8.8,2.3c-0.7,0.3-1.6,0.6-1.6,1.5c-0.1,1.1,0.8,1.5,1.6,1.8
			c0.8,0.4,1.6,0.6,2.4,0.9C296.4,512.5,302.7,513.5,309.5,513.3z"/>
		<path class="st6" d="M300.8,515.4c0.9-0.6,2-0.5,3-0.5c6.5,0.3,13-0.1,19.5-1.1c4.2-0.7,8.3-1.7,12.1-3.9c1.7-1,3-2.3,3-4.5
			c0-1.8,1-2.5,2.7-2.4c2.9,0.1,5.9-0.2,8.8,0.3c3.5,0.6,7.1-0.1,10.6-0.3c9.1-0.6,18,1.2,26.9,2.8c4.6,0.8,9.3,1.4,13.9,0.2
			c0.9-0.2,1.9-0.5,2.7-1c1.9-1,2-2.3,0.3-3.6c-1.2-0.9-2.6-1.7-3.9-2.6c-0.8-0.6-2-1.2-1.6-2.4c0.4-1.4,1.8-1.3,2.9-1.2
			c3.5,0.4,7.1,0.5,10.7,0.5c1.6,0,3.1-0.2,4.6-0.6c0.6-0.1,1.6-0.1,1.6-1c0-0.8-1-0.8-1.6-1c-2.9-0.7-5.8-0.8-8.8-1.1
			c-2.3-0.2-4.7-0.4-7-0.6c-0.7-0.1-1.3-0.3-1.7-1c10.6,0.7,21.3-0.1,31.9,1.6c2.2,0.3,4.2,0.9,6.3,1.7c0.8,0.3,1.8,0.6,1.6,1.8
			c-0.2,0.9-1.1,1-1.9,1.1c-0.6,0.1-1.2,0.1-1.8,0.1c-8.2-0.4-16.3,0.8-24.4,0.6c-0.8,0-2-0.4-2.1,0.8c-0.1,1,1.1,1.2,1.9,1.4
			c3.1,0.6,6.1,1.1,9.2,1.7c0.9,0.2,2.2,0.1,2.3,1.3c0.2,1.2-1,1.4-1.9,1.8c-7.1,3-14.3,6.2-22.3,5.5c-6.6-0.6-13-1.8-19.6-2.8
			c-9.4-1.3-18.8-1.7-28.2-0.3c-2.8,0.4-5.3,1.6-7.8,2.7c-7.4,3.4-15.1,5.5-23.3,6.2c-6.1,0.5-12.2,1.3-18.4,1.1
			C300.8,516.1,300.8,515.7,300.8,515.4z"/>
		<path class="st6" d="M397.8,490.4c-1.2,0.7-2.5,0.5-3.8,0.5c-8.7,0.1-17.3-0.4-26,1c-7.6,1.3-15,3.7-22.4,5.7
			c-3.6,1-7.2,2.1-10.7,3.2c-1.8,0.6-3.6,0.5-5.4,0.3c-20.6-2-40.9-0.6-60.7,5.7c-2.9,0.9-5.7,2.1-8.3,3.8c-0.9,0.5-2,1.1-1.6,2.4
			c0.3,1.2,1.5,1.2,2.6,1.3c4.3,0.3,8.5-0.2,12.7-0.7c5.7-0.7,11.2,0.1,16.8,0.5c2.6,0.2,5.2-0.3,7.7,0.7c-0.2,0.3-0.3,0.7-0.5,1
			c-0.9,0-1.7,0-2.6,0c-3.5-1-7.1-0.9-10.5-0.8c-7.8,0.2-15.5,1.5-23.2,2.6c-4.1,0.6-8.3,0.5-12.4,0c-1-0.1-2.6,0-2.8-1.4
			c-0.2-1.3,1.2-2,2.2-2.6c3.9-2,7.8-4.1,11.9-5.8c2.1-0.9,4.6-1,6.2-3c0.9-0.2,1.7-0.4,2.6-0.5c0.6,0.3,0.9,0,1-0.5
			c0.3,0,0.7,0,1,0c0.6,0.3,0.9,0,1-0.5c0.3,0,0.7,0,1,0c0.6,0.3,0.9,0,1-0.5c0.3,0,0.7,0,1,0c4.1,0.2,8-1.3,12-1.8
			c7.4-0.9,14.8-1.8,22.2-2c15.9-0.4,31.6-1.5,46.8-6.8c6.5-2.3,13.3-3.3,20.2-3.1c3.2,0.1,6.5-0.3,9.7-0.5
			C390.5,489.4,394.2,489.3,397.8,490.4z"/>
		<path class="st5" d="M506.2,489.8c-0.5-0.9-1.4-1-2.3-1c-6.6-0.3-13.1-1.5-19.6-2.7c-1.8-0.3-4.3-0.4-4.5-2.7
			c-0.3-2.5,2.4-2.6,4-3.4c2-1,4.3-1.4,6.6-1.5c8.1-0.4,16.1-0.1,24,2.1c1,0.3,2,0.6,2.9,1.1c1,0.5,2.2,1,2.2,2.3
			c0,1.5-1,2.3-2.2,2.9c-2.2,1-4.5,1.7-7,1.9c-1,0.1-1.9,0-2.5,1C507.3,489.8,506.8,489.8,506.2,489.8z"/>
		<path class="st3" d="M193.7,486.7c-2.9,0.2-5.6-0.5-8.4-0.6c-0.8,0-1.7-0.2-1.9-1.1c-0.3-1.1,0.6-1.5,1.4-2c2.1-1.3,4.4-2,6.8-2.4
			c8.9-1.5,17.8-1.6,26.7-0.6c0.3,0,0.7,0.1,1,0.2c0.8,0.3,2.2,0.1,2.3,1.3c0.1,1.3-1.3,1.5-2.3,1.7c-5.9,1.4-11.9,2.6-17.9,3
			C198.8,486.3,196.2,487,193.7,486.7z"/>
		<path class="st3" d="M520.8,488.8c0.4-1,1.3-1.3,2.2-1.7c2.1-0.8,4.1-1.8,5.5-3.4c3.5-4,8-4,12.6-3.7c3.2,0.2,6.4,0.7,9.5,1
			c0.8,0.1,1.5,0.3,2,1c-5.9,0.3-12-0.9-17.8,1.3c-4,1.5-8,3.2-12.1,4.8C522.2,488.5,521.5,488.6,520.8,488.8z"/>
		<path class="st3" d="M500.8,496.8c1.5-1.3,2.8-1.3,4.1-1.6c0.6-0.1,1.4-0.1,1.4,0.7c0.1,0.7-0.7,1-1.3,1.1
			C503.8,497.2,502.5,497.3,500.8,496.8z"/>
		<path class="st3" d="M554.7,482c1.6-0.6,3.3-1.1,4.7,0.5C557.9,482.5,556.2,482.9,554.7,482z"/>
		<path class="st3" d="M190.8,559.7c-1.4,1.7-3,1.1-4.7,0.5C187.6,559.4,189.2,559.8,190.8,559.7z"/>
		<path class="st3" d="M298.2,515.9c0.2-0.3,0.3-0.7,0.5-1c0.7,0.2,1.4,0.3,2.1,0.5c0,0.3,0,0.7,0,1
			C299.9,516.5,299,516.3,298.2,515.9z"/>
		<polygon class="st3" points="508.8,495.5 509,495.6 508.8,495.7 		"/>
		<path class="st6" d="M122,503.4c-0.3,0-0.7,0-1,0c-12,1.1-24,2.2-35.8,4.4c-4.6,0.9-9.4,0.6-14-0.3c-6.3-1.2-12.6-2.5-18.9-3.8
			c-1-0.2-2.7-0.2-2.6-1.6c0-1.2,1.6-1.1,2.6-1.3c13-2.2,26.1-2.2,39.2-0.8c6.1,0.7,12.1-0.2,18.1-1.4c12.4-2.5,24.5-6.6,36.9-9.2
			c9.6-2,19.4-1.1,28.8,1.9c1,0.3,2.3,0.5,2.3,1.8c0,1.2-1.2,1.6-2.1,2c-5.3,2.3-10.9,3.6-16.4,5c-0.9,0.2-1.9,0.1-2.5,1.2
			c-0.9,0-1.7,0-2.6,0c-1.3-0.6-2.6-1-3.7,0.5c-4.5-0.4-9-0.6-13.6,0c-3.9-0.9-7.8-0.6-11.5,1c-0.3,0-0.7,0-1,0
			C123.3,502.9,122.6,503,122,503.4z M123.7,498.5c0.8,0.4,1,0.6,1.2,0.6c9.4,0.5,18.8,1.6,28.3,0.5c4.9-0.6,9.8-1.5,14.2-4
			c0.8-0.4,1.9-0.9,1.8-2c-0.1-1.2-1.2-1.5-2.1-1.7c-4.3-1-8.6-1.6-13.1-1.3c-7.4,0.5-14.3,2.8-21.3,4.7
			C129.8,496.1,126.8,496.8,123.7,498.5z"/>
		<path class="st6" d="M347.8,474.7c-3,0-6.1,0-9.1,0c-1.1,0-2.4-0.1-2.8-1.4c-0.4-1.4,0.5-2.3,1.6-3c2.1-1.4,4.5-2.2,7-2.7
			c8.5-1.6,17.1-1.5,25.6-0.1c1.3,0.2,2.7,0.6,2.8,2.2c0.1,1.5-1.3,2.2-2.5,2.7c-4.8,1.6-9.8,2-14.8,2.3
			C353.1,474.9,350.4,474.7,347.8,474.7C347.8,474.7,347.8,474.7,347.8,474.7z"/>
		<path class="st6" d="M424.8,468.5c-3.6,1.8-5.9,5.5-9.6,6.8c-5.6,2-11.4,3.6-17.1,5.4c-2.2,0.7-4.3,0-6.4-0.4
			c-0.7-0.1-1.5-0.5-1.4-1.3c0.2-1.7-0.4-2.9-1.3-4.3c-0.9-1.3,0.5-1.7,1.5-2c3.5-0.9,7.2-1.3,10.8-1.6c3.8-0.2,7.6-0.9,11.2-2.1
			C416.5,467.7,420.6,467.8,424.8,468.5z"/>
		<path class="st4" d="M384.3,487.4c0.2,0.2,0.3,0.3,0.4,0.4c-0.2,0.1-0.3,0.3-0.5,0.3c-0.1,0-0.2-0.2-0.3-0.3
			C384,487.7,384.1,487.5,384.3,487.4z"/>
		<path class="st5" d="M568.3,468.5c2.9,0,5.9,0,8.8,0.1c0.6,2.2,2.7,1.4,4.1,1.9c0.8,0.3,2.2,0.2,2.2,1.4c0,1.2-1.3,1.3-2.1,1.5
			c-1.8,0.5-3.5,0.8-5.3,1.3c-0.8,0.2-2,0.2-2,1.3c0,1,1.1,1.2,1.9,1.6c1.4,0.6,2.9,1.2,4.3,1.8c0.6,0.2,1.2,0.5,1.1,1.3
			c-0.1,0.8-0.8,0.8-1.3,1.1c-2.3,0.9-4.7,0.2-6.9-0.1c-8.2-1.1-16.4-1.1-24.5-2.6c-1.8-0.3-3.6-0.7-5.2-1.5
			c-0.6-0.3-1.3-0.7-1.3-1.5c0-0.9,0.7-1.1,1.4-1.4c2.4-1.1,5-1.4,7.6-1.8c1.5-0.2,3-0.5,4.1-1.4c3.2-2.8,7.1-2.4,10.8-2.6
			C566.8,468.6,567.5,468.9,568.3,468.5z"/>
		<path class="st5" d="M710.7,494.6c-4.7,0-9.5-0.5-14.1-2.2c-1-0.4-2.3-0.8-2.3-2.1c0-1.4,1-2.1,2.2-2.6c3.4-1.4,6.8-0.9,10.2-0.4
			c3.7,0.6,7.2,1.7,10.6,3.4c0.8,0.4,1.9,0.8,1.7,2c-0.2,1.1-1.3,1.2-2.2,1.5C714.9,494.7,712.9,494.5,710.7,494.6z"/>
		<path class="st5" d="M842.8,520.1c-3.8,0.2-7.5-0.1-10.8-2c-1.3-0.8-2.9-1.6-2.6-3.5c0.3-1.8,1.8-2.3,3.3-2.9
			c2.5-0.9,5-0.1,7.4,0.2c3.7,0.5,7.3,1.5,10.7,3c1.1,0.5,2.5,0.9,2.3,2.4c-0.2,1.6-1.7,1.8-2.9,2.1
			C847.8,520.1,845.3,520.2,842.8,520.1z"/>
		<path class="st5" d="M579.1,583.8c-5.5-0.4-11.1-0.9-16.6-1.3c-1.6-0.1-3.1-0.3-4.7-0.3c-10.2,0-20.3,0.2-30.5-0.1
			c-11.7-0.3-23.4-0.6-35-2c-2.2-0.3-4.3-0.7-6.3-1.6c-3-1.2-3.6-3.7-1.4-6.2c1.7-1.9,3.9-2.8,6.2-3.7c6.6-2.3,13.5-3.2,20.4-3.7
			c8-0.6,16-0.4,23.9-0.5c17.8-0.1,34.8,3.4,51.2,10.2c0.6,0.2,1.1,0.5,1.6,0.8c3.3,2,3.3,4.8-0.1,6.8
			C585.2,583.8,582.2,583.8,579.1,583.8z"/>
		<path class="st5" d="M378,600.8c0-3.1,0.9-4.4,3.9-5.3c5.3-1.7,10.7-0.7,16-0.2c5.2,0.5,10.3,1.1,15.5,1.3
			c5.8,0.2,11.6,0.5,17.4,1.2c2,0.2,4.9,0.1,5.1,2.5c0.3,2.4-2.7,2.3-4.4,2.8c-10.3,3-20.8,4.6-31.4,6c-4.6,0.6-9.2,1.3-14,0.6
			C381.6,609,378,605.2,378,600.8z"/>
		<path class="st5" d="M658.9,545.1c7.4,0.7,14.3,1.2,20.7,3.9c1.8,0.8,4.2,1.5,4,3.8c-0.1,2.1-2.5,2.7-4.3,3.3
			c-9.6,3.4-19,3.6-27.8-2.6c-1.4-1-3.1-2-2.7-4.1c0.4-2,2-3,3.9-3.4C655.1,545.7,657.3,545.4,658.9,545.1z"/>
		<path class="st5" d="M678.5,514.4c-6.5,0.1-12-1.5-17.5-3.6c-0.5-0.2-0.9-0.4-1.4-0.7c-2.7-1.6-2.6-2.8,0-4.4
			c4.5-2.6,9.3-3.2,14.3-2.7c4.7,0.5,9.4,1.3,13.9,3.1c1.5,0.6,3,1.2,3.2,3c0.2,1.9-1.4,2.7-2.8,3.4
			C685.1,514,681.6,514.6,678.5,514.4z"/>
		<path class="st3" d="M760.7,538.8c-0.5-0.2-1-0.3-1.6-0.5C759.8,537.9,760.3,538.1,760.7,538.8z"/>
		<path class="st5" d="M288,594.7c-2.7-0.2-5.9-0.3-9-1.2c-2.5-0.7-4.6-2-5.2-4.9c-0.6-3,0.6-5.2,2.9-7c1.9-1.5,4.1-2.3,6.3-3
			c8.5-2.7,17.2-3.7,26.1-2.1c2.5,0.4,4.6,1.6,6.5,3.1c3.2,2.7,3.1,6-0.4,8.4c-4.9,3.3-10.5,4.4-16.1,5.5
			C295.6,594.2,292.1,594.7,288,594.7z"/>
		<path class="st5" d="M579,524.3c-6.6,0.2-12.6-1.4-18.6-1.7c-5.5-0.2-11.1-0.7-16.6-0.9c-5.5-0.1-10.9-0.8-16.2-2.3
			c-0.6-0.2-1.2-0.3-1.7-0.6c-0.9-0.4-1.9-0.7-2-1.8c-0.1-1.2,1-1.6,1.8-1.9c3.2-1.4,6.7-1.7,10.1-2.3c8.7-1.4,17.1,0.6,25.5,2
			c6.5,1.1,13.1,1.8,19.6,2.7c2,0.3,3.9,0.7,5.7,1.7c0.8,0.5,1.7,1.1,1.7,2.2c0,1.2-1.1,1.5-1.9,1.9
			C583.9,524.4,581.2,524.3,579,524.3z"/>
		<path class="st5" d="M329.1,546.2c12.8-0.1,23.3,1.8,33.8,3.8c2.9,0.6,5.9,0.5,8.8,0.2c10.5-1,20.7,1,30.8,3.7
			c0.6,0.2,1.2,0.4,1.7,0.7c2.3,1.4,2.3,2.9,0,4.2c-1.2,0.7-2.6,1.1-3.9,1.4c-7.3,1.6-14.7,0.8-22,0.4c-5.4-0.3-10.6,0.2-15.7,1.5
			c-16.4,4.4-32.7,3.2-49-0.4c-4.5-1-9-1.8-13.4-3.3c-1.4-0.5-2.7-1.2-3.9-2.1c-2.4-1.9-2.2-3.9,0.6-5.2c3.9-1.9,8.1-2.5,12.3-3.2
			C316.4,546.7,323.8,546.6,329.1,546.2z"/>
		<path class="st5" d="M468.1,544.1c-8.7-0.4-17.3,1-25.9,1.9c-4.7,0.5-9.5,0.7-14.2-0.6c-1.3-0.4-3-0.6-3.2-2.2
			c-0.1-1.5,1.4-2,2.6-2.6c6-2.8,12.3-4.1,18.8-5.2c13-2.2,25.9-0.9,38.7,1.9c0.9,0.2,1.9,0.5,2.7,0.8c1.2,0.4,2.8,0.7,2.7,2.4
			c-0.1,1.6-1.7,1.9-2.9,2.2c-5.7,1.5-11.5,1.6-17.3,1.5C469.5,544.1,468.8,544.1,468.1,544.1z"/>
		<path class="st5" d="M558.3,548.8c-4.4-0.1-7.9-0.3-11.2-1.4c-3.5-1.1-3.8-2.9-1.3-5.7c7.4-8.1,16.8-9.6,26.9-8.4
			c5.3,0.6,10.3,2.4,14.8,5.5c3.5,2.4,3.4,4.3-0.5,6c-4.1,1.8-8.6,2.1-13,2.5C568.5,547.9,563,548.4,558.3,548.8z"/>
		<path class="st5" d="M587.6,499.8c-7.7,0-13.9-1.5-20-4.1c-0.7-0.3-1.4-0.7-2-1.2c-1.1-1.1-1.1-2.2,0.4-2.9c1.2-0.5,2.5-1,3.7-1.1
			c7.8-0.5,15.6-1.1,23.2,0.9c1.6,0.4,3.1,1,4.6,1.8c1.1,0.6,2.3,1.2,2.3,2.6c-0.1,1.5-1.4,1.9-2.5,2.3
			C593.8,499.5,590.2,499.9,587.6,499.8z"/>
		<path class="st3" d="M125.1,502.9c3.7-1.6,7.5-2,11.5-1C132.8,502.4,129,503.3,125.1,502.9z"/>
		<path class="st3" d="M150.1,501.8c1-1.5,2.3-1.1,3.7-0.5C152.6,502,151.4,501.8,150.1,501.8z"/>
		<path class="st3" d="M122,503.4c0.6-0.4,1.3-0.5,2.1-0.5C123.6,503.9,122.9,504,122,503.4z"/>
		<path class="st3" d="M270.6,503.9c-0.2,0.5-0.5,0.8-1,0.5C269.9,504.3,270.2,504.1,270.6,503.9z"/>
		<path class="st3" d="M272.7,503.4c-0.2,0.5-0.5,0.8-1,0.5C272,503.8,272.3,503.6,272.7,503.4z"/>
		<path class="st3" d="M274.8,502.9c-0.2,0.5-0.5,0.8-1,0.5C274.1,503.2,274.4,503.1,274.8,502.9z"/>
		<path class="st5" d="M177.5,527.9c-4.8,0.5-9.9-0.7-15.1-0.5c-0.8,0-1.9-0.3-2.4,0.6c-0.5,0.9,0.4,1.6,0.8,2.3
			c2,3.3,1.5,4.9-2,6.5c-3.8,1.7-7.8,2.2-11.9,2.6c-10.8,1-21.4-1.1-32.1-2.3c-5.3-0.6-10.7-1.2-16-1.9c-1.6-0.2-3.3-0.5-4.7-1.3
			c-0.7-0.4-1.4-0.9-1.4-1.8c0-0.9,0.8-1.3,1.5-1.7c2.6-1.2,5.4-2,8.2-2.5c6.7-1.2,13.3-2.5,20-3.7c1.9-0.3,3.4-1.2,4.5-2.8
			c1.9-2.7,5-3.8,8-4.7c8.1-2.5,16.4-3.7,24.9-2.4c9.9,1.4,19.9,1.7,29.9,1.5c4.5-0.1,9,0.5,13.5,1.2c0.9,0.1,1.9,0.4,2.8,0.7
			c1.4,0.5,3.3,0.7,3.4,2.4c0.2,1.9-1.8,2.4-3.2,2.9C197,526.5,187.7,528.3,177.5,527.9z"/>
		<path class="st2" d="M309.5,513.3c-6.8,0.3-13.2-0.8-19.4-2.6c-0.8-0.2-1.7-0.5-2.4-0.9c-0.8-0.4-1.7-0.8-1.6-1.8
			c0.1-0.9,0.9-1.2,1.6-1.5c2.8-1.1,5.8-1.8,8.8-2.3c9-1.5,17.9-1.8,26.9-0.1c1.8,0.3,3.5,0.9,5.1,1.8c1.6,1,1.6,2.2,0.3,3.4
			c-1.4,1.3-3.2,2.1-5.1,2.5C319,513,314.1,513.6,309.5,513.3z"/>
		<path class="st5" d="M123.7,498.5c3.1-1.7,6.1-2.4,8.9-3.2c7-1.9,13.9-4.2,21.3-4.7c4.5-0.3,8.8,0.3,13.1,1.3
			c0.9,0.2,2,0.6,2.1,1.7c0.1,1.2-1,1.6-1.8,2c-4.4,2.4-9.3,3.4-14.2,4c-9.4,1.1-18.9,0-28.3-0.5
			C124.7,499.1,124.5,498.9,123.7,498.5z"/>
	</g>
</g>
</svg>
