<?xml version="1.0" encoding="utf-8"?>
<!-- Generator: Adobe Illustrator 19.2.1, SVG Export Plug-In . SVG Version: 6.00 Build 0)  -->
<!DOCTYPE svg PUBLIC "-//W3C//DTD SVG 1.1//EN" "http://www.w3.org/Graphics/SVG/1.1/DTD/svg11.dtd">
<svg version="1.1" xmlns="http://www.w3.org/2000/svg" xmlns:xlink="http://www.w3.org/1999/xlink" x="0px" y="0px"
	 viewBox="0 0 1170 731.2" style="enable-background:new 0 0 1170 731.2;" xml:space="preserve">
<style type="text/css">
	.st0{fill:#E5C180;}
	.st1{fill:#64E2DC;}
	.st2{fill:#949494;}
	.st3{fill:#CBCBCB;}
	.st4{fill:#9B9B9B;}
	.st5{fill:#959595;}
	.st6{fill:#757575;}
	.st7{fill:#E8E8E8;}
	.st8{fill:#FEFEFE;}
	.st9{fill:#ECECEC;}
	.st10{fill:#E9E9E9;}
	.st11{fill:#E6E6E6;}
	.st12{fill:#EFEFEF;}
	.st13{fill:#EEEEEE;}
	.st14{fill:#E4E4E4;}
	.st15{fill:#E7E7E7;}
	.st16{fill:#373737;}
	.st17{fill:#383838;}
	.st18{fill:#363636;}
	.st19{fill:#3D3D3D;}
	.st20{fill:#3A3A3A;}
	.st21{fill:#414141;}
	.st22{fill:#393939;}
	.st23{fill:#3B3B3B;}
	.st24{fill:#404040;}
	.st25{fill:#3C3C3C;}
	.st26{fill:#3F3F3F;}
	.st27{fill:#525252;}
	.st28{fill:#444444;}
	.st29{fill:#454545;}
	.st30{fill:#333333;}
	.st31{fill:#CCCCCC;}
	.st32{fill:#434343;}
	.st33{fill:#474747;}
	.st34{fill:#353535;}
	.st35{fill:#343434;}
	.st36{fill:#424242;}
	.st37{fill:#535353;}
	.st38{fill:#C9C9C9;}
	.st39{fill:#E3E3E3;}
	.st40{fill:#E5E5E5;}
	.st41{fill:#E1E1E1;}
	.st42{fill:#D9D9D9;}
	.st43{fill:#E2E2E2;}
	.st44{fill:#CDCDCD;}
	.st45{fill:#DDDDDD;}
	.st46{fill:#DEDEDE;}
	.st47{fill:#DBDBDB;}
	.st48{fill:#D3D3D3;}
	.st49{fill:#E0E0E0;}
	.st50{fill:#D2D2D2;}
</style>
<g id="vulkan_x5F_vand">
	<path class="st0" d="M955.2,153.1c-16-24-31.3-54-60.4-58.9c-18.6-3.1-43.3,3.2-52.2-12.9c-44.3,20.1-65.4,68.3-88.2,110.3
		c-29.3,54-67.1,103.6-111.7,146.6c-89,85.8-203.4,143.5-322.4,182.3S-1.7,448.9,2.3,570.6C3.3,601,0,731.2,0,731.2l1170.2-2.4
		V578.7V425.4v-58.8c0,0-2.1-29-17.4-43c-30.2-27.7-64.6-50.7-97.7-75C1017.8,221.2,980.8,191.6,955.2,153.1z"/>
</g>
<g id="vand">
	<path class="st1" d="M370.3,426.1c25.8,0,51.7,0,77.5-1c49.5-1.9,98.9-7.3,147.6-16.4c-13.8,39.9-43,73-76.7,98.4
		c-33.7,25.4-72,44-110,62.3c-37.9,18.3-75.9,36.6-115.3,51.3c-90.2,33.4-187.8,46.7-283.7,38.8c-11.2-0.9-14.6-207.8,2.3-225.3
		c17.1-17.8,65.7-8.2,87.3-8.2c42.3,0,84.5,0,126.8,0C274.2,426.1,322.2,426.1,370.3,426.1z"/>
</g>
<g id="GUIDE">
	<g>
		<path class="st2" d="M304.6,564.3c-0.4-3.4,4-7.9,7.5-7.5c0.9,0.3,1.8,0.2,2.7,0.2c89,0,178,0,267,0c1.4,0,2.9,0.3,3.8-1.1
			c1.6-0.3,2.9-1.3,4-2.5c0.1-0.2,0.3-0.4,0.5-0.5c1.1-1.5,2.9-2.4,3.8-4c0.2-0.2,0.4-0.3,0.6-0.5c1.8-1.5,4-2.3,5.8-3.8
			c1-0.9,2.3-0.7,3.3,0c1.1,0.7,2.3,0.9,3.4,1.5c1,0.8,2.2,1.5,3.4,2.2c1.4,0.8,2.5,2.1,3.9,3c3.1,1.9,4.3,1.8,6.7-1.1
			c0.5-0.6,0.9-1.2,1.5-1.7c0.2-0.2,0.4-0.4,0.6-0.6c1.4-1.6,3.5-1.8,5.2-2.9c0.9-0.6,1.8,0,2.2,1c0.2,0.5,0.3,1.1,0.3,1.7
			c0.1,5.7,0.2,11.3,0,17c-0.1,2.5-0.7,3.2-3.1,3.2c-10.1,0.2-20.3,0.1-30.4,0c-0.7,0-1.5-0.1-2.1-0.5c-0.7,10.8-1,21.5-0.5,32.2
			c-0.3,3.8-3.3,6.7-7,7c-0.9-0.3-1.8-0.2-2.7-0.2c-90.1,0-180.2,0-270.4,0c-0.9,0-1.8-0.2-2.7,0.2c-3.9-0.3-6.7-3.4-7-7.5
			c0.4-3.2,0.2-6.5,0.2-9.7C304.7,581.1,305,572.7,304.6,564.3z"/>
		<path class="st3" d="M590.5,553.7c-0.9,1.4-1.2,3.5-3.6,3.1c-0.8,0.2-1.7,0.4-2.4-0.1c0-8.9,0.1-17.8,0-26.7
			c0-2.3,0.7-3.2,3.1-3.2c14.6,0.1,29.2,0.1,43.7,0c2.4,0,3.2,0.8,3.2,3.2c-0.1,14.6-0.1,29.2,0,43.7c0,2.4-0.9,3.2-3.2,3.1
			c-12.2-0.1-24.5,0-36.7,0c-0.5-3.3-0.5-6.6,0-10c10.5,0,21,0,31.5-0.1c3.4,0,3.5-0.1,3.5-3.5c0-5.2,0-10.3,0-15.5
			c0-0.6,0.2-1.5-0.4-1.9c-0.8-0.5-1.3,0.4-1.9,0.8c-1.5,0.9-2.4,2.6-4.2,3.1c-0.6-0.9-0.1-1.6,0.4-2.2c0.6-0.7,1.2-1.4,1.9-2
			c3.8-2.7,3.1-6.7,2.7-10.5c-0.1-1.3-1.3-1.9-2.5-2c-1.4-0.2-2.8-0.1-4.2-0.1c-8.7,0-17.5,0-26.2,0c-3.4,0-4.2,0.8-4.3,4.3
			C590.7,542.8,590.9,548.3,590.5,553.7z"/>
		<path class="st3" d="M554.5,265.7c0-8.9,0.1-17.8,0-26.7c0-2.3,0.7-3.2,3.1-3.2c14.6,0.1,29.2,0.1,43.7,0c2.4,0,3.2,0.8,3.2,3.2
			c-0.1,14.6-0.1,29.2,0,43.7c0,2.4-0.9,3.2-3.2,3.1c-8.9-0.1-17.8,0-26.7,0c-0.8-0.4-0.8-1.2-0.8-1.9c0-2.6-0.2-5.2,0.1-7.8
			c0.9-1.6,2.5-1.4,3.9-1.4c5.3-0.1,10.6,0,15.9,0c3.8,0,4.5-0.7,4.5-4.5c0-3.3,0.1-6.6,0-9.9c-0.1-2.4-0.7-2.7-2.7-1.5
			c-0.9,0.6-1.7,1.1-2.7,0.2c-0.7-1.8,0.7-2.8,1.7-3.5c3.4-2.4,4-5.7,3.7-9.5c-0.2-2.9-1-3.8-4-3.8c-7.6-0.1-15.1,0-22.7,0
			c-2.5,0-5,0-7.5,0c-2,0.1-3.2,1-3.2,3c-0.2,5.6,0.1,11.1-0.2,16.7c0,0.3,0.2,0.6,0.4,0.9c0.2,1.5-0.6,2.6-1.6,3.6
			C557.7,266.4,556,267.1,554.5,265.7z"/>
		<path class="st3" d="M934.5,318.7c0-8.6,0.1-17.2,0-25.7c0-2.3,0.7-3.2,3.1-3.2c14.6,0.1,29.2,0.1,43.7,0c2.4,0,3.2,0.7,3.2,3.2
			c-0.1,14.6-0.1,29.2,0,43.7c0,2.4-0.8,3.2-3.2,3.2c-8.9-0.1-17.8,0-26.7,0c-1-0.4-0.8-1.3-0.8-2.1c0-2.1,0.1-4.2,0-6.2
			c-0.1-2.1,1-2.8,2.9-2.8c5.2-0.1,10.3,0,15.5,0c1,0,2,0,3,0c2-0.1,3.1-1.1,3.1-3.1c0.1-3.8,0.1-7.7,0-11.5c-0.1-2-0.8-2.3-2.5-1.4
			c-0.9,0.5-1.7,1.2-2.7,0.3c-0.6-1-0.1-1.7,0.5-2.5c0.6-0.7,1.2-1.4,1.9-2c3.7-2.7,3-6.6,2.6-10.3c-0.2-1.6-1.5-2.1-3-2.1
			c-2.2-0.1-4.5,0-6.7,0c-7.7,0-15.3,0-23,0c-3.8,0-4.5,0.8-4.6,4.5c-0.1,4.8,0.2,9.7-0.2,14.5c-0.1,0.6,0.2,1.1,0.4,1.7
			c0.1,1.2-0.6,2-1.5,2.6C937.7,319.4,936,320.1,934.5,318.7z"/>
		<path class="st3" d="M409.4,132.8c-8.9,0-17.8-0.1-26.7,0c-2.4,0-3.2-0.8-3.2-3.2c0.1-14.6,0.1-29.2,0-43.7c0-2.4,0.8-3.2,3.2-3.2
			c14.6,0.1,29.2,0.1,43.7,0c2.4,0,3.2,0.9,3.1,3.2c-0.1,8.6,0,17.2,0,25.7c-1.3,1.5-3,0.6-4.5,0.8c-1.1-0.1-1.2-0.9-1.5-1.7
			c-0.3-0.9-0.2-1.8-0.2-2.7c-0.1-3.8-0.1-3.8-3.2-2.1c-1,0.6-1.9,0.6-2.4-0.6c0.1-2,1.8-2.9,3-4.1c2.3-2.3,3.5-7.4,2.3-10.4
			c-0.6-1.5-1.9-1.8-3.3-1.8c-3.2-0.1-6.5,0-9.7,0c-6.5,0-13,0-19.5,0c-4,0-4.7,0.7-4.7,4.6c-0.1,4.7,0.2,9.5-0.2,14.2
			c-0.1,0.8,0.4,1.4,0.6,2.1c-0.2,2.2-0.5,4.4-0.4,6.7c0.1,3.9,0.9,4.8,4.9,4.8c4.9,0,9.8,0,14.7,0c1,0,2,0,3,0.2
			c0.9,0.1,1.7,0.5,1.8,1.5c0.2,3.1,0.5,6.1-0.2,9.2C409.9,132.6,409.6,132.7,409.4,132.8z"/>
		<path class="st3" d="M1024.5,566.7c0-7.2,0.1-14.5,0-21.7c0-2.3,0.7-3.2,3.1-3.2c14.6,0.1,29.2,0.1,43.7,0c2.4,0,3.2,0.7,3.2,3.2
			c-0.1,14.6-0.1,29.2,0,43.7c0,2.4-0.8,3.2-3.2,3.2c-8.9-0.1-17.8,0-26.7,0c-1-0.4-0.8-1.3-0.8-2.1c0-1.9,0-3.8,0-5.7
			c0-2.9,0.4-3.3,3.4-3.3c5.3-0.1,10.7,0,16,0c0.8,0,1.7,0,2.5-0.1c1.5-0.2,2.5-1.1,2.6-2.6c0.2-4.1,0.2-8.2,0-12.2
			c-0.1-1.6-0.9-2.1-2.3-1.2c-0.9,0.6-1.8,1.4-2.9,0.4c-0.8-1.8,0.6-2.8,1.6-3.5c3.4-2.5,4-5.9,3.7-9.7c-0.2-2.6-1-3.5-3.5-3.6
			c-10.1-0.1-20.3-0.1-30.4,0c-2.5,0-3.4,1-3.5,3.6c-0.1,3.9,0,7.8-0.1,11.7c0,1.4,0,2.9-1.2,3.9
			C1027.8,567.5,1026,568.1,1024.5,566.7z"/>
		<path class="st3" d="M204.5,441.7c0-8.9,0.1-17.8,0-26.7c0-2.3,0.7-3.2,3.1-3.2c14.6,0.1,29.2,0.1,43.7,0c2.4,0,3.2,0.8,3.2,3.2
			c-0.1,14.6-0.1,29.2,0,43.7c0,2.4-0.9,3.2-3.2,3.1c-5.6-0.1-11.2,0-16.7,0c-0.9-0.5-0.8-1.4-0.8-2.2c0-2.5-0.1-5,0.1-7.5
			c0.7-1.5,2.1-1.5,3.4-1.5c2.5-0.1,5,0,7.5-0.1c2.7-0.1,3.5-0.8,3.5-3.4c0.1-3.7,0.1-7.5,0-11.2c-0.1-2.2-0.7-2.5-2.6-1.3
			c-1,0.6-1.8,1.3-2.8,0.1c-0.5-1.8,0.8-2.7,1.9-3.5c3.7-2.5,3.8-6.2,3.5-10c-0.1-2-1.2-3-3.2-3.1c-1.8-0.1-3.7,0-5.5,0
			c-8.1,0-16.2,0-24.2,0c-3.8,0-4.5,0.8-4.6,4.5c-0.1,4.8,0.2,9.7-0.2,14.5c0,0.6,0.2,1.1,0.4,1.7c0.2,1.5-0.6,2.6-1.6,3.6
			C207.7,442.4,206,443.1,204.5,441.7z"/>
		<path class="st3" d="M884.5,456.7c0-8.9,0.1-17.8,0-26.7c0-2.3,0.7-3.2,3.1-3.2c14.6,0.1,29.2,0.1,43.7,0c2.4,0,3.2,0.8,3.2,3.2
			c-0.1,14.6-0.1,29.2,0,43.7c0,2.4-0.9,3.2-3.2,3.1c-5.6-0.1-11.2,0-16.7,0c-0.9-0.5-0.8-1.4-0.8-2.2c0-2.5-0.1-5,0.1-7.5
			c0.7-1.5,2.1-1.5,3.4-1.5c2.5-0.1,5,0,7.5-0.1c2.7-0.1,3.5-0.8,3.5-3.4c0.1-3.7,0.1-7.5,0-11.2c-0.1-2.2-0.7-2.5-2.6-1.3
			c-1,0.6-1.8,1.3-2.8,0.1c-0.5-1.8,0.8-2.7,1.9-3.5c3.7-2.5,3.8-6.2,3.5-10c-0.1-2-1.2-3-3.2-3.1c-1.8-0.1-3.7,0-5.5,0
			c-8.1,0-16.2,0-24.2,0c-3.8,0-4.5,0.8-4.6,4.5c-0.1,4.8,0.2,9.7-0.2,14.5c0,0.6,0.2,1.1,0.4,1.7c0.2,1.5-0.6,2.6-1.6,3.6
			C887.7,457.4,886,458.1,884.5,456.7z"/>
		<path class="st2" d="M409.4,132.8c0-2.2-0.1-4.5,0.1-6.7c0.2-2.5-0.7-3.4-3.2-3.3c-6.2,0.2-12.3,0.1-18.5,0
			c-3.1,0-3.4-0.2-3.2-3.2c0.2-3.3-0.9-6.7,0.9-9.8c0-0.1,0-0.2,0.1-0.3c0.7-1.8,2.3-2.9,3.4-4.5c0.2-0.2,0.4-0.3,0.6-0.5
			c1.8-1.5,4.1-2.3,5.8-3.8c1-0.9,2.3-0.7,3.3,0c1.1,0.7,2.3,0.9,3.4,1.5c1,0.9,2.2,1.5,3.4,2.2c1.5,0.9,2.6,2.3,4.1,3.2
			c2.6,1.5,3.4,1.5,5.8-0.3c0.7-0.6,1.5-1.1,2.4-1.3c0.1,0,0.2,0,0.3,0c1.9-0.5,2.8-2.4,4.4-3.3c0.5-0.3,1-1.1,1.7-0.6
			c0.6,0.3,0.4,1,0.4,1.6c0,2.7,0,5.5,0.1,8.2c-1.3,0.7-2.7,0.1-3.9,0.3c29.4,0,58.9,0,88.5,0c0.9,0,1.8,0.2,2.7-0.2
			c4.2,0.3,7.2,3.1,7.5,7c-0.4,6-0.1,11.9-0.1,17.9c0,6-0.2,11.9,0.1,17.9c-0.3,3.8-3.3,6.7-7,7c-0.7-0.3-1.5-0.2-2.2-0.2
			c-30.5,0-60.9,0-91.4,0c-0.7,0-1.5-0.1-2.2,0.2c-4-0.3-7-3.6-7.1-7.9C409.4,146.8,409.4,139.8,409.4,132.8z"/>
		<path class="st2" d="M973,312.8c1.9-0.6,2.9-2.4,4.5-3.4c1.3-0.9,2-0.9,2,0.9c0,5.8,0,11.6,0,17.4c0,1.9-1.1,2.1-2.6,2.1
			c-6.4,0-12.8,0.1-19.2,0c-2.3,0-3.4,0.6-3.2,3.1c0.2,2.3,0.1,4.6,0.1,7c0,7.1,0,14.3-0.1,21.4c0,4-3.2,7.2-7.1,7.5
			c-0.7-0.3-1.5-0.2-2.2-0.2c-30.5,0-60.9,0-91.4,0c-0.7,0-1.5-0.1-2.2,0.2c-3.9-0.3-6.7-3.4-7-7.5c0.4-3.2,0.2-6.5,0.2-9.7
			c0-8.4,0.2-16.8-0.1-25.1c-0.4-3.4,4-7.9,7.5-7.5c0.9,0.3,1.8,0.2,2.7,0.2c29.4,0,58.7,0,88,0c-1-0.2-2.3,0.3-3.4-0.3
			c0.3-0.7,0.7-1.3,1-2c0-0.1,0-0.2,0.1-0.3c0.7-1.8,2.3-2.9,3.4-4.5c0.2-0.2,0.4-0.3,0.6-0.5c1.8-1.5,4.1-2.3,5.8-3.8
			c1-0.9,2.3-0.7,3.3,0c1.1,0.7,2.3,0.9,3.4,1.5c1,0.9,2.2,1.5,3.4,2.2c1.5,0.9,2.6,2.3,4.1,3.2c2.6,1.5,3.4,1.5,5.8-0.3
			c0.7-0.6,1.5-1.1,2.4-1.3C972.8,312.7,972.9,312.7,973,312.8z"/>
		<path class="st2" d="M559.4,265.7c0-1.1,0.5-2.1,1-3c0-0.1,0-0.2,0.1-0.3c0.7-1.8,2.3-2.9,3.4-4.5c0.2-0.2,0.4-0.3,0.6-0.5
			c1.8-1.5,4.1-2.3,5.8-3.8c1-0.9,2.3-0.7,3.3,0c1.1,0.7,2.3,0.9,3.4,1.5c1,0.9,2.2,1.5,3.4,2.2c1.5,0.9,2.6,2.3,4.1,3.2
			c2.6,1.5,3.4,1.5,5.8-0.3c0.7-0.6,1.5-1.1,2.4-1.3c0.1,0,0.2,0,0.3,0c2-0.7,3.1-2.5,4.7-3.6c1.2-0.7,1.7-0.5,1.7,0.8
			c0,6,0,12,0,18c0,1.8-1.4,1.8-2.7,1.8c-5.6,0-11.2,0-16.7,0c-1.8,0-3.7,0-5.5,0.1c-0.6,0-0.3,0.5-0.3,0.7c0,10.3,0,20.6,0,31
			c0,0.4,0,0.8,0.2,1.2c-0.3,3.8-3.3,6.7-7,7c-0.7-0.3-1.5-0.2-2.2-0.2c-30.5,0-60.9,0-91.4,0c-0.7,0-1.5-0.1-2.2,0.2
			c-3.9-0.3-6.7-3.4-7-7.5c0.4-3.2,0.2-6.5,0.2-9.7c0-8.4,0.2-16.8-0.1-25.1c-0.4-3.4,4-7.9,7.5-7.5c0.9,0.3,1.8,0.2,2.7,0.2
			c29.3,0,58.7,0,87.8,0C561.7,265.8,560.5,266.3,559.4,265.7z"/>
		<path class="st3" d="M764.5,211.7c0-12.7,0-25.5,0-38.2c0-3.6,0.1-3.7,3.6-3.7c14.3,0,28.6,0,43,0c3.3,0,3.5,0.1,3.5,3.3
			c0,14.6,0,29.1,0,43.7c-1.1,0.4-1.4-0.5-1.9-1.1c-1.7-2.1-3.7-3.5-6.5-3.2c-12.8,0-25.6,0-38.3,0
			C766.6,212.5,765.3,212.8,764.5,211.7z"/>
		<path class="st2" d="M1063,564.8c1.9-0.6,2.9-2.4,4.5-3.4c1.3-0.9,2-0.9,2,0.9c0,5.8,0,11.6,0,17.4c0,1.9-1.1,2.1-2.6,2.1
			c-6.4,0-12.8,0.1-19.2,0c-2.3,0-3.4,0.6-3.2,3.1c0.2,2.3,0.1,4.6,0.1,7c0,5.9,0,11.8-0.1,17.6c-0.1,3.8-3.3,7-7.1,7.3
			c-0.7-0.3-1.5-0.2-2.2-0.2c-30.5,0-60.9,0-91.4,0c-0.7,0-1.5-0.1-2.2,0.2c-3.9-0.3-6.7-3.4-7-7.5c0.4-3.2,0.2-6.5,0.2-9.7
			c0-8.4,0.2-16.8-0.1-25.1c-0.4-3.4,4-7.9,7.5-7.5c0.9,0.3,1.8,0.2,2.7,0.2c27.4,0,54.7,0,82.1,0.1c1.9,0,3.7-1,5.6-0.3
			c0.2,0.1,0.3,0.1,0.4,0.2c0,0-0.1-0.1-0.1-0.1c-0.6-1.4,0.5-2.1,1.2-3c1.8-1.9,4.5-2.7,6.5-4.4c0.9-0.8,2.1-0.5,3,0.1
			c1.1,0.7,2.3,0.9,3.4,1.4c1.1,0.9,2.2,1.6,3.4,2.2c1.5,0.9,2.6,2.3,4.1,3.2c2.7,1.6,3.5,1.6,5.9-0.3c0.7-0.5,1.4-1.1,2.3-1.3
			C1062.8,564.7,1062.9,564.7,1063,564.8z"/>
		<path class="st2" d="M243,434.8c2-0.7,3.1-2.5,4.7-3.6c1.2-0.7,1.7-0.6,1.7,0.8c0,6,0,12,0,18c0,1.6-1.2,1.8-2.4,1.8
			c-4.2,0-8.3,0-12.5,0.1c-0.6,0-0.3,0.5-0.3,0.7c0,10.3,0,20.6,0,31c0,0.4,0,0.8,0.2,1.2c-0.3,3.8-3.3,6.7-7,7
			c-0.7-0.3-1.5-0.2-2.2-0.2c-30.5,0-60.9,0-91.4,0c-0.7,0-1.5-0.1-2.2,0.2c-3.9-0.3-6.7-3.4-7-7.5c0.4-3.2,0.2-6.5,0.2-9.7
			c0-8.4,0.2-16.8-0.1-25.1c-0.4-3.4,4-7.9,7.5-7.5c0.9,0.3,1.8,0.2,2.7,0.2c29.5,0,59.1,0,88.6,0c-3.8,0-7.7,0-11.5,0
			c-0.8,0-1.7,0.3-2.4-0.3c0-1.1,0.5-2.1,1-3c0-0.1,0-0.2,0.1-0.3c0.7-1.8,2.3-2.9,3.4-4.5c0.2-0.2,0.4-0.3,0.6-0.5
			c1.8-1.5,4.1-2.3,5.8-3.8c1-0.9,2.3-0.7,3.3,0c1.1,0.7,2.3,0.9,3.4,1.5c1,0.9,2.2,1.5,3.4,2.2c1.5,0.9,2.6,2.3,4.1,3.2
			c2.6,1.5,3.4,1.5,5.8-0.3c0.7-0.6,1.5-1.1,2.4-1.3C242.8,434.7,242.9,434.7,243,434.8z"/>
		<path class="st2" d="M889.4,456.7c0-1.1,0.5-2.1,1-3c0-0.1,0-0.2,0.1-0.3c0.7-1.8,2.3-2.9,3.4-4.5c0.2-0.2,0.4-0.3,0.6-0.5
			c1.8-1.5,4.1-2.3,5.8-3.8c1-0.9,2.3-0.7,3.3,0c1.1,0.7,2.3,0.9,3.4,1.5c1,0.9,2.2,1.5,3.4,2.2c1.5,0.9,2.6,2.3,4.1,3.2
			c2.6,1.5,3.4,1.5,5.8-0.3c0.7-0.6,1.5-1.1,2.4-1.3c0.1,0,0.2,0,0.3,0c2-0.7,3.1-2.5,4.7-3.6c1.2-0.7,1.7-0.6,1.7,0.8
			c0,6,0,12,0,18c0,1.6-1.2,1.8-2.4,1.8c-4.2,0-8.3,0-12.5,0.1c-0.6,0-0.3,0.5-0.3,0.7c0,10.3,0,20.6,0,31c0,0.4,0,0.8,0.2,1.2
			c-0.3,3.8-3.3,6.7-7,7c-0.7-0.3-1.5-0.2-2.2-0.2c-30.5,0-60.9,0-91.4,0c-0.7,0-1.5-0.1-2.2,0.2c-3.9-0.3-6.7-3.4-7-7.5
			c0.4-3.2,0.2-6.5,0.2-9.7c0-8.4,0.2-16.8-0.1-25.1c-0.4-3.4,4-7.9,7.5-7.5c0.9,0.3,1.8,0.2,2.7,0.2c29.5,0,59,0,88.4,0
			c-3.8,0-7.6,0-11.4,0C891,457,890.2,457.3,889.4,456.7z"/>
		<path class="st3" d="M554.5,411.7c0-8.2,0-16.5,0-24.7c0-3.1,0.2-3.2,3.3-3.2c14.5,0,28.9,0,43.4,0c3.1,0,3.3,0.2,3.3,3.2
			c0,8.2,0,16.5,0,24.7c-1.3,1.5-3,0.6-4.5,0.8c-1.7-0.4-1.5-1.9-1.7-3.2c-0.1-0.6,0-1.2,0-1.7c-0.1-0.7,0.2-1.6-0.7-1.9
			c-0.7-0.3-1.2,0.4-1.7,0.8c-1.1,0.9-2.2,1.8-3.2-0.1c0.2-2,1.8-2.9,3-4.1c2.3-2.3,3.5-7.4,2.3-10.4c-0.7-1.6-2.1-1.8-3.5-1.8
			c-3.6-0.1-7.2,0-10.7,0c-6.2,0-12.5,0-18.7,0c-3.3,0-4.1,0.8-4.2,4.2c-0.1,5.1,0.2,10.2-0.2,15.2c0,0.5,0.3,0.9,0.4,1.4
			c0,0.7-0.3,1.2-1,1.5C558.1,412.4,556.2,413.2,554.5,411.7z"/>
		<path class="st4" d="M434.6,419.3c0.1-4.1,3.4-7.4,7.5-7.5c0.9,0.3,1.8,0.2,2.7,0.2c37.6,0,75.2,0.3,112.7-0.1
			c12.1-0.1,24.3-0.6,36.4-0.3c23.4,0.7,46.8,0.1,70.2,0.4c0.9,0,1.8,0.2,2.7-0.2c4,0.1,7.2,3.1,7.5,7c-0.4,2.5-0.2,5-0.2,7.4
			c0,8.6,0,17.1,0,25.7c0,0.9-0.2,1.8,0.2,2.7c-0.3,3.8-3.3,6.7-7,7c-0.9-0.3-1.8-0.2-2.7-0.2c-73.5,0-146.9,0-220.4,0
			c-0.9,0-1.8-0.2-2.7,0.2c-3.9-0.3-6.9-3.5-7-7.5c0.4-2.3,0.2-4.6,0.2-6.9c0-8.4,0-16.8,0-25.2
			C434.7,421.2,434.9,420.2,434.6,419.3z"/>
		<path class="st5" d="M806.9,211.8c3.8-0.3,5.5,2.6,7.5,5c0,0.7,0,1.4,0,2c-0.4,2.3-0.2,4.6-0.2,7c0,8.7,0,17.4,0,26.2
			c0,0.9-0.2,1.8,0.2,2.7c-0.3,3.8-3.3,6.7-7,7c-0.7-0.3-1.5-0.2-2.2-0.2c-30.5,0-60.9,0-91.4,0c-0.7,0-1.5-0.1-2.2,0.2
			c-3.9-0.3-6.9-3.5-7-7.5c0.4-3.1,0.2-6.1,0.2-9.2c0-8.5,0.2-17.1-0.1-25.6c-0.4-3.4,4-7.9,7.5-7.5c0.7,0.3,1.5,0.2,2.2,0.2
			c30.1,0,60.3,0,90.4,0C805.5,212,806.2,212.1,806.9,211.8z"/>
		<path class="st6" d="M311.6,606.7c1-0.5,2.1-0.4,3.2-0.4c89.8,0,179.6,0,269.5,0c1.1,0,2.2-0.1,3.2,0.4c-1.2,0-2.3,0.1-3.5,0.1
			c-89.6,0-179.2,0-268.8,0C313.9,606.7,312.8,606.7,311.6,606.7z"/>
		<path class="st6" d="M584.5,556.7c0.8,0,1.6,0.1,2.4,0.1c-1,0.6-2.1,0.4-3.2,0.4c-89.5,0-179,0-268.5,0c-1.1,0-2.2,0.1-3.2-0.4
			c1.4,0,2.8-0.1,4.2-0.1c88,0,176.1,0,264.1,0C581.8,556.8,583.2,556.7,584.5,556.7z"/>
		<path class="st6" d="M441.6,461.7c1-0.6,2.1-0.4,3.2-0.4c73.2,0,146.3,0,219.5,0c1.1,0,2.2-0.1,3.2,0.4c-1.1,0-2.2,0.1-3.2,0.1
			c-73.1,0-146.2,0-219.3,0C443.7,461.7,442.7,461.7,441.6,461.7z"/>
		<path class="st6" d="M666.9,411.8c-1,0.6-2.1,0.4-3.2,0.4c-72.8,0-145.6,0-218.5,0c-1.1,0-2.2,0.1-3.2-0.4c11,0,22-0.1,33-0.1
			c25.3,0,50.6,0,75.9,0c1.2,0,2.3,0,3.5-0.1c1.8,0,3.7,0,5.5,0c1.8-1,3.8-1.2,5.8-1.2c7,0.1,14-0.3,21,0.5c0.5,0,1,0,1.5,0
			c2.7-0.2,5.4-0.6,8.2-0.4c1.2,0.1,2.3,0.2,3.2,1.2c1.7,0,3.3,0,5,0c17.1,0,34.3,0,51.4,0.1C659.6,411.8,663.2,411.8,666.9,411.8z"
			/>
		<path class="st6" d="M889.4,456.7c6,0,12,0,18.6,0c-1.5,0.8-2.4,0.5-3.3,0.5c-29.7,0-59.3,0-89,0c-1.2,0-2.5,0.2-3.7-0.4
			c22.2,0,44.4-0.1,66.6-0.1c1.9,0,3.8,0,5.7-0.1C886.1,456.7,887.8,456.7,889.4,456.7z"/>
		<path class="st6" d="M209.4,441.7c6,0,12,0,18.6,0c-1.5,0.8-2.4,0.5-3.3,0.5c-29.7,0-59.3,0-89,0c-1.2,0-2.5,0.2-3.7-0.4
			c22,0,44.1-0.1,66.1-0.1c2.1,0,4.2,0,6.2-0.1C206.1,441.7,207.8,441.7,209.4,441.7z"/>
		<path class="st6" d="M939.4,318.7c2.6,0,5.3,0,8.6,0c-1.5,0.8-2.4,0.5-3.3,0.5c-29.6,0-59.3,0-88.9,0c-1.2,0-2.5,0.2-3.7-0.4
			c19.2,0,38.4,0,57.7-0.1c8.2,0,16.5-0.1,24.7-0.1C936.1,318.7,937.8,318.7,939.4,318.7z"/>
		<path class="st6" d="M559.4,265.7c2.6,0,5.3,0,8.6,0c-1.5,0.8-2.4,0.5-3.3,0.5c-29.7,0-59.3,0-89,0c-1.2,0-2.5,0.2-3.7-0.4
			c19.1,0,38.1,0,57.2-0.1c8.4,0,16.8-0.1,25.2-0.1C556.1,265.7,557.8,265.7,559.4,265.7z"/>
		<path class="st6" d="M511.9,111.8c-0.8,0.5-1.8,0.4-2.7,0.4c-30.3,0-60.6,0-91,0c-0.5,0-1.1,0.2-2-0.5c3,0,5.6,0,8.3,0
			c1.7,0,3.3,0,5,0c12.6,0,25.3,0.1,37.9,0.1C482.3,111.8,497.1,111.8,511.9,111.8z"/>
		<path class="st6" d="M1032.9,566.7c1.5,0,3,0,5.1,0c-1.5,0.8-2.4,0.5-3.3,0.5c-29.7,0-59.3,0-89,0c-1.2,0-2.5,0.2-3.7-0.4
			c19.2,0,38.4,0,57.7-0.1c8.2,0,16.5-0.1,24.7-0.1c1.7,0,3.4,0,5.1,0C1030.7,565.6,1031.8,565.3,1032.9,566.7z"/>
		<path class="st6" d="M711.6,261.7c1-0.6,2.1-0.4,3.2-0.4c29.8,0,59.6,0,89.5,0c1.1,0,2.2-0.1,3.2,0.4c-22.5,0-44.9,0.1-67.4,0.1
			C730.5,261.7,721.1,261.7,711.6,261.7z"/>
		<path class="st6" d="M416.6,161.7c1-0.5,2.1-0.4,3.2-0.4c29.8,0,59.6,0,89.5,0c1.1,0,2.2-0.1,3.2,0.4c-20.6,0-41.3,0.1-61.9,0.1
			C439.2,161.7,427.9,161.7,416.6,161.7z"/>
		<path class="st6" d="M941.6,616.7c1-0.6,2.1-0.4,3.2-0.4c29.8,0,59.6,0,89.5,0c1.1,0,2.2-0.1,3.2,0.4c-20.6,0-41.3,0.1-61.9,0.1
			C964.2,616.7,952.9,616.7,941.6,616.7z"/>
		<path class="st6" d="M471.6,315.7c1-0.5,2.1-0.4,3.2-0.4c29.8,0,59.6,0,89.5,0c1.1,0,2.2-0.1,3.2,0.4c-18.9,0-37.8,0.1-56.6,0.1
			C497.7,315.7,484.6,315.7,471.6,315.7z"/>
		<path class="st6" d="M851.6,368.7c1-0.5,2.1-0.4,3.2-0.4c29.8,0,59.6,0,89.5,0c1.1,0,2.2-0.1,3.2,0.4c-19.5,0-39.1,0.1-58.6,0.1
			C876.4,368.7,864,368.7,851.6,368.7z"/>
		<path class="st6" d="M811.6,506.7c1-0.5,2.1-0.4,3.2-0.4c29.8,0,59.6,0,89.5,0c1.1,0,2.2-0.1,3.2,0.4c-19.7,0-39.4,0.1-59.1,0.1
			C836,506.7,823.8,506.7,811.6,506.7z"/>
		<path class="st6" d="M131.6,491.7c1-0.5,2.1-0.4,3.2-0.4c29.8,0,59.6,0,89.5,0c1.1,0,2.2-0.1,3.2,0.4c-20.5,0-40.9,0.1-61.4,0.1
			C154.5,491.7,143.1,491.7,131.6,491.7z"/>
		<path class="st6" d="M806.9,211.8c-1,0.6-2.1,0.4-3.2,0.4c-29.5,0-59,0-88.5,0c-1.1,0-2.2,0.1-3.2-0.4c15.9,0,31.8,0,47.6-0.1
			c1.6,0,3.2,0,4.7-0.1C778.6,211.7,792.8,211.8,806.9,211.8z"/>
		<path class="st6" d="M914.4,499.7c-0.4-0.8-0.4-1.6-0.4-2.4c0-10.9,0-21.8,0-32.7c0-0.4,0.1-0.8,0.5-1.1c0,1.1,0,2.3,0,3.4
			c0,3.3,0,6.6,0,10C914.5,484.4,914.5,492,914.4,499.7z"/>
		<path class="st6" d="M234.4,484.7c-0.4-0.8-0.4-1.6-0.4-2.4c0-10.9,0-21.8,0-32.7c0-0.4,0.1-0.8,0.5-1.1c0,1.1,0,2.3,0,3.4
			c0,3.3,0,6.6,0,10C234.5,469.4,234.5,477,234.4,484.7z"/>
		<path class="st6" d="M594.6,566.8c0,3.3,0,6.6,0,10c-0.1,7.6-0.1,15.3-0.2,22.9c-0.4-0.8-0.4-1.6-0.4-2.4c0-10.9,0-21.8,0-32.7
			c0-0.4,0.1-0.8,0.5-1.1C594.6,564.5,594.6,565.7,594.6,566.8z"/>
		<path class="st6" d="M574.4,308.7c-0.4-0.8-0.4-1.6-0.4-2.4c0-10.9,0-21.8,0-32.7c0-0.4,0.1-0.8,0.5-1.1c0,1.1,0,2.3,0,3.4
			c0,3.3,0,6.6,0,10C574.5,293.4,574.5,301,574.4,308.7z"/>
		<path class="st6" d="M814.4,254.7c-0.5-0.8-0.4-1.8-0.4-2.7c0-10.2,0-20.3,0-30.5c0-0.9-0.1-1.8,0.4-2.7
			C814.4,230.8,814.4,242.7,814.4,254.7z"/>
		<path class="st6" d="M674.4,454.7c-0.5-0.8-0.4-1.8-0.4-2.7c0-10.2,0-20.3,0-30.5c0-0.9-0.1-1.8,0.4-2.7
			C674.4,430.8,674.4,442.7,674.4,454.7z"/>
		<path class="st6" d="M519.4,154.7c-0.5-0.8-0.4-1.8-0.4-2.7c0-10.2,0-20.3,0-30.5c0-0.9-0.1-1.8,0.4-2.7
			C519.4,130.8,519.4,142.7,519.4,154.7z"/>
		<path class="st6" d="M804.6,464.3c0.5,0.8,0.4,1.8,0.4,2.7c0,9.8,0,19.6,0,29.5c0,0.9,0.1,1.8-0.4,2.7
			C804.6,487.6,804.6,475.9,804.6,464.3z"/>
		<path class="st6" d="M124.6,449.3c0.5,0.8,0.4,1.8,0.4,2.7c0,9.8,0,19.6,0,29.5c0,0.9,0.1,1.8-0.4,2.7
			C124.6,472.6,124.6,460.9,124.6,449.3z"/>
		<path class="st6" d="M304.6,564.3c0.5,0.8,0.4,1.8,0.4,2.7c0,9.8,0,19.6,0,29.5c0,0.9,0.1,1.8-0.4,2.7
			C304.6,587.6,304.6,575.9,304.6,564.3z"/>
		<path class="st6" d="M934.6,574.3c0.5,0.8,0.4,1.8,0.4,2.7c0,9.8,0,19.6,0,29.5c0,0.9,0.1,1.8-0.4,2.7
			C934.6,597.6,934.6,585.9,934.6,574.3z"/>
		<path class="st6" d="M434.6,419.3c0.5,0.8,0.4,1.8,0.4,2.7c0,9.8,0,19.7,0,29.5c0,0.9,0.1,1.8-0.4,2.7
			C434.6,442.6,434.6,430.9,434.6,419.3z"/>
		<path class="st6" d="M844.6,326.3c0.5,0.8,0.4,1.8,0.4,2.7c0,9.8,0,19.6,0,29.5c0,0.9,0.1,1.8-0.4,2.7
			C844.6,349.6,844.6,337.9,844.6,326.3z"/>
		<path class="st6" d="M464.6,273.3c0.5,0.8,0.4,1.8,0.4,2.7c0,9.8,0,19.6,0,29.5c0,0.9,0.1,1.8-0.4,2.7
			C464.6,296.6,464.6,284.9,464.6,273.3z"/>
		<path class="st6" d="M704.6,219.3c0.5,0.8,0.4,1.8,0.4,2.7c0,9.8,0,19.6,0,29.5c0,0.9,0.1,1.8-0.4,2.7
			C704.6,242.6,704.6,230.9,704.6,219.3z"/>
		<path class="st7" d="M449.4,605.7c-44.7,0-89.3,0-134,0c-7.3,0-9.8-2.6-9.8-10c0-9.7,0-19.3,0-29c0-5.9,3-8.9,9-8.9
			c90,0,180,0,270,0c6,0,8.9,3,8.9,8.9c0,10.1,0,20.2,0,30.2c0,5.9-2.9,8.7-8.8,8.7C539.6,605.7,494.5,605.7,449.4,605.7z"/>
		<path class="st8" d="M590.5,553.7c-1-0.5-1-1.5-1-2.4c0-5.7,0-11.3,0-17c0-2,0.8-2.6,2.7-2.6c11.6,0,23.1,0,34.7,0
			c1.9,0,2.8,0.8,2.6,2.7c0,0.1,0,0.2,0,0.2c0.5,5.5,0.2,10.6-5.4,13.8c-0.5,0.3-0.7,0.9-1.1,1.3l0,0c-1.6,1-2.6,2.7-4.3,3.7
			c-1.1,0.7-1.8,0.7-2.9,0c-2.1-1.4-4.1-3-6.4-4.1c-1-0.7-2-1.3-3-2c-0.2-0.2-0.5-0.4-0.8-0.6c-4.4-2.9-4.4-2.9-8.1,0.7
			c-0.8,0.8-1.6,1.7-2.6,2.3C593.3,550.8,592.2,552.7,590.5,553.7L590.5,553.7z"/>
		<path class="st3" d="M609.5,549.3c2.2,0.4,3.7,1.8,5.4,3.1c2,1.6,3.6,1.2,5.2-0.4c0.9-0.9,1.6-1.9,3-2.2
			c-4.3,5.5-4.8,5.6-10.6,1.8C611.4,550.8,610.4,550,609.5,549.3z"/>
		<path class="st3" d="M595,549.8c1-1.1,1.9-2.2,3-3.2c3.6-3.2,5.2-3.1,8.4,0.8c-0.3-0.1-0.6-0.2-0.9-0.3c-4.5-2.2-4.5-2.2-8.3,1.3
			C596.6,548.9,596,549.6,595,549.8z"/>
		<path class="st3" d="M590.5,553.7c1.3-1.6,2.5-3.2,4.5-4C593.7,551.3,592.5,553,590.5,553.7z"/>
		<path class="st8" d="M579.5,258.3c-1-0.7-2-1.3-3-2c-0.2-0.2-0.5-0.4-0.8-0.6c-4.4-2.9-4.4-2.9-8.1,0.7c-0.8,0.8-1.6,1.7-2.6,2.3
			l0,0c-1.7,1.1-2.8,2.9-4.5,4c0,0,0,0,0,0c-1-0.5-1-1.5-1-2.4c0-5.7,0-11.3,0-17c0-2,0.8-2.6,2.7-2.6c11.6,0,23.1,0,34.7,0
			c1.9,0,2.8,0.8,2.6,2.7c0,0.1,0,0.2,0,0.2c0.5,5.5,0.2,10.6-5.4,13.8c-0.5,0.3-0.7,0.9-1.1,1.3c0,0,0,0,0,0
			c-1.6,1-2.6,2.7-4.3,3.7c-1.1,0.7-1.8,0.7-2.9,0C583.8,261,581.7,259.5,579.5,258.3z"/>
		<path class="st8" d="M959.5,312.3c-1-0.7-2-1.3-3-2c-0.2-0.2-0.5-0.4-0.8-0.6c-4.4-2.9-4.4-2.9-8.1,0.7c-0.8,0.8-1.6,1.7-2.6,2.3
			v0c-1.7,1.1-2.8,2.9-4.5,4c0,0,0,0,0,0c-1-0.5-1-1.5-1-2.4c0-5.7,0-11.3,0-17c0-2,0.8-2.6,2.7-2.6c11.6,0,23.1,0,34.7,0
			c1.9,0,2.8,0.8,2.6,2.7c0,0.1,0,0.2,0,0.2c0.5,5.5,0.2,10.6-5.4,13.8c-0.5,0.3-0.7,0.9-1.1,1.3l0,0c-1.6,1-2.6,2.7-4.3,3.7
			c-1.1,0.7-1.8,0.7-2.9,0C963.8,315,961.7,313.5,959.5,312.3z"/>
		<path class="st8" d="M404.5,105.3c-1-0.7-2-1.3-3-2c-0.2-0.2-0.5-0.4-0.8-0.6c-4.4-2.9-4.4-2.9-8.1,0.7c-0.8,0.8-1.6,1.7-2.6,2.3
			h0c-1.7,1.1-2.8,2.9-4.5,4c0,0,0,0,0,0c-1-0.5-1-1.5-1-2.4c0-5.7,0-11.3,0-17c0-2,0.8-2.6,2.7-2.6c11.6,0,23.1,0,34.7,0
			c1.9,0,2.8,0.8,2.6,2.7c0,0.1,0,0.2,0,0.2c0.5,5.5,0.2,10.6-5.4,13.8c-0.5,0.3-0.7,0.9-1.1,1.3l0,0c-1.6,1-2.6,2.7-4.3,3.7
			c-1.1,0.7-1.8,0.7-2.9,0C408.8,108,406.7,106.5,404.5,105.3z"/>
		<path class="st8" d="M1032.9,566.7c-1.1,0-2.3,0-3.4,0c0-5.6,0-11.3-0.1-16.9c0-2.1,0.6-3,2.8-3c11.5,0.1,22.9,0.1,34.4,0
			c2,0,3,0.6,2.8,2.7c0,0.1,0,0.2,0,0.2c0.6,5.5,0.1,10.6-5.4,13.7c-0.5,0.3-0.7,0.9-1.1,1.3c-1.6,1-2.6,2.7-4.3,3.7
			c-1.1,0.7-1.8,0.7-2.9,0c-2.1-1.4-4.1-3-6.4-4.1c-1-0.7-2-1.3-3-2c-0.2-0.2-0.5-0.4-0.8-0.6c-4.4-2.9-4.4-2.9-8.1,0.7
			c-0.8,0.8-1.5,1.7-2.6,2.3C1034.3,565.4,1033.6,566,1032.9,566.7z"/>
		<path class="st8" d="M229.5,434.3c-1-0.7-2-1.3-3-2c-0.2-0.2-0.5-0.4-0.8-0.6c-4.4-2.9-4.4-2.9-8.1,0.7c-0.8,0.8-1.6,1.7-2.6,2.3
			l0,0c-1.7,1.1-2.8,2.9-4.5,4c0,0,0,0,0,0c-1-0.5-1-1.5-1-2.4c0-5.7,0-11.3,0-17c0-2,0.8-2.6,2.7-2.6c11.6,0,23.1,0,34.7,0
			c1.9,0,2.8,0.8,2.6,2.7c0,0.1,0,0.2,0,0.2c0.5,5.5,0.2,10.6-5.4,13.8c-0.5,0.3-0.7,0.9-1.1,1.3l0,0c-1.6,1-2.6,2.7-4.3,3.7
			c-1.1,0.7-1.8,0.7-2.9,0C233.8,437,231.7,435.5,229.5,434.3z"/>
		<path class="st8" d="M909.5,449.3c-1-0.7-2-1.3-3-2c-0.2-0.2-0.5-0.4-0.8-0.6c-4.4-2.9-4.4-2.9-8.1,0.7c-0.8,0.8-1.6,1.7-2.6,2.3
			v0c-1.7,1.1-2.8,2.9-4.5,4c0,0,0,0,0,0c-1-0.5-1-1.5-1-2.4c0-5.7,0-11.3,0-17c0-2,0.8-2.6,2.7-2.6c11.6,0,23.1,0,34.7,0
			c1.9,0,2.8,0.8,2.6,2.7c0,0.1,0,0.2,0,0.2c0.5,5.5,0.2,10.6-5.4,13.8c-0.5,0.3-0.7,0.9-1.1,1.3l0,0c-1.6,1-2.6,2.7-4.3,3.7
			c-1.1,0.7-1.8,0.7-2.9,0C913.8,452,911.7,450.5,909.5,449.3z"/>
		<path class="st9" d="M464.5,160.7c-14.9,0-29.8,0-44.7,0c-6.3,0-9.1-2.9-9.2-9.2c0-9.7,0-19.5,0-29.2c0-6.5,2.9-9.4,9.5-9.4
			c29.8,0,59.6,0,89.4,0c6,0,8.9,2.9,8.9,8.8c0,10.1,0,20.2,0,30.2c0,5.9-2.8,8.8-8.7,8.8C494.6,160.7,479.6,160.7,464.5,160.7z"/>
		<path class="st3" d="M404.5,105.3c2.2,0.4,3.7,1.8,5.4,3.1c2,1.6,3.6,1.2,5.2-0.4c0.9-0.9,1.6-1.9,3-2.2
			c-4.3,5.5-4.8,5.6-10.6,1.8C406.4,106.8,405.4,106,404.5,105.3z"/>
		<path class="st3" d="M390,105.8c0.8-1.3,1.9-2.2,3-3.2c3.6-3.2,5.2-3.1,8.4,0.8c-0.3-0.1-0.6-0.2-0.9-0.3
			c-4.5-2.2-4.5-2.2-8.3,1.3C391.6,104.9,391,105.6,390,105.8z"/>
		<path class="st3" d="M385.5,109.7c1.3-1.6,2.5-3.2,4.5-4C388.7,107.3,387.5,109,385.5,109.7z"/>
		<path class="st10" d="M899.8,367.7c-15,0-30,0-45,0c-6.3,0-9.2-2.9-9.2-9.1c0-9.8,0-19.7,0-29.5c0-6.3,2.9-9.2,9.1-9.2
			c29.7,0,59.5,0,89.2,0c6.8,0,9.6,2.8,9.6,9.6c0,9.8,0,19.7,0,29.5c0,6-2.8,8.8-8.9,8.8C929.6,367.7,914.7,367.7,899.8,367.7z"/>
		<path class="st3" d="M959.5,312.3c2.2,0.4,3.7,1.8,5.4,3.1c2,1.6,3.6,1.2,5.2-0.4c0.9-0.9,1.6-1.9,3-2.2
			c-4.3,5.5-4.8,5.6-10.6,1.8C961.4,313.8,960.4,313,959.5,312.3z"/>
		<path class="st3" d="M945,312.8c1-1.1,1.9-2.2,3-3.2c3.6-3.2,5.2-3.1,8.4,0.8c-0.3-0.1-0.6-0.2-0.9-0.3c-4.5-2.2-4.5-2.2-8.3,1.3
			C946.6,311.9,946,312.6,945,312.8z"/>
		<path class="st3" d="M940.5,316.7c1.3-1.6,2.5-3.2,4.5-4C943.7,314.3,942.5,316,940.5,316.7z"/>
		<path class="st10" d="M519.6,314.7c-15,0-30,0-45,0c-6.1,0-9-2.9-9-9.1c0-9.9,0-19.8,0-29.7c0-6.1,2.9-9.1,9-9.1
			c29.7,0,59.5,0,89.2,0c6.8,0,9.6,2.8,9.6,9.5c0,9.8,0,19.7,0,29.5c0,6.1-2.8,8.9-8.9,8.9C549.6,314.7,534.6,314.7,519.6,314.7z"/>
		<path class="st3" d="M579.5,258.3c2.2,0.4,3.7,1.8,5.4,3.1c2,1.6,3.6,1.2,5.2-0.4c0.9-0.9,1.6-1.9,3-2.2
			c-4.3,5.5-4.8,5.6-10.6,1.8C581.4,259.8,580.4,259,579.5,258.3z"/>
		<path class="st3" d="M565,258.8c0.8-1.3,1.9-2.2,3-3.2c3.6-3.2,5.2-3.1,8.4,0.8c-0.3-0.1-0.6-0.2-0.9-0.3
			c-4.5-2.2-4.5-2.2-8.3,1.3C566.6,257.9,566,258.6,565,258.8z"/>
		<path class="st3" d="M560.5,262.7c1.3-1.6,2.5-3.2,4.5-4C563.7,260.3,562.5,262,560.5,262.7z"/>
		<path class="st2" d="M803,192.8c2-0.7,3.1-2.5,4.7-3.6c1.2-0.7,1.7-0.5,1.7,0.8c0,6,0,12,0,18c0,1.8-1.4,1.8-2.7,1.8
			c-5.6,0-11.2,0-16.7,0c-5.9,0-11.8-0.1-17.7,0c-2,0-3-0.7-2.8-2.8c0.4-3.4-0.9-7,1-10.3c0-0.1,0-0.2,0.1-0.3
			c0.7-1.8,2.3-2.9,3.4-4.5c0.2-0.2,0.4-0.3,0.6-0.5c1.8-1.5,4.1-2.3,5.8-3.8c1-0.9,2.3-0.7,3.3,0c1.1,0.7,2.3,0.9,3.4,1.5
			c1,0.9,2.2,1.5,3.4,2.2c1.5,0.9,2.6,2.3,4.1,3.2c2.6,1.5,3.4,1.5,5.8-0.3c0.7-0.6,1.5-1.1,2.4-1.3
			C802.8,192.7,802.9,192.7,803,192.8z"/>
		<path class="st8" d="M789.5,192.3c-1-0.7-2-1.3-3-2c-0.2-0.2-0.5-0.4-0.8-0.6c-4.4-2.9-4.4-2.9-8.1,0.7c-0.8,0.8-1.6,1.7-2.6,2.3
			v0c-1.7,1.1-2.8,2.9-4.5,4c0,0,0,0,0,0c-1-0.5-1-1.5-1-2.4c0-5.7,0-11.3,0-17c0-2,0.8-2.6,2.7-2.6c11.6,0,23.1,0,34.7,0
			c1.9,0,2.8,0.8,2.6,2.7c0,0.1,0,0.2,0,0.2c0.5,5.5,0.2,10.6-5.4,13.8c-0.5,0.3-0.7,0.9-1.1,1.3l0,0c-1.6,1-2.6,2.7-4.3,3.7
			c-1.1,0.7-1.8,0.7-2.9,0C793.8,195,791.7,193.5,789.5,192.3z"/>
		<path class="st11" d="M1042,571.3c1.1,1.3,1.4,2.8,1.4,4.4c0,10.8,0,21.6,0,32.5c0,4.5-3.3,7.5-8.2,7.5c-28.5,0-57,0-85.4,0
			c-2.2,0-4.3,0-6.5,0c-4.5-0.1-7.6-3-7.7-7.5c-0.1-10.9-0.1-21.8,0-32.7c0.1-4.6,3.4-7.5,8.2-7.6c10.2-0.1,20.5,0,30.7,0
			c19.8,0,39.6,0,59.5,0c2.8,0,5.7,0.2,7.5,2.9c-0.8,0.7-1.7,0.4-2.6,0.1c-3-1.1-6.1-1.4-9.3-1.4c-27.1,0-54.3,0-81.4,0
			c-8.7,0-11,2.3-11,11c0,2.6,0,5.3-0.1,7.9c4.4-0.6,8.7-0.2,13.1-0.3c2.1,0,4.2,0,5.7-1.8c0.4-0.5,1-0.5,1.6-0.6c2-0.2,4-0.3,6-0.4
			c1.6-0.1,2.8,0.7,2.2,2.6c-0.3,0.4-0.8,0.6-1.3,0.6c-0.3,0-0.5-0.2-0.7-0.2c-4.5-1-5.6-0.1-5.3,4.3c2.5-1,2.9-0.9,4.9,1.2
			c0.2,0.3,0.3-0.1,0.1,0.1c-0.1,0.1-0.1,0-0.2-0.2c-0.3-0.4-0.8-1-0.5-1.3c1.3-1.1,1.3-2.9,2.4-4c1.2-0.7,2.3-0.6,2.9,0.8
			c0.3,0.7,0.1,1.3-0.3,2.1c-1.1,2-0.7,3.4,1.1,4.8c-0.3-0.2,0.1,0.1,0,0c-1.7-1.3-2.5-2.5,0.4-3.2c0.7-0.2,1.6-0.2,1.7-1.1
			c0.1-1-0.8-1.1-1.5-1.3c-0.8-0.2-1.4-0.5-1-1.6c2-1.5,4-1.1,6.1-0.4c0.4,0.3,0.8,0.9,0.5,1.3c-1.2,2.3,0.2,2.8,2,3.4
			c1.8,0.6,1.9,1.6,0.3,2.9c1.5-1.8,1.4-2.2-0.3-2.9c-0.5-0.2-1.1-0.3-1.6-0.6c-1.1-0.7-1.2-1.7-0.1-2.4c0.8-0.5,1.5-0.9,2.1-1.7
			c1.6-0.6,3.2-1.5,4.4,0.5c-0.1,1.6-0.9,3.1-0.7,4.7c0.2,1,0,2.2,1.7,2.1c1.4-0.1,2.6-0.3,2.9-2c0.3-1.7-0.8-2.8-1.4-4.2
			c0.7-1.8,1.1-3.8,3.1-4.5c2.4-0.8,3.6,0.3,4.7,4.3c-0.1,1.1-1.4,1.9-1,2.8c-0.3-2,2-2.3,3.2-3.5c0.5-0.2,1-0.2,1.5,0
			c0.9,0.4,1.7,1,2.7,1.1c0.8,0.1,1.3,0.7,1.3,1.6c0.1,0.9-0.5,1.3-1.2,1.6c-0.8,0.3-1.6,0.3-2.3,0.9c-0.3,0.3-0.6,0.6-0.5,1.1
			c0.1,0.5,0.6,0.5,1,0.5c2.1,0.2,3.2-1.5,2.9-4.3c-0.1-0.7-0.7-1.4,0.1-2c0.4-0.3,0.9-0.3,1.4-0.1c1.6,1.5,1.6,1.5,1.6,4.4
			c-0.1-1.4,0.5-3.1-1.3-4c-1.7-2.9-0.9-4.3,2.4-4.4c2.2-0.1,4.3-0.2,6,2c1.1,1.5,3.2,0.7,5,0.6c1.3-0.1,2.5-0.1,2.8,1.6
			c0.4,1.2-1.2,1.5-1.1,2.4c0.1-0.2-0.2,0.2-0.1,0.1c1.4-2.6,2.8-2.4,4.2-0.4c-0.1-0.8-0.8-1.3-2-1.4c-0.7,0-1.1-0.3-0.9-1.1
			c0.4-0.8,1.1-1,1.9-1c6.8-0.2,13.6-0.2,20.4,0c1.2,0,2.1,0.5,2.3,1.5c-0.6-1.1-0.6-2.6-0.7-4.1c-0.2-4,0.5-8-0.7-11.9
			C1040.8,572.7,1041,571.8,1042,571.3z"/>
		<path class="st12" d="M1017.5,589.9c-0.6-0.9-1.4-0.9-2.4-0.8c-1.8,0.1-3.6,0.1-5.4,0.1c-0.7,0-1.7-0.2-1.9-1
			c-0.5-4-3.4-1.3-4.9-1.5c-1.8-0.3-0.7,1.9-1,2.9c-0.1,0.2-0.2,0.3-0.4,0.1c-0.6,0-1.1,0-1.7,0c-1.3,0.7-2.5,0.7-3.8,0
			c-0.5,0-1.1,0-1.6,0c-1,0.6-2,1-2.9-0.1c-0.8-0.6-2.2-0.7-1.7-2.3c0.3-0.9-0.4-0.9-1-0.8c-0.6,0.1-1.9-0.4-1.7,0.6
			c0.3,1.9-1.2,1.8-2.1,2.6c-1.2,1-2.3,1.1-3.5,0c-1.2-1-2.3-0.6-3.5,0c-1.1,0.7-2.3,0.7-3.4,0.2c-2-1.1-4-0.8-6.1-0.3
			c-0.1,0.2-0.2,0.2-0.4,0.1c-0.9-0.5-1.9-1-3-1c-0.1-0.1-0.2-0.1-0.2-0.2c0-0.1,0-0.2,0.1-0.2c0.5-1.4-0.2-1.9-1.4-1.9
			c-1.7,0-3.5,0.2-5.2,0.3c-0.5,0-1.1,0.1-1.3,0.6c-0.6,2.1-2.3,1.8-3.9,1.8c-4.3,0-8.7,0-13,0c-2.2,0-4,0.3-3.4,3.6
			c-0.9-0.8-0.8-1.5-0.8-2c0-4.3-0.2-8.7,0-13c0.5-7.2,2.3-9.4,9.5-9.4c24.3-0.2,48.7-0.1,73-0.1c4.4,0,8.8,0.1,13.2,0
			c3.5-0.1,6.7,0.8,9.7,2.5c0.2,0.2,0.3,0.4,0.5,0.5c1.8,7,0.7,14.1,0.7,21.3c0.1-3.1-1.8-3.4-4.1-3.4c-6,0-11.9,0-17.9,0
			c-0.9,0-1.8,0-2.7,0.4C1017.9,589.9,1017.7,589.9,1017.5,589.9z"/>
		<path class="st3" d="M1049.5,564.3c2.2,0.4,3.7,1.8,5.4,3.1c2,1.6,3.6,1.2,5.2-0.4c0.9-0.9,1.6-1.9,3-2.2
			c-4.3,5.5-4.8,5.6-10.6,1.8C1051.4,565.8,1050.4,565,1049.5,564.3z"/>
		<path class="st3" d="M1035,564.7c1-1.1,2-2.2,3.1-3.2c3.6-3.2,5.2-3,8.4,0.8c-0.4-0.1-0.8-0.2-1.2-0.4c-4.1-2.2-4.1-2.2-7.7,1.1
			C1036.8,563.6,1036.2,564.5,1035,564.7z"/>
		<path class="st9" d="M179.4,490.7c-14.8,0-29.6,0-44.5,0c-6.5,0-9.4-2.8-9.4-9.2c0-9.9,0-19.8,0-29.7c0-5.9,3-8.9,8.9-8.9
			c29.8,0,59.6,0,89.4,0c6.7,0,9.5,2.8,9.5,9.4c0,9.9,0,19.8,0,29.7c0,5.9-2.8,8.7-8.7,8.7C209.6,490.7,194.5,490.7,179.4,490.7z"/>
		<path class="st3" d="M229.5,434.3c2.2,0.4,3.7,1.8,5.4,3.1c2,1.6,3.6,1.2,5.2-0.4c0.9-0.9,1.6-1.9,3-2.2
			c-4.3,5.5-4.8,5.6-10.6,1.8C231.4,435.8,230.4,435,229.5,434.3z"/>
		<path class="st3" d="M215,434.8c0.8-1.3,1.9-2.2,3-3.2c3.6-3.2,5.2-3.1,8.4,0.8c-0.3-0.1-0.6-0.2-0.9-0.3
			c-4.5-2.2-4.5-2.2-8.3,1.3C216.6,433.9,216,434.6,215,434.8z"/>
		<path class="st3" d="M210.5,438.7c1.3-1.6,2.5-3.2,4.5-4C213.7,436.3,212.5,438,210.5,438.7z"/>
		<path class="st13" d="M910,459.2c0.9,0.4,1.6,1.1,2,2c1.2,2.6,1.3,5.4,1.3,8.2c-0.1,5.5,0,11.1,0,16.6c0,0.7,0.3,1.6-0.6,1.9
			c-0.9,0.3-1.6-0.2-2.1-0.9c-0.5-0.9-1.2-1.7-2.2-1.9c-2-0.4-2.7-1.8-3.1-3.4c-2.4-1.7-3.6-1.5-4.6,1c-0.4,0.5-0.8,0.9-1.5,0.8
			c-0.4-0.1-0.7-0.4-0.8-0.9c-0.1-1.4-0.8-2-2.2-1.9c-1.4,0.1-2.5,0.5-2.4,2.2c0,0.2-0.2,0.4-0.4,0.6c-0.8,0.5-1.4,0-2.1-0.3
			c0,0-0.2,0-0.2,0.1c-1.3,1.1-2.3,1.4-2.7-0.7c-0.1-0.6-0.4-1.1-0.7-1.5c-1.6-0.8-3.1-0.5-4.5,0.4c-0.5,0.1-0.9,0.1-1.4,0
			c-1.6-0.7-3.1-1.4-4.7-0.2c-0.2,0.3-0.3,0.6-0.4,0.9c-0.3,0.7-0.3,1.7-1.2,1.7c-1,0-1.4-0.8-1.5-1.7c-0.3-0.8-1-1.3-1.7-1.3
			c-2.4,0.2-4.9-0.9-7.3,0c-0.5,0.1-0.9-0.1-1.3-0.2c-1.1-0.4-1.9,0-2.8,0.6c-0.7,0.4-1.4,0.8-2.3,0.5c-1-0.7-2-1.6-3.5-1.3
			c-0.8,0.2-1.4-0.2-1.5-1.1c-0.1-0.8-0.5-1.1-1.3-1.2c-1.9-0.4-1.5,2.1-2.9,2.4c-0.5,0.3-0.9,0.7-1.6,0.7c-1.2-0.2-2.7-2-3.4,0.6
			c-0.1,0.4-0.2,0.7-0.4,1c-0.8,0.4-1.4,1.2-2.4,1.2c-0.8,0-1.2-0.6-1.6-1.1c-1.9,1.8-1.9,1.8-3.3-0.4c-0.4-0.5-0.8-0.8-1.4-0.9
			c-0.6-0.3-1.2-0.4-1.8-0.5c-1.7-0.7-3.4-1.5-4.6,0.7c-0.4,1.2-0.6,2.6-2.4,2.3c-0.5,0-1.1-0.1-1.3-0.5c-0.4-1.4-1.7-1.7-2.6-2.4
			c0.1,0.7,0.2,1.6-0.7,2.2c-0.6,0.3-1.2,0.1-1.8-0.2c-1-1.1-2.4-1.6-3.8-1.9c-1.2-0.3-2.3-0.7-2.3-2.1c0.1-1.4,1.3-1.5,2.4-1.7
			c-1,0.3-2.3,0.3-2.4,1.7c-0.1,1.3,0.8,1.8,1.9,2c0.6,0.1,1.1,0.4,1.6,0.5c1.5,0.3,2.5,1.1,2.1,2.7c-0.2,1.2-2.5,2-3.8,1.5
			c-1.3-0.6-2.5-1.6-4.2-1.1c-1.4,0.2-2.4,1.1-3.2,2.2c-0.5,0.6-1.2,1-2,0.7c-0.8-0.3-0.6-1.1-0.6-1.7c0-6.7-0.1-13.5,0-20.2
			c0.1-4.9,3.4-8,8.3-8c30.1,0,60.3,0,90.4,0C906.5,458,908.1,459,910,459.2z"/>
		<path class="st14" d="M825.8,483.8c1.6-0.1,1.6-1.6,2.2-2.6c1.2,0.5,0.8,1.5,0.8,2.4c0.1,1.5,1.1,2,2.4,1.9c1.2-0.1,1.9-0.7,2-2
			c0.1-0.9-0.5-2,0.4-2.8c0.4-0.3,0.9-0.7,1.3-1c1.1,1,1.1,2.5,1.8,3.7c0.3,0.5,0.3,1.2,1.1,1.2c0.7,0,0.9-0.6,1.1-1.1
			c0.2-0.7,0.4-1.5,1.4-1.4c0.2,0.7,0.5,1.2,1.1,1.6c1.1,0.2,0.5,1.9,1.9,2.1c2,0.3,3.2-0.7,3.3-2.8c0-0.8-0.2-1.8,0.9-2.2
			c0.3-0.3,0.6-0.7,1-1c0.6,0.6,1.6,0.9,1.5,2c-0.3-3.2,0-3.6,2.2-3.9c1.7,0.7,1,2.2,1.2,3.4c0.1,0.7-0.1,1.4-0.1,2.1
			c0,1-0.1,2.1,1.3,2.2c1.4,0.1,2.7-0.1,3-1.8c0.2-0.8-0.1-1.9,0.9-2.4c0.8-0.2,1-1,1.5-1.5c0.9,0.7,0.8,1.7,0.6,2.5
			c-0.1-2,2.2-1.4,2.9-2.5c0.3,0.2,0.7,0.4,1,0.5c0.9,0.5,1.8-0.2,2.7,0c0.8,0.1,1.5,0.2,1.7,1.1c0.2,1-0.4,1.5-1.2,1.9
			c-0.4,0.2-0.8,0.2-1.2,0.3c-0.7,0.1-1.7,0.1-1.5,1.2c0.2,0.8,1.1,0.9,1.9,0.9c1.2,0,2.4-1.1,3.2,0.2c-0.5-0.4-1.3-0.8-1-1.8
			c0.2-0.9,1-1,1.8-1c1.4,0,2.6-0.3,3.6-1.3c0.2,0.3,0.4,0.7,0.7,1.1c0.5-1.1,0-2.3,0.7-3.1c0.6,0.5,1,1.1,0.7,1.7
			c0.6-1,1.5-1.5,2.9-1.1c1.1,0.3,1.3,1.2,1.2,2.2c0.1-0.7-0.1-1.4,0.7-1.8c0.6,0,1.1,0,1.7,0c0.7,0.5,0.5,1,0.4,1.7
			c-0.2,1.4-0.3,2.9,1.6,3.2c1.8,0.3,2.5-0.5,2.6-2.7c0.1-1.9,0-3.9,0.8-5.8c1,1.8,0.1,3.9,0.9,6.1c0.9-1.3,0.3-2.7,1.1-3.6
			c0.9,0.9,0.3,2,0.5,2.8c0.1-0.8-0.3-1.9,0.5-2.8c0.9,1,0,2.7,1.5,3.5c0.4,0,0.7-0.3,0.7-0.5c0-1.8,1.3-2.3,2.7-2.4
			c1.5-0.1,1.8,1.1,1.9,2.3c0,0.3,0.3,0.6,0.6,0.6c0.3-0.3,0.7-0.7,1-1c0.6,0.2,0.7,0.7,0.8,1.3c0.2,1.4,1.1,2.2,2.6,2.1
			c0.8,0,1.8-0.2,2.1,0.8c0.3,0.9-0.3,1.6-0.9,2c0.9-0.6,1-1.5,0.9-2.6c-0.1-2-0.7-4.2,0.6-6.1c0.5,0.7,0.5,1.6,0.6,2.4
			c0.1,0.7,0.4,1.5,1.1,1.4c2.7-0.2,4.1,1.1,4.8,3.8c0.2-8.9,1.4-17.6-0.4-26.2c1.1,1.5,1.4,3.1,1.4,4.9c0,10.6,0,21.2,0,31.7
			c0,4.7-3.2,7.8-7.9,7.8c-30.5,0-61,0-91.5,0c-5.5,0-8.4-3.1-8.5-8.6c0-10.2,0-20.3,0-30.5c0-5.8,3-8.8,8.8-8.8c30,0,60,0,90,0
			c2,0,4,0.4,5.7,1.5c-31.4-2.2-62.8-0.4-94.2-1c-1.2,0-2.5,0-3.7,0.3c-4.2,1-5.8,4.2-6,7.9c-0.3,6.4-0.1,12.8-0.1,19.2
			c0,0.6,0,1.2,0.6,1.5c2.4-3.5,2.4-3.5,5.9-3.4c0.5,0.1,0.9,0.4,1.1,0.9c0.9,1.5,2.4,1.8,3.9,1.5c1.5-0.3,2.1-1.4,2-2.9
			c0-0.2,0.3-0.4,0.5-0.5c0.5,0.2,0.9,0.3,1.4,0.5C823,482.7,824.3,483.7,825.8,483.8z"/>
		<path class="st3" d="M909.5,449.3c2.2,0.4,3.7,1.8,5.4,3.1c2,1.6,3.6,1.2,5.2-0.4c0.9-0.9,1.6-1.9,3-2.2
			c-4.3,5.5-4.8,5.6-10.6,1.8C911.4,450.8,910.4,450,909.5,449.3z"/>
		<path class="st3" d="M895,449.8c0.8-1.3,1.9-2.2,3-3.2c3.6-3.2,5.2-3.1,8.4,0.8c-0.3-0.1-0.6-0.2-0.9-0.3
			c-4.5-2.2-4.5-2.2-8.3,1.3C896.6,448.9,896,449.6,895,449.8z"/>
		<path class="st3" d="M890.5,453.7c1.3-1.6,2.5-3.2,4.5-4C893.7,451.3,892.5,453,890.5,453.7z"/>
		<path class="st8" d="M560.5,410.7c-1-0.5-1-1.5-1-2.4c0-5.7,0-11.3,0-17c0-1.9,0.8-2.6,2.7-2.6c11.6,0,23.2,0,34.7,0
			c1.9,0,2.8,0.8,2.6,2.7c0,0.1,0,0.2,0,0.2c0.5,5.5,0.2,10.6-5.4,13.8c-0.5,0.3-0.7,0.9-1.1,1.3c0,0.1,0,0.2-0.1,0.4
			c-0.7,1.3-1.7,2.2-2.9,3c-1.6,1.2-3.3,1.4-5.1,0.5c-2-1-3.9-2.1-5.9-3.1c-1-0.9-2.2-1.5-3.4-2.2c-0.7-0.3-1.1-1-1.7-1.4
			c-1.7-1.3-3.6-1.1-5.1,0.6c-0.9,1-1.8,2-2.6,3c-0.2,0.2-0.4,0.3-0.6,0.4c-1.5,1-3,2.1-4.8,2.7
			C560.7,410.7,560.6,410.7,560.5,410.7z"/>
		<path class="st2" d="M576.5,404.3c1,0.7,2,1.3,3,2c2.6,1.7,5.5,3,7.6,5.4c-9,0-18.1,0-27.1,0c0.2-0.3,0.4-0.6,0.5-1c0,0,0,0,0,0
			c1.7-1.1,2.8-2.9,4.5-4l0,0c1.8-1.4,3.4-3.1,5.2-4.5c1.1-0.8,1.9-1.1,3-0.1C574.2,403,575.4,403.5,576.5,404.3z"/>
		<path class="st2" d="M599.6,411.7c-3.9,0-7.7,0-11.6,0c1.3-2,3.3-3.3,5-4.9h0c1.9-0.6,3-2.4,4.5-3.4c1.4-0.9,1.9-0.8,2,0.9
			C599.5,406.7,599.5,409.2,599.6,411.7z"/>
		<path class="st15" d="M554.5,460.7c-36.4,0-72.8,0-109.2,0c-7,0-9.7-2.7-9.7-9.6c0-9.7,0-19.5,0-29.2c0-5.9,3-9,8.9-9
			c73.5,0,146.9,0,220.4,0c5.5,0,8.5,3.1,8.5,8.5c0,10.2,0,20.3,0,30.5c0,6-2.8,8.8-8.9,8.8C627.8,460.7,591.2,460.7,554.5,460.7z"
			/>
		<path class="st15" d="M812,216.2c1.1,1.3,1.4,2.8,1.4,4.4c0,10.7,0,21.3,0,32c0,5.1-3.1,8.1-8.1,8.1c-30.4,0-60.8,0-91.2,0
			c-5.4,0-8.5-3.1-8.5-8.6c0-10.1,0-20.2,0-30.2c0-6.1,3-9,9.1-9c29.9,0,59.8,0,89.7,0c2.1,0,4,0.3,5.7,1.5
			c-0.8,1.5-2.1,1.2-3.3,0.9c-2-0.6-4.1-0.6-6.2-0.6c-27.5,0-54.9,0-82.4,0c-8.6,0-10.9,2.3-10.9,11c0,2.7,0.1,5.3-0.2,8
			c3.8-1.2,7.8,0.3,11.5-1.2c1.2-0.3,1.8,0.1,2.2,1.3c0.6,1.5,1.2,3.1,1.9,4.6c0.3,0.7,0.6,1.2,1.3,1.3c0.7,0,0.9-0.7,1.1-1.2
			c0.6-1.3,1.1-2.7,1.7-4.1c0.3-0.9,0.6-1.9,1.9-2c2.3,0.8,4.4,1.5,6.5-0.9c1.1-1.3,3.9-0.6,5.1,0.8c-0.9,1.3-1.3,2.8-1,4.5
			c0.1,0.6,0.1,1.4,0.9,1.6c0.3,0.1,1.2,1.1,1.2-0.6c0-1.1,0.3-2.4,1-3.5c1.2-1,2.5-0.9,3.9-0.3c0.8,0.4,1.2,1.3,2.3,1.4
			c0.9,0.1,1.5,0.7,1.6,1.6c0.1,0.9-0.7,1.3-1.3,1.6c-0.3,0.1,0.1,0-0.2,0.1c-0.8,0.3-1.6,0.5-1.6,1.6c0,0.6,0.6,0.7,1.1,0.7
			c1.1,0,2-0.5,2.2-1.6c0.1-1,0.3-2.1-0.3-3.1c-0.4-0.7-0.5-1.4,0-2.1c1.3-1,2.5-1,3.8,0.1c0.8,1.4-1,2.3-0.5,3.4c0-1,0.5-2,2-2.1
			c1.4-0.1,2.1,0.6,2.4,2c-0.2-1.1-0.7-1.9-1.9-2c-0.6-0.1-1.2-0.1-1.1-1c0.1-0.3,0.3-0.7,0.6-0.8c4.4-1.1,8.9-1.2,13.2,0.4
			c0.8,1.1-0.1,1.7-0.6,2.6c-0.7,1.2-0.5,2.6,0.3,3.7c0.7,1,1.8,0.6,2.7,0.3c1.2-0.4,1.6-3.4,0.5-4.7c-0.5-0.6-0.9-1.2-1.1-1.9
			c-0.1-3.3,1.7-4.2,5.2-2.7c-0.5,2.2-0.5,4.5-0.5,6.7c0,1.2-0.2,2.5,1.5,2.5c1.4,0,2.7-0.3,2.8-2.1c0.1-1.5-0.1-2.6-2-2.7
			c-2.7-0.2-3-1.2-1.5-3.6c2.3,0.9,5.1,0.3,7.2,2.1c0.3,1.2-1.1,2.2-0.6,3.3c-0.1,0.5-0.3,0,0,0.1c0,0,0.1-0.1,0.1-0.2
			c-0.4-2.1,1.9-1.8,2.6-2.9c0.2,0,0.4,0.1,0.6,0.3c1.2,1.1,0.6,2.5,0.7,3.8c0.1,1.2,0.1,2.4,1.6,2.6c1.3,0.2,2.4-0.6,2.8-2.2
			c-0.2,1.4-1.2,2.2-2.5,2.2c-1.5,0-1.9-1-1.9-2.3c0-1.6,0.1-3.3-0.9-4.8c0.2-0.5,0.6-1,1-1c2.6-0.2,5.4-0.7,7.8,0.9
			c0.6,1-0.1,1.6-0.6,2.4c-0.7,1.1-0.5,2.3,0.1,3.5c0.6,1.1,1.5,0.8,2.4,0.7c1.1-0.1,1.6-0.6,1.6-1.8c0-1.6-0.1-3.3,0-4.9
			c0-0.8-0.1-1.7,0.9-2.1c3.3,1.4,6.8,1.1,10.2,1.1c1.3,0,2.7-0.2,3.6,1.7c-0.8-1.5-0.7-2.8-0.8-4c-0.2-4.1,0.5-8.3-0.7-12.4
			C810.8,217.6,810.9,216.6,812,216.2z"/>
		<path class="st13" d="M775.5,232.3c-3.5-1.2-4.4-0.7-4.5,2.4c-1,0.9-2,1.1-3,0.1c-4.5-0.8-9-1-13.5-0.1c-0.1,0.4-0.4,0.7-0.8,0.6
			c-0.3,0-0.3-0.3-0.2-0.5c-1.2-0.7-2.4-0.5-3.6,0c-1.3,0.8-2.5,0.7-3.8,0c-1.2-0.5-2.4-0.8-3.6-0.1c0.1,1.4-0.8,2.3-2,2.3
			c-1.6,0-1.2-1.6-1.3-2.6c-0.1-0.7,0-1.6,0.7-2.1c-1.9-0.7-3.5-1.1-4.8,1.2c-0.9,1.6-5.3,0.9-6.8-0.9c-1,0.1-1.2,0.8-1.5,1.6
			c-0.5,1.3-0.9,2.7-1.6,4c-0.4,0.7-0.4,1.8-1.5,1.7c-1-0.1-1-1.2-1.3-1.9c-0.5-1.2-0.8-2.5-1.4-3.7c-0.3-0.7-0.4-1.7-1.6-1.6
			c-0.4,1.3-1.4,1.6-2.5,1.6c-2.1,0-4.2,0-6.2,0c-2.2,0-4.7-0.3-4,3.5c-1-0.7-0.8-1.4-0.8-2.1c0-4.4,0-8.8,0-13.2
			c0-2.1,0.7-4,1.5-5.7c1.3-2.8,4.3-2.7,6.8-3.4c0.7-0.2,1.5,0,2.2,0c28.6,0,57.2,0,85.9-0.1c2.6,0,5,1.3,7.6,1.1
			c0.9,0.4,1.6,1.1,2,2c1.6,6.2,0.8,12.5,1,18.7c0,0.8,0.2,1.8-0.9,3.4c0.8-4.4-1.6-4.1-3.9-4.1c-2.1,0-4.1-0.1-6.2,0
			c-1.7,0.1-2.9-0.4-3.5-2c-0.2,0.3-0.4,0.5-0.4,0.9c-0.5,2.8-1.3,3.2-4,1.6c-2.8-0.6-5.7-1.1-8.5,0l0,0c-0.2,0-0.3,0-0.5,0
			c-0.9,0.7-1.7,1.4-2.5,0c-1.1-0.6-2.4-0.5-3.6-0.4C777.3,234.4,776.1,233.9,775.5,232.3L775.5,232.3z"/>
		<path class="st3" d="M593,406.8c-1.3,2-3.3,3.3-5,4.9c-0.3,0-0.6,0-0.9,0c-2.4-2-5.3-3.2-7.6-5.4c2.2,0.4,3.7,1.8,5.4,3.1
			c2,1.6,3.6,1.2,5.2-0.4C590.9,408.1,591.7,407,593,406.8z"/>
		<path class="st16" d="M425.7,579.7c1.1,0.4,2.6,0.2,4.1,0c1.2-0.1,2.1,0.4,2.6,1.5c0.5,1.3,0.6,2.5-1.4,2.4c-0.3,0-0.7,0-1,0
			c-0.6,0.1-1.4-0.3-1.7,0.5c-0.2,0.4,0.2,0.8,0.5,1c0.7,0.5,1.3,0.5,2,0c0.5-0.4,1-1.6,1.6-0.5c0.4,0.8-0.5,1.5-1.3,1.8
			c-0.4,0.2-1,0.3-1.5,0.2c-1.7-0.5-3.2-0.5-4.9,0c-1.2,0.3-2.4-0.2-2.5-1.7c-0.2-1.4,0.7-2.1,2.1-2.3c0.2,0,0.5,0,0.7-0.1
			c0.6-0.2,1.8-0.1,1.4-1.2c-0.3-0.9-1.2-0.7-1.9-0.5c-0.6,0.2-0.8,1.2-1.6,0.8c-0.4-0.2-0.3-0.6-0.1-0.9c0.4-0.7,1-1.1,1.8-1.1
			C424.7,579.7,425,579.7,425.7,579.7z"/>
		<path class="st16" d="M538.9,579.7c1.3,0.2,2.8,0.3,4.4,0c1.2-0.2,2.1,0.4,2.6,1.6c0.5,1.3,0.6,2.5-1.5,2.4c-0.9,0-2-0.5-2.7,0.5
			c-0.2,0.3,0.2,0.8,0.5,1c1.1,0.8,1.8,0.3,2.6-0.6c0.3-0.3,0.7-0.5,1.1-0.1c0.3,0.4,0.1,0.8-0.1,1.1c-0.6,0.8-1.7,1.5-2.4,1
			c-2.4-1.6-5.3,1.6-7.4-0.8c-0.9-1-0.5-2.2,0.8-2.9c0.5-0.3,1.1-0.2,1.7-0.4c0.6-0.2,1.8,0,1.4-1.2c-0.3-0.9-1.2-0.7-2-0.4
			c-0.6,0.2-0.8,1.2-1.6,0.8c-0.1-0.1-0.2-0.5-0.2-0.6c0.3-0.9,1-1.3,1.9-1.4C538.1,579.7,538.4,579.7,538.9,579.7z"/>
		<path class="st17" d="M392,586.8c-3.2,0-4.4-0.7-4.6-3c-0.1-1.4,0-2.7,1.2-3.6c1.4-1,2.9,0,4.3-0.3c0.4-0.1,0.5,0.4,0.5,0.7
			c0,2.3,0.3,4.7-0.3,7c-0.5,1.8-3.7,2.5-5,1.1c-0.3-0.3-0.6-0.7-0.4-1.1c0.3-0.5,0.8-0.4,1.2-0.1
			C390.4,588.7,391.3,588.5,392,586.8z"/>
		<path class="st17" d="M463,586.7c-3.4,0.2-4.7-0.7-4.7-3.4c0-3,2.9-4.8,5.6-3.3c0.2,0.1,0.4,0.4,0.4,0.5c0.1,2.6,0.5,5.2-0.5,7.7
			c-0.6,1.5-3.7,1.7-4.8,0.5c-0.3-0.3-0.6-0.7-0.3-1.1c0.3-0.4,0.7-0.2,1.1,0C461.8,588.3,461.8,588.3,463,586.7z"/>
		<path class="st17" d="M374.1,586.6c-3.6,0.3-5-0.9-4.7-4c0.2-2,1.1-3,3.2-2.9c1.9,0.1,3.3,0.3,2.9,2.9c-0.3,1.5-0.1,3.2-0.4,4.7
			c-0.4,2-3.4,2.9-5,1.5c-0.4-0.3-0.8-0.7-0.4-1.3c0.3-0.4,0.7-0.2,1.1,0.1C372.2,588.7,373.2,588.4,374.1,586.6z"/>
		<path class="st18" d="M402.2,577.3c0.8,0,1,0.6,1.2,1.1c1,2.3,1.9,4.6,2.8,6.9c0.2,0.4,0.6,1,0,1.3c-0.6,0.3-1-0.2-1.3-0.7
			c-1.8-2.9-3.3-2.9-5.3,0.1c-0.3,0.5-0.6,0.8-1.2,0.6c-0.3-0.1-0.4-0.5-0.2-0.9c1-2.6,2-5.3,3.1-7.9
			C401.3,577.4,401.7,577.3,402.2,577.3z"/>
		<path class="st19" d="M447,582c0,0.6-0.1,1.2,0,1.7c0.3,2.1-0.3,3.1-2.7,3.1c-2.2-0.1-3.2-1.1-3.3-3.2c-0.2-2.5,0.7-3.9,2.7-3.9
			c1.2,0,2.2,0.1,2-1.5c0-0.4,0.2-0.8,0.7-0.8c0.6,0,0.6,0.5,0.6,0.9C446.9,579.5,446.9,580.8,447,582C446.9,582,446.9,582,447,582z
			"/>
		<path class="st19" d="M560.3,582.2c0,0.6-0.1,1.2,0,1.7c0.3,2-0.4,2.9-2.6,2.9c-2.2,0-3.3-1-3.4-3.1c-0.1-1.9,0-3.7,2.5-4.1
			c0.8-0.1,2.2,0.8,2.1-1.1c0-0.4-0.1-1.2,0.5-1.2c0.9-0.1,0.7,0.8,0.7,1.3C560.3,579.8,560.3,581,560.3,582.2
			C560.3,582.2,560.3,582.2,560.3,582.2z"/>
		<path class="st16" d="M358,577.4c0,2.8,0,5.6,0,8.5c0,0.9-0.6,0.7-1.2,0.7c-1.6,0.1-3.1,0.6-4.2-1.1c-1.6-2.7-0.1-5.6,3-5.7
			C356.1,579.7,356.3,579.5,358,577.4z"/>
		<path class="st17" d="M525,577.3c0.5,2.1,1.9,2.4,3.6,2.7c1.8,0.3,2,2.3,1.8,3.9c-0.2,1.6-0.9,2.8-2.8,2.9c-3,0.2-3.2,0.1-3.1-3
			C524.5,581.7,524.2,579.5,525,577.3z"/>
		<path class="st17" d="M410.9,582c0-0.7-0.1-1.5,0-2.2c0.1-0.8-0.4-2,0.4-2.2c1.1-0.3,0.7,1,0.9,1.6c0.4,0.9,1.1,0.5,1.7,0.6
			c2.1,0.2,3,1.5,2.9,3.8c-0.1,2.3-1.3,3.3-3.5,3.3c-2.1,0-2.9-0.8-2.5-2.9C411,583.3,410.9,582.6,410.9,582z"/>
		<path class="st20" d="M574.1,579.7c1.2-0.1,2.1,0.4,2.7,1.5c0.9,1.6,0.3,2.4-1.5,2.5c-0.1,0-0.2,0-0.2,0c-0.8,0.2-1.9-0.5-2.4,0.6
			c-0.1,0.2,0.3,0.8,0.5,1c0.9,0.8,1.7,0.4,2.4-0.4c0.4-0.4,0.8-0.7,1.2-0.2c0.4,0.6-0.1,1.1-0.6,1.5c-1.3,0.9-2.7,0.9-4,0.1
			c-1.7-1.1-1.6-2.9-1.2-4.5C571.5,580.3,572.6,579.6,574.1,579.7z"/>
		<path class="st16" d="M475,584c-0.3,0.7,0.6,2.5-0.3,2.5c-1.6,0-3.2,0.9-4.8,0c-0.7-0.4-1-1.1-0.9-1.9c0.2-1,0.9-1.5,1.8-1.8
			c0.9-0.3,2.8,0.1,2.4-1.2c-0.4-1.5-1.8-0.7-2.8,0.1c-0.3,0.2-0.7,0.2-0.9-0.1c-0.2-0.4,0-0.8,0.3-1.1c1.1-1.1,2.5-0.9,3.7-0.6
			c1.2,0.2,1.4,1.2,1.4,2.3C475,582.7,475,583.3,475,584z"/>
		<path class="st20" d="M516.9,586.8c-2.2,0.1-3.4-0.8-3.7-2.6c-0.3-1.7-0.1-3.4,1.8-4.2c1.5-0.6,3-0.4,4,1.1
			c0.4,0.6,0.7,1.4,0.4,2.1c-0.3,0.8-1.1,0.5-1.7,0.6c-0.4,0-0.8,0-1.2,0c-0.5,0.1-1.2-0.3-1.5,0.4c-0.2,0.4,0.2,0.8,0.5,1.1
			c0.5,0.5,1.1,0.6,1.8,0.3c0.7-0.3,0.9-1.6,2-0.8c0.1,0.1,0.1,0.5,0,0.7c-0.5,1-1.3,1.4-2.4,1.5
			C516.7,586.8,516.6,586.8,516.9,586.8z"/>
		<path class="st16" d="M334,577.3c0,3,0.1,5.9-0.1,8.8c-0.1,1.1-4.1,0.9-5-0.3c-1-1.4-1-3-0.4-4.5c0.5-1.4,1.7-1.8,3-1.5
			C333.9,580.2,332.3,577.7,334,577.3z"/>
		<path class="st20" d="M564.8,579.7c0.1,0,0.7,0.1,1.2,0.4c0.5,0.3,1.1,0.8,0.7,1.4c-0.3,0.5-0.9,0.2-1.3-0.1c-0.7-0.6-1.7-1-2.1,0
			c-0.4,1.2,1.1,1,1.7,1.2c1,0.4,2.1,0.6,2.1,2.1c0,1-0.5,1.8-1.5,2c-1.2,0.3-2.5,0.4-3.5-0.6c-0.3-0.3-0.7-0.9-0.4-1.3
			c0.5-0.7,0.9-0.2,1.4,0.3c0.5,0.6,1.2,0.9,2,0.5c0.2-0.1,0.5-0.6,0.5-0.8c-0.3-0.9-1.1-0.8-1.8-1c-1.1-0.4-2.3-0.9-2.1-2.4
			C562,579.9,563.1,579.7,564.8,579.7z"/>
		<path class="st21" d="M349.5,586.6c0-1.4,0-2.7,0-4.1c0-0.8-0.4-1.6-1.2-1.6c-0.9,0-1.6,0.6-1.6,1.5c-0.1,1.1,0,2.2-0.1,3.2
			c0,0.4,0,0.9-0.6,0.9c-0.5,0-0.7-0.3-0.7-0.8c0-1.7-0.3-3.5,0.1-5.2c0.3-1.5,1.9-0.6,2.9-0.9c1-0.3,2.2-0.1,2.4,1.2
			c0.4,1.9,0.6,3.9-0.2,5.7C350.1,586.6,349.8,586.6,349.5,586.6z"/>
		<path class="st20" d="M386.6,583.2c0,2.3-1.1,3.6-3.2,3.6c-2.1,0-3.3-1.2-3.3-3.5c0-2.4,1.1-3.6,3.2-3.6
			C385.4,579.7,386.5,580.9,386.6,583.2z"/>
		<path class="st20" d="M493.6,583.4c0,2.3-1.2,3.5-3.3,3.4c-2.1-0.1-3.2-1.3-3.1-3.7c0.1-2.3,1.2-3.5,3.3-3.4
			C492.5,579.7,493.6,581,493.6,583.4z"/>
		<path class="st17" d="M497.2,586.8c-0.9,0-1.7-0.1-2.3-0.8c-0.3-0.4-0.6-0.9-0.2-1.3c0.5-0.6,0.9-0.1,1.2,0.3
			c0.4,0.5,0.8,0.8,1.5,0.7c0.4,0,0.8-0.2,1-0.6c0.2-0.5-0.1-0.8-0.5-1c-0.4-0.2-0.8-0.2-1.2-0.4c-1-0.4-2.1-0.6-2.1-2.1
			c0-0.8,0.4-1.5,1.2-1.7c1.1-0.4,2.3-0.5,3.4,0.3c0.4,0.3,0.7,0.8,0.5,1.3c-0.2,0.4-0.7,0.4-1.1,0c-0.7-0.6-1.8-1.3-2.2-0.1
			c-0.4,1.1,1.1,1,1.7,1.2c1.2,0.4,2.2,0.9,2,2.4C499.9,586.2,498.9,586.8,497.2,586.8z"/>
		<path class="st17" d="M503.3,586.8c-0.2-0.1-0.8-0.1-1.3-0.4c-0.6-0.3-1.2-0.9-0.8-1.6c0.6-1.1,1,0,1.5,0.3
			c0.6,0.5,1.2,0.7,1.8,0.3c0.2-0.1,0.5-0.5,0.5-0.8c-0.2-0.8-0.9-0.8-1.5-1c-1.4-0.4-3-1-2.1-2.9c0.8-1.7,2.5-1.3,4-1
			c0.6,0.1,1.1,0.7,0.9,1.3c-0.3,0.8-0.9,0.4-1.4,0c-0.7-0.6-1.7-0.9-2,0.1c-0.3,1,1,0.9,1.6,1.1c1.3,0.4,2.5,0.8,2.2,2.5
			C506.2,586.6,505,586.8,503.3,586.8z"/>
		<path class="st22" d="M439.1,587.1c-0.9-1.7-0.5-3-0.6-4.2c-0.1-1-0.2-2-1.4-2c-1.3,0-1.5,1-1.6,2.1c-0.1,1.2,0.6,3.5-0.7,3.4
			c-1.6-0.1-0.6-2.3-0.7-3.6c-0.2-2.8,1.1-3.7,3.9-3.1c0.7,0.1,1.4,0.5,1.5,1.2C439.6,582.8,439.9,584.7,439.1,587.1z"/>
		<path class="st22" d="M552.6,587.2c-1-1.7-0.6-2.9-0.7-4.1c-0.1-1-0.1-2.2-1.4-2.2c-1.3,0-1.5,1-1.6,2.1c-0.1,1.2,0.6,3.5-0.7,3.4
			c-1.6-0.1-0.6-2.3-0.7-3.6c-0.2-2.7,1.2-3.7,3.9-3.1c0.9,0.2,1.5,0.7,1.5,1.7C553,583.1,553.3,584.9,552.6,587.2z"/>
		<path class="st22" d="M367.6,587.2c-0.9-1.7-0.6-2.9-0.7-4.1c-0.1-1-0.1-2.2-1.4-2.2c-1.3,0-1.5,1-1.6,2.1
			c-0.1,1.2,0.6,3.5-0.7,3.4c-1.5-0.1-0.6-2.3-0.7-3.6c-0.2-2.7,1.2-3.7,3.9-3.1c0.9,0.2,1.4,0.7,1.6,1.7
			C368.2,582.2,368,585.3,367.6,587.2z"/>
		<path class="st23" d="M321.8,587.2c-0.8-2.5-0.6-4.6-0.4-6.5c0.2-1.7,1.9-0.6,2.8-0.9c1.1-0.3,2.3,0.1,2.5,1.4
			c0.2,1.5,0.1,3.1,0.1,4.7c0,0.3-0.1,0.7-0.5,0.7c-0.5,0-0.7-0.4-0.7-0.8c0-0.9,0-1.8-0.1-2.7c0-1,0-2.2-1.5-2.1
			c-1.2,0.1-1.5,1.1-1.6,2.2C322.5,584.3,322.9,585.5,321.8,587.2z"/>
		<path class="st20" d="M456.5,587c-1-1.5-0.6-2.7-0.7-3.9c-0.1-1-0.2-2.2-1.5-2.2c-1.2,0-1.6,1-1.6,2.1c0,0.2,0,0.3,0,0.5
			c-0.3,1,0.7,2.9-0.8,2.9c-1.1,0-0.3-2-0.6-3c-0.1-0.2,0-0.5,0-0.7c-0.7-2.9,1.2-2.9,3.2-3c2.3,0,2.5,1.5,2.4,3.2
			C456.9,584.1,457.3,585.4,456.5,587z"/>
		<path class="st24" d="M487.3,577.6c-0.8,0.8-2.9,1.2-0.8,2.4c-1.6,1.8-0.6,4.2-1.2,6.2c-0.2,0.7-1.1,0.4-1,0
			c0.2-2.6-1.4-5.1-0.1-7.6C485,577,485,577,487.3,577.6z"/>
		<path class="st25" d="M338.3,584c0.9-1,1-2.3,1.6-3.4c0.2-0.5,0.5-0.9,1.1-0.7c0.5,0.2,0.3,0.7,0.1,1.1c-0.6,1.6-1.2,3.3-1.9,4.9
			c-0.5,1.3-1.3,1.3-1.8,0c-0.7-1.6-1.3-3.2-1.9-4.9c-0.1-0.4-0.3-0.9,0.2-1.1c0.6-0.3,0.9,0.2,1.1,0.7
			C337.3,581.7,337.4,583,338.3,584z"/>
		<path class="st23" d="M410.7,577.4c-2,1.7-1.1,3.9-1.7,5.8c-0.4,1.1,0.5,3.3-0.7,3.2c-1.6-0.1-0.8-2.2-0.7-3.3
			c0.1-1.5-1.2-2.7-0.2-4.4C408.3,577.3,409,577,410.7,577.4z"/>
		<path class="st26" d="M480.2,577.5c-0.9,0.9-2.8,1.3-0.8,2.6c-1.8,1.8-0.6,4.2-1.3,6.2c-0.1,0.2-0.4,0.3-0.6,0.3
			c-0.2,0-0.5-0.3-0.5-0.4c0.5-2.5-1-4.8-0.2-7.4C477.5,577,478.4,577,480.2,577.5z"/>
		<path class="st27" d="M512,582.2c0,1.2,0,2.3,0,3.5c0,0.4-0.1,0.9-0.6,0.9c-0.5,0-0.7-0.4-0.7-0.8c0-2.6,0-5.2,0-7.7
			c0-0.3,0.2-0.7,0.6-0.7c0.6,0,0.7,0.4,0.7,0.8C511.9,579.5,511.9,580.8,512,582.2C511.9,582.2,512,582.2,512,582.2z"/>
		<path class="st28" d="M319.4,582.2c0,1.2,0,2.3,0,3.5c0,0.4-0.1,0.9-0.6,0.9c-0.7,0.1-0.8-0.5-0.8-1c0-2.4,0-4.8,0-7.2
			c0-0.5,0-1.1,0.7-1.1c0.7,0,0.7,0.6,0.7,1.1C319.5,579.7,319.4,581,319.4,582.2z"/>
		<path class="st28" d="M418.1,582.9c0-3.1,0.4-3.5,2.8-3.2c0.4,0.1,0.9,0,0.9,0.6c0,0.3-0.3,0.8-0.5,0.8c-2.2,0.1-1.7,1.8-1.8,3.1
			c-0.1,0.8,0.5,2.3-0.6,2.3c-1.4,0-0.6-1.5-0.8-2.4C418,583.7,418.1,583.3,418.1,582.9z"/>
		<path class="st21" d="M531.5,583.2c0-3.2,0.7-4,2.9-3.4c0.3,0.1,0.7,0.1,0.7,0.6c0,0.3-0.2,0.8-0.4,0.8c-2.2,0.1-1.6,1.8-1.8,3.1
			c-0.1,0.8,0.6,2.4-0.9,2.3c-1,0-0.4-1.5-0.6-2.3C531.4,583.8,531.5,583.5,531.5,583.2z"/>
		<path class="st21" d="M580.7,579.8c0.5,0,1.2-0.3,1.4,0.5c0.1,0.6-0.3,0.7-0.9,0.9c-2.1,0.5-1,2.3-1.3,3.5c-0.2,0.7,0.4,2-0.9,1.9
			c-0.9-0.1-0.5-1.2-0.6-1.9c-0.1-0.9,0.1-1.8,0-2.7C578.2,580.2,579,579.6,580.7,579.8z"/>
		<path class="st29" d="M450,583.3c-0.4,1.1,0.6,3.1-0.9,3.1c-1.3,0-0.6-2.1-0.6-3.2c0-1.1-0.6-3.3,0.6-3.2
			C450.8,580.1,449.5,582.2,450,583.3z"/>
		<path class="st29" d="M359.4,583.1c0.4-1.1-0.5-3,0.7-3c1.6,0,0.8,2,0.8,3c0,1.2,0.7,3.4-0.7,3.4
			C358.8,586.4,359.9,584.2,359.4,583.1z"/>
		<path class="st30" d="M568.8,586.5c-0.6-2.6-0.5-7.4,0.2-9.1C569.9,579.6,569.8,585.2,568.8,586.5z"/>
		<path class="st30" d="M343.2,586.5c-1-1.8-1.1-4.4-0.1-6.6C343.8,582.1,343.6,584.3,343.2,586.5z"/>
		<path class="st30" d="M508.5,580c0.6,2.2,0.8,4.4,0,6.6C507.6,584.4,507.8,582.2,508.5,580z"/>
		<path class="st31" d="M616.8,534.5c3.3,0,6,2.6,6.1,5.9c0,3.4-2.7,6.2-6.1,6.3c-3.2,0-6.2-2.7-6.3-5.9
			C610.4,537.3,613.2,534.6,616.8,534.5z"/>
		<path class="st31" d="M586.7,255.7c-3.2,0-6.1-2.9-6.1-6c0-3.5,2.7-6.2,6.4-6.2c3.3,0,6,2.8,6,6.1
			C592.9,253,590.1,255.8,586.7,255.7z"/>
		<path class="st3" d="M966.7,309.7c-3.2,0-6.1-2.9-6.2-6c0-3.5,2.7-6.2,6.4-6.2c3.3,0,6,2.8,6,6C972.9,307,970.1,309.7,966.7,309.7
			z"/>
		<path class="st3" d="M411.9,90.5c3.3,0,6,2.7,6,6c0,3.4-2.8,6.2-6.1,6.2c-3.2,0-6.1-2.8-6.2-5.9C405.5,93.2,408.2,90.5,411.9,90.5
			z"/>
		<path class="st3" d="M1057,549.5c3.3,0.1,6,2.8,5.9,6.1c-0.1,3.4-2.9,6.1-6.3,6.1c-3.2,0-6.1-2.9-6.1-6.1
			C1050.6,552.1,1053.4,549.5,1057,549.5z"/>
		<path class="st31" d="M236.7,431.7c-3.2,0-6.1-2.9-6.2-6c0-3.5,2.7-6.2,6.4-6.2c3.3,0,6,2.8,6,6
			C242.9,429,240.1,431.8,236.7,431.7z"/>
		<path class="st3" d="M916.7,446.7c-3.2,0-6.1-2.9-6.1-6c0-3.5,2.8-6.2,6.4-6.2c3.3,0,6,2.8,5.9,6.1
			C922.8,444,920.1,446.8,916.7,446.7z"/>
		<path class="st18" d="M473.4,134.7c1.2,0.5,2.7,0.2,4.2,0c1.1-0.1,1.9,0.4,2.5,1.3c1.1,1.7,0.5,2.6-1.7,2.7
			c-0.8,0-1.7-0.4-2.3,0.4c-0.3,0.5,0.1,0.9,0.6,1.2c1,0.6,1.7,0.2,2.4-0.6c0.4-0.4,0.8-0.6,1.2-0.1c0.3,0.4,0,0.8-0.3,1.1
			c-0.5,0.7-1.4,1.3-2.1,1c-2.5-1.2-5.2,1-7.5-0.6c-1.1-0.8-0.5-2.6,0.9-3.2c0.5-0.2,1.1-0.2,1.7-0.3c0.5-0.2,1.3-0.2,1.2-1
			c-0.2-0.8-0.9-0.8-1.6-0.8c-0.9,0-1.2,1.7-2.3,0.7c-0.1-0.1,0-0.5,0.1-0.7C471,134.7,472.1,134.7,473.4,134.7z"/>
		<path class="st23" d="M442.1,138.3c0-3.6,0.6-4.1,4.3-3.4c0.5,0.1,0.9,0.4,1.4,0.1c1.2-0.5,2.6-0.8,3.3,0.7
			c0.8,1.8,0.5,3.7,0.2,5.6c0,0.1-0.4,0.3-0.6,0.3c-0.4,0-0.6-0.3-0.6-0.7c0-1.2-0.1-2.3-0.1-3.5c0-0.7-0.1-1.4-1-1.5
			c-0.9-0.1-1.4,0.6-1.5,1.4c-0.1,1,0,2-0.1,3c0,0.5,0.2,1.4-0.7,1.3c-0.8,0-0.7-0.8-0.7-1.4c0-0.8,0-1.7,0-2.5c0-0.8,0-1.9-1.2-1.8
			c-0.9,0.1-1.3,0.9-1.4,1.8c0,0.8,0,1.7,0,2.5c0,0.5,0.2,1.3-0.7,1.3c-0.8,0-0.7-0.8-0.7-1.3C442.1,139.6,442.1,138.9,442.1,138.3z
			"/>
		<path class="st17" d="M437.7,140.8c0,0.4,0,0.7-0.4,0.8c-0.7,0.2-1.1-0.2-1.3-0.8c-0.4-1-0.6-2-2.1-2.1c-1.6,0-2.7,0.2-3.1,2
			c-0.1,0.6-0.5,1.1-1.3,0.8c-0.6-0.3-0.2-0.9-0.1-1.3c0.9-2.4,1.8-4.8,2.8-7.2c0.5-1.2,1.5-1.4,2-0.3
			C435.6,135.4,436.6,138.1,437.7,140.8z"/>
		<path class="st17" d="M485.8,137.9c0-1.2,0.4-2.6,2.1-3.1c1.4-0.4,2.8-0.2,3.7,1.3c0.9,1.5,0.4,2.5-1.4,2.6c-0.4,0-0.8,0-1.2,0
			c-0.5,0.1-1.2-0.3-1.5,0.4c-0.2,0.4,0.1,0.8,0.4,1.1c0.5,0.5,1.1,0.6,1.8,0.3c0.6-0.3,0.9-1.4,1.8-0.9c0.3,0.1,0.3,0.5,0.2,0.9
			c-0.4,0.9-1.2,1.3-2.2,1.4C487.3,142.1,485.9,140.8,485.8,137.9z"/>
		<path class="st20" d="M459.1,138.2c0,2.3-1.1,3.5-3.1,3.6c-2.1,0.1-3.3-1.1-3.3-3.4c-0.1-2.4,1.1-3.7,3.3-3.7
			C458,134.7,459.1,135.9,459.1,138.2z"/>
		<path class="st17" d="M463,134.7c0.2,0.1,0.8,0.2,1.3,0.4c0.5,0.2,0.8,0.7,0.6,1.2c-0.3,0.7-0.8,0.4-1.2,0.1
			c-0.7-0.5-1.7-1.1-2.1,0c-0.4,1.2,1,1,1.7,1.2c1.1,0.4,2.1,0.7,2.1,2.1c0,1.1-0.7,1.9-1.8,2.1c-1.2,0.2-2.5,0.3-3.4-0.8
			c-0.3-0.4-0.4-1,0-1.3c0.4-0.4,0.7,0,1,0.3c0.4,0.5,0.8,0.8,1.5,0.8c0.5,0,1-0.2,1.1-0.8c0.1-0.5-0.3-0.7-0.7-0.9
			c-0.4-0.2-0.8-0.2-1.2-0.3c-1.2-0.4-2.2-0.8-2-2.4C460.3,134.8,461.4,134.7,463,134.7z"/>
		<path class="st20" d="M498.5,142.1c-1-1.5-0.6-2.8-0.7-3.9c-0.1-1-0.1-2.2-1.4-2.2c-1.4,0-1.6,1.2-1.6,2.4c0,0.8,0,1.7-0.1,2.5
			c0,0.4-0.2,0.9-0.7,0.8c-0.6,0-0.6-0.5-0.6-0.9c0-1.3-0.1-2.7,0-4c0-0.7-0.6-1.9,0.9-1.8c1.5,0.1,3.6-1.2,4.4,1
			C499.4,137.7,499.3,139.7,498.5,142.1z"/>
		<path class="st26" d="M470.2,132.5c-0.8,0.9-2.9,1.3-0.9,2.6c-1.7,1.8-0.6,4.2-1.3,6.2c-0.2,0.6-1.1,0.5-1-0.1
			c0.4-2.5-1.1-4.8-0.2-7.4C467.5,132,468.4,132,470.2,132.5z"/>
		<path class="st20" d="M439.5,132.5c0.9,1.7,1.4,2.8,0.7,4.6c-0.6,1.3-0.4,3.1,1.5,4.3c-1.3,0.4-2.6,0.6-2.5-0.5
			C439.1,138.2,437.5,135.5,439.5,132.5z"/>
		<path class="st21" d="M481.9,138.2c0-3.4,0.3-3.8,2.7-3.5c0.4,0.1,0.8,0.1,0.9,0.6c0,0.4-0.1,0.7-0.5,0.8
			c-2.2,0.2-1.5,1.9-1.7,3.2c-0.1,0.8,0.5,2.2-0.8,2.2c-1,0-0.4-1.3-0.6-2.1C481.9,139,481.9,138.6,481.9,138.2z"/>
		<path class="st17" d="M858.7,346.6c0.9-2.5,1.6-4.3,2.2-6.1c0.2-0.7,0.5-1.3,1.3-1.2c1,0.1,0.8,0.9,0.8,1.5c0,2.6,0,5.2-0.4,7.8
			c-1.3-1.8-0.4-3.8-1.1-6.2c-0.8,2.1-1.3,3.7-1.9,5.2c-0.2,0.5-0.3,1.2-1.1,1.1c-0.6-0.1-0.8-0.6-0.9-1.1c-0.6-1.5-1.1-3.1-2.1-4.6
			c0,1.4,0,2.9,0,4.3c0,0.5,0.2,1.3-0.7,1.2c-0.6-0.1-0.6-0.7-0.6-1.2c0-2.2,0-4.5,0-6.7c0-0.7,0-1.4,1-1.4c0.8,0,1.2,0.3,1.4,1.1
			C857.2,342.2,857.9,344.1,858.7,346.6z"/>
		<path class="st17" d="M943.4,348.8c-3.1,0-4.2-0.7-4.4-3c-0.1-1.4,0-2.7,1.2-3.6c1.4-1,2.9,0,4.3-0.3c0.4-0.1,0.5,0.4,0.5,0.7
			c0,2.3,0.4,4.7-0.3,7c-0.5,1.8-3.7,2.5-5,1.1c-0.3-0.3-0.5-0.8-0.4-1.1c0.3-0.6,0.7-0.3,1.2-0.1
			C942.5,350.5,942.5,350.5,943.4,348.8z"/>
		<path class="st19" d="M920.5,343.9c0,0.6-0.1,1.2,0,1.7c0.4,2.3-0.5,3.2-2.8,3.2c-2.2-0.1-3.1-1.3-3.2-3.3
			c-0.1-2.6,0.8-3.8,3.1-3.8c1.2,0,1.7-0.2,1.6-1.4c0-0.4,0-0.9,0.6-0.9c0.8,0,0.7,0.6,0.7,1C920.5,341.6,920.4,342.7,920.5,343.9
			C920.4,343.9,920.4,343.9,920.5,343.9z"/>
		<path class="st23" d="M867.9,348.8c-2,0.1-3.1-1-3.3-2.9c-0.2-1.7,0.1-3.5,2.1-4c1.6-0.5,3.2-0.2,3.9,1.6c0.5,1.3,0.6,2.3-1.3,2.2
			c-0.5,0-1,0-1.5,0c-0.5,0.1-1.2-0.3-1.5,0.4c-0.2,0.4,0.2,0.8,0.5,1c0.5,0.5,1.1,0.7,1.8,0.3c0.6-0.3,0.9-1.4,1.8-1
			c0.3,0.1,0.3,0.6,0.2,0.9c-0.4,0.9-1.2,1.3-2.2,1.4C868.2,348.8,868,348.8,867.9,348.8z"/>
		<path class="st16" d="M903,339.3c0,3,0.1,5.9,0,8.7c-0.1,1.2-1.2,0.4-1.8,0.6c-1.4,0.4-2.7,0.3-3.5-1.1c-0.8-1.4-0.8-2.8-0.2-4.3
			c0.6-1.3,1.7-1.8,3.1-1.5C902.7,342.2,901.2,339.7,903,339.3z"/>
		<path class="st20" d="M881.3,346.1c-0.2,0.7,0.6,2.3-0.1,2.3c-1.7,0-3.4,0.9-5,0c-0.8-0.4-0.9-1.2-0.8-2c0.1-1,0.9-1.5,1.8-1.8
			c0.9-0.2,2.8,0.2,2.3-1.2c-0.4-1.4-1.9-0.7-2.8,0.1c-0.2,0.1-0.7,0.1-0.9-0.1c-0.4-0.4-0.1-0.8,0.2-1.1c1-1.2,2.4-0.9,3.7-0.8
			c1.3,0.1,1.5,1.2,1.5,2.2C881.3,344.7,881.3,345.3,881.3,346.1z"/>
		<path class="st20" d="M911.1,348.8c-2.5,0.1-3.6-0.8-3.8-2.7c-0.3-1.7,0-3.5,1.8-4.2c1.5-0.6,3-0.4,4,1.1c1,1.6,0.5,2.6-1.4,2.7
			c-0.4,0-0.8,0-1.2,0c-0.5,0.1-1.2-0.3-1.5,0.5c-0.1,0.2,0.1,0.6,0.3,0.9c0.5,0.5,1,0.7,1.8,0.6c0.8-0.2,1-1.8,2.2-0.9
			c0.1,0.1,0,0.5,0,0.7C912.9,348.2,911.8,348.8,911.1,348.8z"/>
		<path class="st32" d="M895.8,345.4c-0.7,0.8,1.4,3.1-1.6,3.2c-1.3,0-2.8,0.8-3.6-0.7c-1-1.7-0.5-3.7-0.3-5.6
			c0-0.2,0.3-0.4,0.5-0.4c0.4,0,0.6,0.3,0.6,0.6c0.1,1,0.1,2,0.1,3c0,0.9,0,2,1.3,2c1.2,0,1.6-1,1.6-2.1c0-0.7,0-1.5,0.1-2.2
			c0.1-0.5-0.2-1.3,0.7-1.3c0.6,0,0.6,0.7,0.6,1.2C895.8,343.8,895.8,344.5,895.8,345.4z"/>
		<path class="st22" d="M937.1,349.2c-0.9-1.7-0.6-2.9-0.7-4.1c-0.1-1-0.1-2.2-1.5-2.2c-1.3,0-1.5,1-1.5,2.1c0,0.9,0,1.8,0,2.7
			c0,0.4-0.2,0.8-0.7,0.9c-0.5,0-0.7-0.4-0.7-0.9c0-1.7-0.2-3.4,0-5c0.3-1.9,2.1-0.7,3.2-1c1.1-0.3,2.2,0.3,2.2,1.7
			C937.6,345.1,937.8,346.9,937.1,349.2z"/>
		<path class="st20" d="M888.1,349.1c-1-1.7-0.6-3.1-0.8-4.3c-0.1-0.9-0.3-2-1.5-1.9c-1.1,0-1.5,0.9-1.5,1.9c0,0.2,0,0.3,0,0.5
			c-0.3,1.1,0.7,3.1-0.8,3.1c-1.1,0-0.6-2.2-0.4-3.3c0.2-1-1.4-2.7,1.1-3.2C888.3,341.1,889.3,341.8,888.1,349.1z"/>
		<path class="st20" d="M927.1,349.1c-1-1.7-0.6-3-0.8-4.3c-0.1-0.9-0.3-2-1.5-1.9c-1.1,0-1.5,0.9-1.5,1.9c0,0.2,0,0.3,0,0.5
			c-0.3,1.1,0.7,3.1-0.8,3.1c-1.1,0-0.6-2.2-0.4-3.3c0.2-1-1.4-2.7,1.1-3.2C927.3,341.1,928.2,341.9,927.1,349.1z"/>
		<path class="st27" d="M905.9,344.1c0,1.2,0,2.5,0,3.7c0,0.3-0.1,0.7-0.5,0.7c-0.5,0.1-0.8-0.3-0.8-0.7c0-2.6,0-5.2,0-7.7
			c0-0.4,0.2-0.8,0.8-0.7c0.5,0.1,0.5,0.6,0.5,1C906,341.6,906,342.9,905.9,344.1C905.9,344.1,905.9,344.1,905.9,344.1z"/>
		<path class="st16" d="M875.2,348.3c-1.4,0.5-2.6,0.5-2.6-0.2c0-2.7-1.7-5.6,0.4-8.7c0.5,1.7,1.7,2.6,0.6,4.4
			C873,345.1,872.9,347.2,875.2,348.3z"/>
		<path class="st33" d="M930.6,345.3c-0.4,1.1,0.6,3.1-0.8,3.2c-1.4,0-0.8-2-0.7-3.1c0-1.2-0.9-3.2,0.8-3.3
			C931.2,342,930.2,344.2,930.6,345.3z"/>
		<path class="st23" d="M551.4,295.8c-1.9,0.1-3-0.8-3.3-2.7c-0.3-1.8,0-3.6,2-4.3c1.5-0.5,3-0.3,3.9,1.3c0.9,1.6,0.4,2.4-1.4,2.5
			c-0.4,0-0.8,0-1.2,0c-0.5,0.1-1.2-0.2-1.6,0.4c-0.2,0.4,0.1,0.8,0.4,1.1c0.5,0.5,1.1,0.6,1.8,0.4c0.7-0.3,0.9-1.7,2-0.8
			c0.1,0.1,0.1,0.6-0.1,0.9C553.6,295.3,552.6,295.8,551.4,295.8z"/>
		<path class="st20" d="M534.4,292.3c0-1.7,0.5-3.2,2.4-3.6c1.6-0.3,3,0.1,3.6,1.8c0.4,1.1,0.4,2.2-1.3,2.1c-0.4,0-0.8,0-1.2,0
			c-0.6,0.1-1.4-0.3-1.8,0.5c-0.2,0.4,0.2,0.8,0.5,1.1c0.7,0.6,1.3,0.6,2,0c0.5-0.4,1.1-1.5,1.7-0.3c0.4,0.9-0.6,1.4-1.4,1.7
			C536.5,296.5,534.5,295,534.4,292.3z"/>
		<path class="st23" d="M490.8,290.6c-0.1,0.6-0.5,0.8-0.8,0.7c-2.5-0.3-4.1,0.4-3.5,3.3c0.1,0.4,0,0.9-0.5,1
			c-0.7,0.1-0.8-0.5-0.8-1c0-2.4,0-4.8,0-7.2c0-0.8,0.5-1.2,1.3-1.2c1.6,0.1,3.3-0.3,5.1,0.3c-0.9,1.3-2.2,0.8-3.2,0.9
			c-1,0.1-1.8,0.1-1.8,1.4c0,1.4,0.9,1.3,1.8,1.4C489.2,290.3,490,290,490.8,290.6z"/>
		<path class="st20" d="M544.7,288.7c0.1,0,0.7,0.1,1.2,0.3c0.5,0.2,1.1,0.8,0.8,1.4c-0.3,0.7-0.9,0.3-1.4-0.1
			c-0.7-0.6-1.7-0.9-2,0.1c-0.3,1,1,0.9,1.6,1.1c1.1,0.4,2.3,0.6,2.2,2.2c0,1-0.6,1.8-1.6,2c-1.2,0.2-2.5,0.4-3.5-0.7
			c-0.3-0.3-0.7-0.8-0.2-1.3c0.5-0.5,0.9-0.2,1.2,0.3c0.4,0.5,0.8,0.8,1.5,0.8c0.5,0,1-0.2,1.1-0.8c0.1-0.5-0.4-0.7-0.7-0.9
			c-0.5-0.2-1-0.2-1.4-0.4c-1.1-0.4-2-1-1.7-2.4C542,288.9,543.1,288.7,544.7,288.7z"/>
		<path class="st20" d="M514,288.7c0,0,0.7-0.1,1.2,0.5c0.4,0.3,0.8,0.8,0.5,1.3c-0.3,0.5-0.9,0.3-1.3-0.1c-0.4-0.4-0.8-0.6-1.3-0.6
			c-0.4,0-0.9,0.2-0.9,0.7c0,0.2,0.3,0.6,0.6,0.7c0.6,0.3,1.3,0.4,1.9,0.6c1.1,0.3,1.6,1.1,1.4,2.3c-0.3,1.6-1.5,1.8-2.9,1.8
			c-1.2,0-2.2-0.3-2.5-1.5c-0.1-0.2,0-0.5,0.2-0.7c0.3-0.3,0.6-0.2,0.9,0c0.4,0.3,0.7,0.8,1.1,1c0.7,0.3,1.4,0.2,1.7-0.5
			c0.3-0.8-0.5-0.9-1-1.1c-0.3-0.1-0.7-0.1-1-0.2c-1.1-0.4-2.1-0.9-1.9-2.3C510.9,288.9,512.1,288.6,514,288.7z"/>
		<path class="st17" d="M495.3,295.8c-2-0.1-3.1-1.6-2.9-4.1c0.2-2.1,1.4-3.1,3.5-3c2,0.1,3.1,1.6,2.9,3.9
			C498.7,294.8,497.4,295.9,495.3,295.8z"/>
		<path class="st23" d="M520,293.5c0.7-1.7,1.1-2.7,1.5-3.8c0.2-0.5,0.4-1,1-0.8c0.7,0.2,0.3,0.8,0.2,1.2c-0.8,2.3-1.7,4.5-2.5,6.8
			c-0.3,0.8-0.8,1.5-1.8,1.4c-0.2,0-0.6-0.1-0.7-0.3c-0.2-0.3-0.2-0.6,0.2-0.8c1.9-0.9,1.1-2.3,0.6-3.6c-0.5-1.2-1-2.5-1.4-3.7
			c-0.1-0.4-0.2-0.9,0.3-1c0.5-0.1,0.8,0.1,1,0.6C518.9,290.6,519.3,291.7,520,293.5z"/>
		<path class="st34" d="M509.7,292.2c0,2.3-1.1,3.5-3.2,3.6c-2.1,0-3.1-1.1-3.1-3.5c0-2.4,1-3.5,3.1-3.6
			C508.5,288.7,509.7,289.9,509.7,292.2z"/>
		<path class="st20" d="M529,296c-1-1.6-0.6-2.8-0.7-4c-0.1-0.9-0.2-2-1.4-2.1c-1.3-0.1-1.6,0.9-1.7,2c-0.2,1.2,0.5,3.6-0.6,3.5
			c-1.5-0.2-0.4-2.4-0.7-3.6c-0.7-2.8,1.1-3,3.1-3.1c2.4-0.1,2.6,1.5,2.5,3.3C529.5,293.2,529.7,294.4,529,296z"/>
		<path class="st34" d="M501.3,286.2c-0.2,2,1.7,2.7,0.4,4.6c-0.8,1.1-0.7,3.4,1.3,4.6c-1.2,0.6-2.4,0.6-2.4-0.3
			C500.6,292.3,498.9,289.5,501.3,286.2z"/>
		<path class="st34" d="M533.8,295.4c-3.4,0.6-2.2-2-2.3-3.5c-0.2-1.7-1.2-3.4,0.6-5.1c0.4,1.4,1.8,2.2,0.6,4.1
			C532,292.1,532.2,294.1,533.8,295.4z"/>
		<path class="st3" d="M789.5,192.3c2.2,0.4,3.7,1.8,5.4,3.1c2,1.6,3.6,1.2,5.2-0.4c0.9-0.9,1.6-1.9,3-2.2
			c-4.3,5.5-4.8,5.6-10.6,1.8C791.4,193.8,790.4,193,789.5,192.3z"/>
		<path class="st3" d="M775,192.8c0.8-1.3,1.9-2.2,3-3.2c3.6-3.2,5.2-3.1,8.4,0.8c-0.3-0.1-0.6-0.2-0.9-0.3
			c-4.5-2.2-4.5-2.2-8.3,1.3C776.6,191.9,776,192.6,775,192.8z"/>
		<path class="st3" d="M770.5,196.7c1.3-1.6,2.5-3.2,4.5-4C773.7,194.3,772.5,196,770.5,196.7z"/>
		<path class="st31" d="M796.9,177.5c3.3,0,6,2.7,6,6c0,3.4-2.8,6.2-6.2,6.2c-3.2,0-6.1-2.8-6.2-6
			C790.5,180.2,793.2,177.5,796.9,177.5z"/>
		<path class="st18" d="M965,588.3c0,0.2,0,0.3,0.1,0.4c0,1.2,0.1,2.6-1.2,3.3c-0.8,0.5-0.3,0.9,0,1.4c0.6,1,1.2,1.9,1.8,2.9
			c-1.2,0.7-1.7,0.1-2.2-0.6c-0.6-0.8-1.1-1.7-1.7-2.4c-0.6-0.7-1.4-0.9-2.3-0.6c-0.8,0.3-0.5,1.1-0.6,1.7c-0.1,0.5,0,1-0.1,1.5
			c0,0.4-0.2,0.6-0.6,0.7c-0.5,0-0.8-0.3-0.8-0.7c0-2.6,0-5.2,0-7.7c0-0.4,0.3-0.9,0.7-0.8C960.6,587.4,963,586.5,965,588.3z"/>
		<path class="st23" d="M981.5,589.7c1.2,0,2.3,0,3.5,0c1.4,1.2,1.8,2.8,1.4,4.5c-0.2,1.3-1,2.4-2.4,2.5c-1.3,0.1-2.3,0.1-2.2,1.8
			c0,0.4-0.3,0.6-0.6,0.6c-0.4,0-0.7-0.2-0.7-0.6c0-2.8,0-5.6,0.1-8.4C980.7,590,981.2,589.9,981.5,589.7z"/>
		<path class="st23" d="M968.1,589.8c0.2,0,0.3,0,0.4-0.1c1.1,0.1,2.3-0.2,3.3,0.8c0.7,0.7,1,1.5,0.8,2.5c-0.3,1.1-1.3,0.7-2.1,0.8
			c-0.8,0.1-1.7-0.3-2.3,0.4c-0.3,0.4,0.1,0.8,0.4,1.1c1,0.9,1.8,0.5,2.6-0.3c0.4-0.4,0.9-0.6,1.2,0c0.3,0.5-0.1,1-0.5,1.3
			c-1.3,1-2.8,1.1-4.2,0.2c-1.8-1.3-1.6-3.1-0.9-4.9C967.1,590.7,967.6,590.3,968.1,589.8z"/>
		<path class="st18" d="M996.1,589.8c1.3,0,2.5,0,3.8,0c1.4,2,0.2,4.4,1,6.6c-1.4,0.1-2.6,0.3-3.9,0.3c-1.2,0.1-2.2-0.4-2.3-1.7
			c-0.1-1.3,0.6-2,1.8-2.3c0.2-0.1,0.5,0,0.7-0.1c0.7-0.1,1.5-0.1,1.9-0.9c0.1-0.1-0.1-0.5-0.3-0.6c-0.7-0.5-1.4-0.5-2.1,0
			c-0.5,0.3-1,1.1-1.4,0.5C994.6,590.8,995.8,590.4,996.1,589.8z"/>
		<path class="st16" d="M974.6,589.9c1.1-0.4,2.3-0.2,3.4-0.2c0.3,0.5,1.3,1,0.8,1.6c-0.5,0.8-1.1,0-1.6-0.3
			c-0.6-0.4-1.4-0.5-1.8,0.2c-0.5,1,0.6,0.9,1.1,1.2c0.9,0.4,2,0.3,2.5,1.4c0.4,0.8,0.3,1.5-0.2,2.1c-0.9,1.2-2.2,1-3.4,0.8
			c-0.8-0.1-1.4-0.5-1.6-1.4c-0.1-0.4,0-0.7,0.3-0.8c0.2-0.1,0.5,0,0.7,0.1c0.3,0.2,0.4,0.5,0.7,0.7c0.6,0.5,1.2,0.6,1.8,0.1
			c0.2-0.2,0.5-0.6,0.4-0.8c-0.2-0.6-0.9-0.7-1.4-0.9C973.6,592.8,973.4,592.4,974.6,589.9z"/>
		<path class="st34" d="M1008.4,593.1c0-2.4,1.1-3.5,3.2-3.4c2,0,3.1,1.3,3.1,3.6c0,2.3-1.2,3.5-3.3,3.4
			C1009.3,596.7,1008.3,595.6,1008.4,593.1z"/>
		<path class="st20" d="M1017.5,589.9c0.2-0.1,0.3-0.1,0.5-0.2c3.3,0.1,3.5,0.2,3.5,3.6c0,1.1,0.2,2.3-0.5,3.8
			c-1-1.6-0.6-2.9-0.7-4.1c-0.1-0.9-0.2-2-1.4-2c-1.3,0-1.6,0.9-1.7,2c0,1,0,2-0.1,3c0,0.4-0.2,0.7-0.6,0.7c-0.4,0-0.6-0.3-0.6-0.7
			c0-1.8-0.1-3.7,0-5.5C1016,589.3,1017,590.2,1017.5,589.9z"/>
		<path class="st28" d="M991.5,589.7c1,0,2,0.1,2.9,0.1c0,0.2,0,0.7-0.1,0.7c-3,0.7-2.2,3.1-2.3,5.1c0,0.4,0,0.9-0.5,1
			c-0.4,0.1-0.6-0.1-0.8-0.4C990.2,595.2,990.7,590.6,991.5,589.7z"/>
		<path class="st34" d="M1001.6,589.8c0.2,0,0.3-0.1,0.4-0.1c0.8-0.3,0.1-1.5,1.3-1.8c0.3,1.4,1.8,2.3,0.5,4.2
			c-0.8,1.1-0.4,3.2,1.5,4.4c-1.9,0.6-2.7,0.2-2.8-1.5C1002.4,593.2,1002.7,591.3,1001.6,589.8z"/>
		<path class="st30" d="M988.9,589.7c0.1,2.5,0.4,4.7-0.3,7.2C987.5,594.5,987.6,591.3,988.9,589.7z"/>
		<path class="st30" d="M1006.5,596.5c-0.9-2.2-0.7-4.4-0.1-6.6C1007.3,592.1,1007,594.3,1006.5,596.5z"/>
		<path class="st23" d="M170.9,466.8c0,1.1,0,2.2,0,3.2c0,0.6,0.2,1.6-0.7,1.6c-1,0-0.6-0.9-0.7-1.5c-0.2-1.2,0.6-2.8-1.7-2.8
			c-2,0-3.3,0.2-2.9,2.6c0.1,0.6,0.4,1.8-0.8,1.7c-0.9-0.1-0.6-1-0.6-1.6c0-2.1,0-4.2,0-6.2c0-0.5-0.2-1.3,0.7-1.3
			c0.8,0,0.8,0.8,0.7,1.3c-0.1,1.5,0.1,2.5,2.1,2.5c1.7,0,2.8-0.3,2.5-2.3c-0.1-0.6-0.3-1.5,0.8-1.5c0.8,0.1,0.6,0.9,0.6,1.4
			C171,464.8,170.9,465.8,170.9,466.8z"/>
		<path class="st23" d="M189.5,471.8c-2.2,0-3.3-1.1-3.5-2.9c-0.2-1.8,0.1-3.6,2.2-4.2c1.5-0.4,3-0.1,3.8,1.6
			c0.6,1.5,0.5,2.5-1.4,2.3c-0.4,0-0.8,0-1.2,0c-0.5,0.1-1.2-0.2-1.6,0.3c-0.3,0.4,0.1,0.8,0.4,1.1c0.5,0.5,1.1,0.7,1.8,0.4
			c0.7-0.3,0.9-1.6,2-0.9c0.3,0.2,0.2,0.6,0,0.9C191.3,471.6,190.4,471.9,189.5,471.8z"/>
		<path class="st20" d="M178.3,469.2c-0.2,0.7,0.6,2.3-0.1,2.3c-1.7,0-3.4,1-5,0c-0.7-0.5-0.8-1.2-0.7-2c0.1-0.9,0.8-1.4,1.6-1.7
			c1-0.3,2.9,0.1,2.5-1.3c-0.4-1.4-1.9-0.6-2.8,0.2c-0.2,0.1-0.7,0.1-0.9-0.1c-0.4-0.4,0-0.8,0.2-1.1c1-1.2,2.4-0.9,3.7-0.7
			c1.3,0.2,1.5,1.2,1.5,2.2C178.3,467.7,178.3,468.3,178.3,469.2z"/>
		<path class="st20" d="M182.2,469.1c1.1-1.2,1.2-2.5,1.7-3.6c0.2-0.5,0.6-0.9,1.1-0.7c0.5,0.2,0.3,0.7,0.1,1.1
			c-0.6,1.6-1.2,3.3-1.8,4.9c-0.5,1.2-1.3,1.3-1.9,0.1c-0.7-1.6-1.3-3.2-1.9-4.9c-0.2-0.4-0.3-0.9,0.2-1.1c0.6-0.3,0.9,0.2,1.1,0.7
			C181.3,466.7,181.8,467.8,182.2,469.1z"/>
		<path class="st34" d="M194.5,462.6c0.8,0.8,0.3,2,1.5,2.3c0.3,0.1,0.5,0.4,0.2,0.8c-2,2-1.2,3.9,0.4,5.8c-1.1,0.4-2.4,0.5-2.4-0.5
			C194.2,468.3,192.6,465.5,194.5,462.6z"/>
		<path class="st18" d="M874.6,481.7c0.3,2.1-1.2,1.9-2.5,1.9c-0.7,0-1.6-0.4-2,0.4c-0.3,0.5,0.2,0.9,0.6,1.2c0.7,0.5,1.4,0.4,2-0.2
			c0.5-0.4,0.9-1.4,1.5-0.5c0.5,0.7-0.4,1.3-1,1.7c-0.1,0.1-0.3,0.2-0.4,0.2c-2.5,0.1-5.1-0.3-7.6,0c-0.7,0.1-1.2-0.8-1.2-1.6
			c0-0.8,0.3-1.5,1-1.8c0.5-0.2,1.1-0.3,1.7-0.4c0.6-0.2,1.4-0.1,1.6-0.9c0-0.2-0.1-0.5-0.3-0.6c-0.7-0.5-1.4-0.5-2.1,0
			c-0.4,0.3-0.8,1-1.5,0.5c-0.5-0.4,0.1-0.9,0.1-1.4c2.6-1.2,5.3-0.1,7.9-0.5C873.5,479.7,874.1,480.9,874.6,481.7z"/>
		<path class="st17" d="M820.1,482.7c0.3,1.9-0.1,3.5-2.3,4c-2.7,0.6-4.1-0.3-5.2-3c0.8-0.5,1.3-0.2,1.8,0.6
			c0.5,0.9,1.4,1.2,2.3,1.2c0.8,0,1.8-0.2,2-1.2c0.2-1.1-0.6-1.4-1.5-1.6c-0.9-0.3-1.9-0.5-2.8-0.9c-1-0.4-1.5-1.3-1.3-2.4
			c0.1-1.1,0.8-1.9,1.8-2.1c1.6-0.3,3.4-0.5,4.5,1.1c0.3,0.4,0.8,1,0.1,1.5c-0.5,0.4-0.9,0-1.2-0.5c-0.4-0.6-1.1-1-1.9-1
			c-0.8,0-1.6,0.2-1.8,1c-0.3,1,0.5,1.2,1.3,1.5C817.4,481.3,819,481.4,820.1,482.7z"/>
		<path class="st18" d="M906,479.8c0,2.3,0.1,4.6,0,6.9c-0.1,2.3-2.9,3.6-4.8,2.3c-0.5-0.3-1-0.8-0.5-1.4c0.4-0.6,0.8,0,1.2,0.2
			c1.3,0.8,2.3,0.5,3-1.4c-1.5,0.3-2.8,0.6-3.8-0.5c-1-1.1-1-2.4-1.1-3.7c0.5-2.1,1.8-2.9,3.8-2.5
			C904.6,479.9,905.3,479.7,906,479.8z"/>
		<path class="st23" d="M858.5,481.3c0,1.1,0.2,2.2,0,3.2c-0.5,2.3-2.2,2.3-4.3,2.2c-2.4-0.1-1.4-1.5-1.6-2.5c-0.4-2,0.6-4.1-0.6-6
			c-0.3-0.3-0.3-0.6,0-0.8c0.9,0,2.2-0.4,2,1.3c-0.1,1,0.4,1.3,1.3,1.1C856.8,479.5,857.7,480.2,858.5,481.3z"/>
		<path class="st17" d="M847.5,480.7c0,0.9-0.1,1.8,0,2.7c0.2,1.9,0.3,3.4-2.5,3.3c-2.6,0-3.3-0.3-3.5-3c0.4-0.9,1.2-0.9,2-1.1
			c0.1-0.5-0.1-0.7-0.7-0.5c-1.2-0.4-1.9-0.9-0.4-1.8C844.2,479.3,845.9,479.2,847.5,480.7z"/>
		<path class="st19" d="M825.8,483.8c0.5,0.8,0.9,1.7,1.5,2.7c-1.9,0.6-2-1.1-2.8-1.9c-0.3-0.3-0.6-0.7-0.9-0.7
			c-0.5,0-0.5,0.5-0.6,0.9c-0.2,0.6,0.4,1.8-0.7,1.7c-0.9-0.1-0.6-1.2-0.7-1.9c-0.1-0.5-0.1-1-0.1-1.5c0-1.4,0.1-2.8,0.1-4.2
			c0-0.6-0.2-1.6,0.7-1.6c1-0.1,0.7,0.9,0.7,1.5c0.1,0.8,0,1.6,0,2.5c1.6,0.1,1.9-2.1,3.7-1.5C826.5,481.2,823.7,482,825.8,483.8z"
			/>
		<path class="st16" d="M888.5,477.2c0,2.3,0.1,4.6,0,6.9c0,0.8,0.7,2.2-0.8,2.4c-1.7,0.2-3.7,0.8-4.7-1.4c-0.7-1.5-0.3-2.9,0-4.4
			C884.8,479.5,887.6,479.8,888.5,477.2z"/>
		<path class="st21" d="M898.9,483.3c-0.4,1.1,0.2,2.4-0.9,3.8c-0.8-1.7-0.4-3.1-0.5-4.5c-0.1-0.9-0.3-1.7-1.4-1.7
			c-0.9,0-1.5,0.7-1.5,1.6c-0.1,0.7,0,1.5-0.1,2.2c-0.1,0.6,0.4,1.8-0.7,1.8c-1,0-0.6-1.1-0.7-1.8c-0.1-0.5-0.1-1-0.1-1.5
			c0-0.2,0.1-0.3,0.1-0.5c-0.5-2.6,0.9-3.1,3-3.1c2.4-0.1,2.7,1.4,2.8,3.1C898.9,482.9,898.9,483.1,898.9,483.3z"/>
		<path class="st18" d="M833.6,480.7c0.5,1.1,0.6,2.2,0.4,3.4c-0.3,1.9-1.5,2.7-3.3,2.6c-1.8-0.1-2.8-1-2.9-2.8
			c-0.1-0.9,0-1.8,0.1-2.7C830.1,479.2,831.2,479.1,833.6,480.7z"/>
		<path class="st23" d="M881.4,480.8c0,1.6,0,3.2,0,4.7c0,0.5,0,1.1-0.7,1c-0.5,0-0.5-0.6-0.6-1c0-1,0-2-0.1-3
			c0-0.9-0.3-1.7-1.4-1.7c-0.9,0-1.4,0.7-1.6,1.6c-0.2,1.3,0.2,2.8-0.7,4.8c-0.9-3-0.5-5.3-0.4-7.6
			C877.7,480.3,879.9,478.7,881.4,480.8z"/>
		<path class="st20" d="M840.4,482.1c-0.5,1.1-1,2.3-1.5,3.4c-0.2,0.5-0.4,1.2-1.1,1.1c-0.6,0-0.8-0.6-0.9-1c-0.7-2-1.8-3.8-1.9-5.9
			c1.3-0.1,1.4,0.9,1.8,1.7c0.4,0.8,0.4,1.8,1.2,2.5c0.9-0.8,0.9-2,1.4-2.9c0.3-0.6,0.4-1.5,1.3-1.1c0.8,0.4-0.1,1,0,1.5
			C840.5,481.6,840.5,481.9,840.4,482.1z"/>
		<path class="st35" d="M852,477.3c0,0.3,0,0.6,0,0.8c-0.5,0.2-1.5,0.4-1.2,0.9c1.3,2.4-1,4.5-0.3,6.8c0.1,0.2-0.1,0.7-0.8,0.7
			c-0.8-2.2,0.3-4.8-1.2-6.8C849.7,479,849.5,476.3,852,477.3z"/>
		<path class="st21" d="M863.5,479.7c0,0.2,0.1,0.7,0,0.7c-2.9,0.8-2.1,3.2-2.3,5.2c0,0.4-0.1,0.9-0.6,0.9c-0.7,0-0.6-0.6-0.6-1.1
			c0-1.9,0-3.8,0.1-5.7C861.2,479.7,862.4,479.7,863.5,479.7z"/>
		<path class="st30" d="M891.5,479.8c0.1,2.3,0.3,4.6-0.5,6.8c-1-2.2-0.6-4.5-0.5-6.8C890.8,479.8,891.2,479.8,891.5,479.8z"/>
		<path class="st14" d="M842.8,482.2c0-0.1,0.1-0.1,0.1-0.2c0.6-0.9,1.3-1.4,2.5-1c0.4,0.2,0.8,0.6,0.5,1c-0.6,0.8-1.5,0.8-2.4,0.7
			C843.3,482.5,843,482.3,842.8,482.2z"/>
		<path class="st3" d="M586.8,391.5c3.3-0.1,6.1,2.6,6.1,5.9c0,3.4-2.7,6.2-6.1,6.3c-3.2,0-6.2-2.7-6.3-5.9
			C580.4,394.3,583.2,391.6,586.8,391.5z"/>
		<path class="st3" d="M576.5,404.3c-0.3-0.1-0.6-0.2-0.9-0.3c-4.5-2.2-4.5-2.2-8.3,1.3c-0.7,0.6-1.3,1.3-2.2,1.5
			c0.9-1,1.7-2,2.7-2.9C571.6,400.2,572.7,400.3,576.5,404.3z"/>
		<path class="st3" d="M565,406.8c-1.3,1.6-2.5,3.2-4.5,4C561.8,409.2,563,407.5,565,406.8z"/>
		<path class="st18" d="M597.4,434.7c1.2,0.4,2.7,0.2,4.1,0c1.1-0.1,1.9,0.3,2.5,1.3c1,1.6,0.5,2.6-1.4,2.7c-0.2,0-0.3,0-0.5,0
			c-0.7,0.2-1.7-0.5-2.2,0.6c-0.2,0.4,0.2,0.8,0.5,1c0.9,0.7,1.7,0.4,2.4-0.4c0.3-0.4,0.8-0.8,1.2-0.3c0.6,0.6-0.1,1-0.4,1.5
			c-0.1,0.1-0.2,0.3-0.4,0.3c-2.8,0.7-5.7,0.1-8.5,0.1c-0.7,0-1-1-0.9-1.8c0.1-1.1,0.8-1.5,1.8-1.8c0.9-0.3,2.8,0.2,2.3-1.3
			c-0.5-1.5-1.9-0.6-2.8,0.2c-0.2,0.1-0.6-0.1-0.9-0.1c0.1-0.3,0-0.6,0.2-0.9C595.1,434.7,596.2,434.7,597.4,434.7z"/>
		<path class="st16" d="M469.4,437c0-0.2-0.1-0.5,0-0.7c0.5-1.3-1.4-3.8,1.7-4c4.1-0.3,5.7,0.7,6.1,3.7c0.4,3.3-0.8,5.3-3.3,5.7
			c-0.5,0.1-1,0-1.5,0.1c-2.2,0.3-3.3-0.4-2.9-2.8C469.5,438.3,469.4,437.6,469.4,437z"/>
		<path class="st19" d="M618.8,437c0,0.6-0.1,1.2,0,1.7c0.3,2.1-0.3,3.2-2.7,3.1c-2.1-0.1-3.2-1.1-3.3-3.4c0-2,0.4-3.8,2.9-3.7
			c1.2,0,1.9,0,1.8-1.5c0-0.4,0-0.9,0.6-0.9c0.5,0,0.6,0.5,0.6,0.9C618.8,434.6,618.7,435.8,618.8,437
			C618.8,437,618.8,437,618.8,437z"/>
		<path class="st23" d="M574.8,441.8c-1.8,0-2.9-0.8-3.2-2.5c-0.3-1.7-0.2-3.4,1.6-4.3c1.4-0.7,3-0.6,4,0.8c0.5,0.7,0.9,1.5,0.5,2.3
			c-0.4,0.8-1.2,0.5-1.8,0.5c-0.4,0-0.8,0-1.2,0c-0.5,0.1-1.2-0.3-1.5,0.5c-0.1,0.2,0.2,0.6,0.3,0.9c0.5,0.5,1,0.8,1.8,0.6
			c0.8-0.2,1-1.5,2-1c0.3,0.2,0.3,0.6,0.1,0.9C576.9,441.5,576,441.8,574.8,441.8z"/>
		<path class="st23" d="M503.5,441.8c-2.2,0-3.3-1-3.5-2.8c-0.2-1.8,0.1-3.6,2.2-4.2c1.5-0.4,3-0.2,3.8,1.5c0.6,1.4,0.6,2.5-1.4,2.4
			c-0.4,0-0.8,0-1.2,0c-0.6,0.1-1.4-0.3-1.7,0.5c-0.1,0.3,0.3,0.7,0.6,1c0.5,0.5,1.2,0.6,1.8,0.2c0.3-0.2,0.5-0.4,0.7-0.7
			c0.3-0.3,0.7-0.5,1.1-0.1c0.4,0.5,0.1,0.9-0.2,1.3C505.1,441.6,504.2,441.9,503.5,441.8z"/>
		<path class="st17" d="M533.4,439.1c-0.2,0.7,0.4,2.4-0.2,2.3c-1.7-0.1-3.4,1.1-5-0.1c-0.7-0.5-0.8-1.2-0.7-2c0.2-1,1-1.4,1.9-1.6
			c0.9-0.2,2.6,0,2.3-1.1c-0.5-1.5-1.8-0.8-2.8,0c-0.4,0.3-0.9,0.3-1-0.1c-0.1-0.3,0.1-0.8,0.4-1.1c1.1-1,2.5-0.8,3.8-0.6
			c1.2,0.3,1.4,1.3,1.3,2.4C533.4,437.8,533.4,438.4,533.4,439.1z"/>
		<path class="st20" d="M484.2,439.1c-0.4,0.7,0.8,2.4-0.3,2.4c-1.6,0-3.2,0.9-4.8-0.1c-0.7-0.5-0.9-1.2-0.8-2
			c0.1-1,0.8-1.5,1.8-1.8c0.9-0.2,2.8,0.2,2.4-1.2c-0.4-1.4-1.8-0.7-2.8,0.1c-0.2,0.1-0.7,0.1-0.9,0c-0.5-0.3-0.1-0.8,0.1-1
			c1-1.2,2.4-0.9,3.7-0.8c1.3,0.1,1.5,1.1,1.5,2.2C484.3,437.6,484.2,438.3,484.2,439.1z"/>
		<path class="st20" d="M520.4,441.8c-2.3,0.1-3.4-0.8-3.7-2.7c-0.3-1.7-0.1-3.4,1.8-4.2c1.5-0.6,3-0.4,4,1.1
			c0.4,0.6,0.7,1.4,0.4,2.1c-0.3,0.8-1.1,0.5-1.7,0.6c-0.4,0-0.8,0-1.2,0c-0.5,0.1-1.2-0.3-1.5,0.4c-0.2,0.4,0.2,0.8,0.5,1.1
			c0.5,0.5,1.1,0.6,1.8,0.3c0.7-0.3,0.9-1.6,2-0.8c0.1,0.1,0.1,0.5,0,0.7c-0.5,1-1.3,1.4-2.4,1.4
			C520.2,441.8,520.1,441.8,520.4,441.8z"/>
		<path class="st17" d="M629.4,438.5c0-1.9,0.5-3.3,2.3-3.7c1.5-0.3,2.9-0.1,3.6,1.5c0.6,1.2,0.8,2.5-1.3,2.4c-0.2,0-0.5,0-0.7,0
			c-0.7,0.2-1.7-0.5-2.2,0.6c-0.1,0.2,0.3,0.8,0.6,1c0.9,0.8,1.7,0.4,2.4-0.3c0.4-0.4,0.8-0.8,1.2-0.3c0.5,0.6,0,1.1-0.4,1.5
			c-1.1,0.9-2.5,1-3.8,0.4C629.6,440.9,629.3,439.6,629.4,438.5z"/>
		<path class="st22" d="M545.5,438c0.1-2.3,1.3-3.4,3.5-3.3c2,0.1,3.1,1.5,3,3.8c-0.1,2.2-1.4,3.4-3.5,3.3
			C546.5,441.7,545.4,440.3,545.5,438z"/>
		<path class="st34" d="M583.7,432.1c0.1,2.2,1.1,2.7,3,2.8c2,0.1,2,2.1,2,3.7c0,1.6-0.7,2.9-2.5,3.2c-2.8,0.4-3.4-0.1-3.3-3
			c0-2,0.1-4,0.1-5.9C583,432.7,583.3,432.5,583.7,432.1z"/>
		<path class="st36" d="M493.1,437.9c0.7-0.7-1.3-2.8,1.2-3c1.3-0.1,3-1,3.9,0.5c1,1.7,0.5,3.7,0.4,5.6c0,0.3-0.3,0.6-0.7,0.5
			c-0.5-0.1-0.4-0.5-0.4-0.8c0-1,0-2-0.1-3c0-1-0.2-2-1.4-1.9c-1.1,0.1-1.5,0.9-1.5,2c0,0.9,0,1.8,0,2.7c0,0.4,0,0.9-0.5,1
			c-0.7,0.1-0.8-0.5-0.8-1C493.1,439.8,493.1,439,493.1,437.9z"/>
		<path class="st17" d="M622.4,441.8c-0.6,0-1.4-0.1-2-0.8c-0.3-0.4-0.6-0.9-0.3-1.3c0.5-0.6,0.9-0.1,1.2,0.2
			c0.3,0.4,0.7,0.7,1.2,0.7c0.5,0,1-0.1,1.2-0.6c0.3-0.7-0.3-0.9-0.7-1.1c-0.4-0.2-0.8-0.2-1.2-0.3c-1-0.3-1.9-0.7-1.9-2
			c0-0.9,0.5-1.6,1.4-1.8c1.1-0.3,2.3-0.4,3.3,0.5c0.3,0.3,0.5,0.7,0.3,1.1c-0.2,0.4-0.7,0.4-1.1,0.1c-0.7-0.6-1.8-1.3-2.2-0.1
			c-0.4,1.1,1.1,1,1.7,1.2c1.2,0.4,2.2,0.8,2,2.3C625.3,441.5,624.1,441.8,622.4,441.8z"/>
		<path class="st17" d="M561.9,434.7c0.7,0,1.3,0,1.9,0.4c0.4,0.3,0.8,0.7,0.6,1.2c-0.3,0.6-0.8,0.3-1.2,0c-0.7-0.5-1.7-1-2.1,0
			c-0.4,1.2,1,1,1.7,1.2c1,0.4,2.1,0.7,2.2,2c0,0.9-0.4,1.7-1.3,2c-1.2,0.4-2.4,0.5-3.6-0.3c-0.5-0.4-0.9-0.9-0.5-1.5
			c0.6-0.9,0.9,0,1.3,0.3c0.6,0.6,1.3,0.8,2,0.4c0.2-0.1,0.5-0.6,0.4-0.8c-0.3-0.7-1-0.8-1.6-0.9c-1.2-0.3-2.5-0.7-2.2-2.4
			C559.7,435,560.8,434.7,561.9,434.7z"/>
		<path class="st17" d="M555.5,434.7c0.8,0,1.5,0,2.1,0.6c0.3,0.3,0.5,0.7,0.3,1.1c-0.3,0.5-0.7,0.2-1.1,0c-0.4-0.2-0.9-0.5-1.3-0.6
			c-0.4-0.1-0.9,0-1,0.5c-0.1,0.5,0.2,0.7,0.7,0.9c0.6,0.2,1.1,0.3,1.7,0.5c1.1,0.3,1.8,1,1.6,2.2c-0.3,1.5-1.4,1.9-2.8,1.9
			c-1.1,0-2.2-0.2-2.6-1.4c-0.1-0.2,0.1-0.7,0.3-0.9c0.3-0.2,0.6-0.1,0.8,0.2c0.4,0.5,0.8,0.9,1.4,0.9c0.5,0,1-0.1,1.3-0.6
			c0.3-0.7-0.3-0.9-0.7-1.1c-0.4-0.2-0.8-0.2-1.2-0.3c-1.2-0.4-2.2-0.9-1.9-2.4C553.3,434.9,554.4,434.7,555.5,434.7z"/>
		<path class="st16" d="M512.9,441.8c-0.8,0.1-1.5-0.1-2.1-0.7c-0.4-0.4-0.8-1-0.2-1.5c0.5-0.5,0.8,0,1.1,0.4c0.4,0.5,1,0.8,1.8,0.6
			c0.4-0.1,0.8-0.4,0.8-0.8c0-0.2-0.3-0.6-0.6-0.7c-0.4-0.2-0.9-0.3-1.4-0.4c-1-0.3-1.9-0.7-1.9-2c0-0.9,0.4-1.7,1.3-1.9
			c1.1-0.2,2.3-0.4,3.3,0.5c0.3,0.3,0.6,0.7,0.3,1.1c-0.3,0.4-0.7,0.3-1.1,0c-0.3-0.2-0.7-0.5-1-0.6c-0.5-0.1-1.1-0.1-1.3,0.4
			c-0.3,0.7,0.3,0.8,0.8,1c0.3,0.1,0.6,0.2,0.9,0.3c1.3,0.3,2.5,0.8,2.1,2.5C515.4,441.6,514.2,441.8,512.9,441.8z"/>
		<path class="st20" d="M491.1,442.1c-1-1.7-0.6-3.1-0.7-4.3c-0.1-0.9-0.3-2-1.5-1.9c-1.1,0-1.5,0.9-1.5,1.9c0,0.2,0,0.3,0,0.5
			c-0.3,1.1,0.6,3.1-0.8,3.1c-1.1,0-0.6-2.2-0.4-3.3c0.2-1-1.4-2.7,1.1-3.2C491.2,434.1,492.2,434.8,491.1,442.1z"/>
		<path class="st20" d="M611,442c-1-1.6-0.6-2.8-0.7-4c-0.1-0.9-0.2-2-1.4-2.1c-1.3-0.1-1.6,0.9-1.7,2c-0.2,1.2,0.5,3.6-0.6,3.5
			c-1.5-0.2-0.4-2.4-0.7-3.6c-0.7-2.7,1.1-3,3.1-3.1c2.4-0.1,2.6,1.5,2.5,3.3C611.5,439.2,611.7,440.4,611,442z"/>
		<path class="st23" d="M545.6,432.5c-1.9,1.7-1,3.9-1.6,5.7c-0.3,1.1,0.5,3.3-0.7,3.2c-1.6-0.1-0.8-2.2-0.7-3.3
			c0.1-1.5-1.3-2.7-0.2-4.4C543.3,432.4,543.9,431.9,545.6,432.5z"/>
		<path class="st37" d="M569,436.9c0-1.2,0-2.3,0-3.5c0-0.4-0.1-0.9,0.5-1c0.5-0.1,0.7,0.3,0.8,0.7c0,2.6,0,5.1,0,7.7
			c0,0.4-0.2,0.8-0.8,0.7c-0.4-0.1-0.5-0.4-0.5-0.7C569,439.5,569,438.2,569,436.9C569,436.9,569,436.9,569,436.9z"/>
		<path class="st34" d="M538.5,432.6c-3.3,0.2,0,2.7-1.7,3.9c-1,0.8,0.1,3.4-0.8,5.7c-1-2.3-0.2-4.1-0.8-5.6c-0.6-1.2-0.1-2,0.1-3
			C535.8,431.9,536.9,432,538.5,432.6z"/>
		<path class="st27" d="M508.9,436.8c0,1.3,0,2.7,0,4c0,0.4-0.2,0.9-0.7,0.8c-0.2-0.1-0.5-0.4-0.6-0.7c0-2.6,0-5.1,0-7.7
			c0-0.4,0.2-0.8,0.7-0.8c0.5,0.1,0.6,0.6,0.6,0.9C509,434.5,509,435.7,508.9,436.8C508.9,436.8,508.9,436.8,508.9,436.8z"/>
		<path class="st21" d="M590,438.2c0-3.3,0.6-4,2.9-3.5c0.3,0.1,0.7,0.1,0.7,0.5c0,0.3-0.2,0.8-0.3,0.8c-2.4,0.2-1.6,2-1.8,3.3
			c-0.1,0.8,0.5,2.2-0.8,2.2c-1.1,0-0.5-1.3-0.6-2.1C589.9,439.1,590,438.7,590,438.2z"/>
		<path class="st21" d="M636.9,438c0-3.1,0.6-3.8,2.8-3.3c0.3,0.1,0.7,0.1,0.7,0.5c0.1,0.3,0,0.7-0.4,0.8c-2.1,0.2-1.6,1.9-1.8,3.2
			c-0.1,0.8,0.4,2.3-0.7,2.3c-1.2,0-0.5-1.5-0.6-2.3C636.9,438.9,636.9,438.4,636.9,438z"/>
		<path class="st33" d="M567.5,438.1c0,0.7,0,1.5,0,2.2c0,0.5,0.2,1.3-0.7,1.3c-0.8,0-0.7-0.8-0.7-1.4c0-1.4,0-2.8,0-4.2
			c0-0.5,0-1.1,0.7-1.2c0.9-0.1,0.7,0.7,0.7,1.2C567.6,436.8,567.5,437.4,567.5,438.1z"/>
		<path class="st34" d="M627.1,441.5c0-3,0-6,0-9.1c0.2,0,0.3,0,0.5,0c0,3,0,6.1,0,9.1C627.5,441.5,627.3,441.5,627.1,441.5z"/>
		<path class="st23" d="M775.5,232.3c0,1.4-0.2,2.6,2.1,2.5c2.3-0.1,2.6,1.9,2.5,3.8c-0.1,1.8-0.8,3.1-2.8,3.2c-3.1,0.2-3.2,0-3.2-3
			c0-1.7,0-3.3,0-5C774.1,232.8,774.3,232.1,775.5,232.3L775.5,232.3z"/>
		<path class="st25" d="M740,232.3c0,1.4,0,2.7,0,4.4c1.3-0.4,1.8-1.3,2.5-1.9c0.4,0.2,2.1-0.2,0.8,1c-1.8,1.6-1,2.7,0,4.2
			c0.3,0.5,1.4,1.2,0.4,1.8c-0.8,0.5-1.2-0.5-1.7-1.1c-0.4-0.6-0.7-1.3-1.4-1.6c-0.1,0.1-0.3,0.1-0.4,0.2c-0.5,0.7,0.3,2.5-0.9,2.4
			c-1.3-0.1-0.6-1.8-0.7-2.8c-0.1-1.6,0-3.3,0-5C738.6,232.8,738.8,232.1,740,232.3z"/>
		<path class="st17" d="M794,234.8c1.6-0.2,3.7,0.7,3.6-2.2c0-0.1,0.6-0.2,0.9-0.2c0,2.3,0.1,4.6,0,6.9c0,0.8,0.7,2.3-0.8,2.4
			c-1.7,0.1-3.7,0.9-4.7-1.4C792.1,238.2,792.4,236.3,794,234.8z"/>
		<path class="st17" d="M768,234.8c1,0,2,0,3-0.1c0.8-0.6-0.2-1.9,1.5-2.5c0,3.1,0.2,6-0.1,8.9c-0.1,1.2-1.7,0.4-2.6,0.6
			c-1.2,0.4-2.3-0.3-2.8-1.5C766.1,238.2,766.4,236.3,768,234.8z"/>
		<path class="st20" d="M746.1,234.8c1.3,0,2.5,0,3.8,0c1.5,1.9,0.5,4.2,1,6.3c0.1,0.3-0.2,0.7-0.6,0.6c-1.2-0.5-2.3,0.3-3.4,0.1
			c-1.1-0.1-1.9-0.5-2-1.7c-0.1-1.2,0.5-1.9,1.5-2.3c0.2-0.1,0.5-0.1,0.7-0.1c0.8-0.1,1.7,0,2.1-1c0.1-0.1-0.2-0.5-0.3-0.6
			c-0.8-0.6-1.6-0.5-2.2,0.2c-0.4,0.4-0.9,0.8-1.3,0.3C744.8,235.8,745.8,235.4,746.1,234.8z"/>
		<path class="st20" d="M719.5,232.7c1.3-1,1.7-0.1,2.1,0.9c0.7,1.9,1.4,3.7,2.2,5.9c1.4-1.9,1.7-4,2.5-5.8c0.4-1,0.7-2,2.1-1.1
			c-1,2.5-2,4.9-3,7.4c-0.3,0.7-0.3,1.8-1.5,1.7c-1-0.1-1-1-1.3-1.6C721.5,237.6,720.5,235.1,719.5,232.7z"/>
		<path class="st32" d="M734.2,238.5c-0.6,0.8,1.2,2.7-1.2,3c-1.3,0.2-2.9,1-3.9-0.5c-1.1-1.7-0.5-3.7-0.5-5.6
			c0-0.3,0.3-0.6,0.7-0.5c0.4,0.1,0.5,0.4,0.5,0.7c0.1,1,0.1,2,0.1,3c0,1,0.1,2,1.4,1.9c1-0.1,1.5-0.9,1.5-1.9c0-0.9,0-1.8,0.1-2.7
			c0-0.4,0-0.9,0.5-0.9c0.5,0,0.7,0.4,0.7,0.9C734.3,236.6,734.2,237.4,734.2,238.5z"/>
		<path class="st32" d="M765.3,238.5c-0.6,0.8,1.2,2.8-1.2,3c-1.3,0.1-2.9,0.9-3.9-0.5c-1.1-1.7-0.5-3.7-0.4-5.6
			c0-0.3,0.3-0.6,0.7-0.5c0.4,0.1,0.5,0.5,0.5,0.8c0.1,1.1,0.1,2.2,0.1,3.2c0,0.8,0.3,1.6,1.2,1.6c0.9,0.1,1.6-0.6,1.7-1.5
			c0.1-0.9,0.1-1.8,0.1-2.7c0-0.5-0.3-1.4,0.6-1.4c0.8,0,0.6,0.8,0.7,1.4C765.3,237,765.3,237.6,765.3,238.5z"/>
		<path class="st32" d="M785.5,234.8c1.4-0.2,1.3,0.7,1.5,1.7c0.2,1.4-0.8,3.9,1.3,4c2.5,0,1.5-2.6,1.8-4.2c0.1-0.5-0.1-1,0.4-1.3
			c0.8,0.9,1.4,6,0.6,6.3c-1.1,0.5-2.5,0.7-3.8,0.5c-1.2-0.2-1.6-1.1-1.6-2.2C785.6,237.9,785.6,236.4,785.5,234.8
			C785.5,234.8,785.5,234.8,785.5,234.8z"/>
		<path class="st20" d="M753.5,234.8c0.4,0.5,0.7,0.2,1-0.1c3.3,0.1,3.5,0.2,3.5,3.6c0,1.1,0.3,2.3-0.5,3.6
			c-1.1-1.2-0.6-2.5-0.7-3.6c-0.1-1.1-0.1-2.4-1.6-2.3c-1.2,0.1-1.4,1.2-1.5,2.2c-0.1,1.2,0.5,3.3-0.6,3.3c-1.5-0.1-0.7-2.2-0.6-3.3
			C752.6,237,751.4,235.3,753.5,234.8z"/>
		<path class="st21" d="M782.5,234.7c0.8,0,1.7,0,2.5,0c0,0.2,0,0.7,0,0.7c-2.9,0.8-2.1,3.2-2.3,5.2c0,0.4-0.2,0.9-0.6,0.9
			c-0.2,0-0.5-0.2-0.5-0.4c-0.1-2.1-0.5-4.2,0.2-6.3C781.9,234.8,782.3,234.8,782.5,234.7z"/>
		<path class="st34" d="M736.1,241.5c0-3,0-6,0-9.1c0.2,0,0.4,0,0.6,0c0,3,0,6,0,9.1C736.5,241.5,736.3,241.5,736.1,241.5z"/>
		<path class="st38" d="M429.6,582.6c-0.6-0.1-1.5,0.2-1.4-0.8c0.1-0.7,0.8-1,1.5-1c0.7,0,1.4,0.4,1.4,1.1
			C431.1,582.9,430.2,582.5,429.6,582.6z"/>
		<path class="st39" d="M424.7,585.7c-0.7-0.1-1.2-0.3-1.1-1c0.2-0.9,1-0.9,1.7-1c0.5-0.1,1.1-0.2,1.1,0.6
			C426.3,585.2,425.6,585.6,424.7,585.7z"/>
		<path class="st38" d="M543.2,582.6c-0.6-0.2-1.5,0.3-1.5-0.7c0-0.7,0.7-1.1,1.4-1.1c0.7-0.1,1.4,0.3,1.5,1
			C544.7,582.8,543.8,582.5,543.2,582.6z"/>
		<path class="st39" d="M538.2,585.7c-0.7-0.1-1.2-0.3-1.1-1c0.2-0.9,1-0.9,1.7-1c0.5-0.1,1.1-0.2,1.1,0.6
			C539.8,585.2,539.1,585.6,538.2,585.7z"/>
		<path class="st40" d="M392.2,583c0,1.2-0.3,2.4-1.6,2.4c-1.3,0-1.7-1.1-1.7-2.2c0-1.2,0.3-2.3,1.6-2.3
			C391.7,580.8,392.1,582,392.2,583z"/>
		<path class="st41" d="M463,583.1c0,1.2-0.4,2.3-1.7,2.3c-1.3,0-1.7-1.1-1.8-2.3c0-1.2,0.4-2.3,1.7-2.3
			C462.6,580.8,463,581.9,463,583.1z"/>
		<path class="st41" d="M374,583.2c0,1.2-0.4,2.3-1.7,2.3c-1.3,0-1.7-1.1-1.7-2.3c0-1.2,0.4-2.3,1.8-2.3
			C373.7,580.9,374,582,374,583.2z"/>
		<path class="st42" d="M402.1,579.6c0.6,1,1.7,1.8,0.8,3c-0.3,0.3-1.3,0.4-1.6-0.1C400.6,581.4,401.7,580.6,402.1,579.6z"/>
		<path class="st11" d="M442.3,583.1c0-1,0.2-2.2,1.6-2.2c1.3,0,1.6,1.2,1.6,2.4c0,1.2-0.3,2.3-1.6,2.3
			C442.6,585.5,442.3,584.4,442.3,583.1z"/>
		<path class="st41" d="M559,583.3c0,1.2-0.4,2.3-1.7,2.3c-1.3,0-1.7-1.2-1.7-2.3c0-1.2,0.3-2.3,1.6-2.4
			C558.7,580.9,559,582.1,559,583.3z"/>
		<path class="st43" d="M353.5,583.2c0-1.3,0.3-2.4,1.6-2.4c1.3,0,1.7,1.2,1.7,2.3c0,1.1-0.3,2.3-1.6,2.4
			C353.7,585.6,353.4,584.4,353.5,583.2z"/>
		<path class="st43" d="M529,583.6c0,0.7-0.3,1.9-1.6,2c-1.5,0.1-1.8-1.2-1.8-2.4c0-1.1,0.4-2.3,1.7-2.3
			C528.7,580.9,529,582,529,583.6z"/>
		<path class="st43" d="M415.5,583.3c0,1.2-0.4,2.3-1.7,2.3c-1.3,0-1.7-1.2-1.7-2.3c0-1.2,0.4-2.5,1.9-2.4
			C415.3,581,415.5,582.1,415.5,583.3z"/>
		<path class="st44" d="M573.8,582.6c-0.5-0.1-1.4,0.1-1.1-0.8c0.2-0.7,0.8-1,1.5-1c0.7,0,1.4,0.4,1.3,1.1
			C575.4,583,574.4,582.4,573.8,582.6z"/>
		<path class="st45" d="M473.5,584.4c-0.4,1-1,1.4-1.9,1.3c-0.5,0-1-0.3-1-0.9c0.2-1.1,1.2-1,1.9-1.1
			C473.2,583.6,473.5,583.8,473.5,584.4z"/>
		<path class="st3" d="M516.3,582.6c-0.6-0.1-1.4,0.1-1.4-0.7c0-0.8,0.8-1.2,1.6-1.2c0.7,0,1.4,0.4,1.3,1.1
			C517.8,582.8,516.9,582.5,516.3,582.6z"/>
		<path class="st41" d="M333,583c-0.1,1.4-0.4,2.6-1.7,2.6c-1.3,0-1.7-1.1-1.7-2.3c0-1.3,0.3-2.5,1.8-2.4
			C332.6,580.9,332.8,582.1,333,583z"/>
		<path class="st40" d="M381.5,583.2c0.1-1.3,0.5-2.4,2-2.4c1.3,0,1.8,1.2,1.8,2.3c0,1.2-0.4,2.4-1.9,2.4
			C382,585.6,381.5,584.5,381.5,583.2z"/>
		<path class="st40" d="M490.2,580.8c1.5,0.3,2,1.3,2,2.5c0,1.2-0.5,2.4-2,2.3c-1.2-0.1-1.7-1.1-1.7-2.3
			C488.5,582,489.1,581.1,490.2,580.8z"/>
		<path class="st31" d="M477.5,137.6c-0.6-0.1-1.4,0.1-1.4-0.6c0-0.9,0.7-1.2,1.5-1.2c0.6,0,1.2,0.3,1.3,1
			C479,137.8,478.1,137.5,477.5,137.6z"/>
		<path class="st46" d="M474.2,139.6c-0.3,0.7-0.9,1.2-1.9,1.1c-0.6-0.1-1-0.4-0.8-1c0.3-1.1,1.3-0.9,2.1-1
			C474,138.7,474.4,138.8,474.2,139.6z"/>
		<path class="st47" d="M433.3,134.7c0.6,0.9,1.5,1.7,0.9,2.8c-0.3,0.5-1.3,0.4-1.6,0.1C431.8,136.5,432.9,135.7,433.3,134.7z"/>
		<path class="st31" d="M488.9,137.6c-0.5-0.1-1.3,0.1-1.3-0.7c0-0.7,0.7-1.1,1.4-1.1c0.7,0,1.4,0.3,1.4,1.1
			C490.4,137.9,489.5,137.5,488.9,137.6z"/>
		<path class="st40" d="M455.7,135.8c1.4,0.1,1.9,1,2,2.2c0.1,1.3-0.3,2.6-1.9,2.6c-1.3,0-1.7-1-1.8-2.2
			C454,137.1,454.4,136.2,455.7,135.8z"/>
		<path class="st40" d="M940.3,345c0.1-1.1,0.4-2.2,1.6-2.1c1.5,0,1.8,1.3,1.7,2.5c0,1.1-0.5,2.1-1.6,2.1
			C940.5,347.4,940.3,346.2,940.3,345z"/>
		<path class="st11" d="M919.1,345.4c-0.1,1.1-0.4,2.2-1.6,2.2c-1.5,0-1.7-1.3-1.7-2.6c0-1.1,0.4-2.2,1.6-2.1
			C918.9,342.9,919.1,344.2,919.1,345.4z"/>
		<path class="st31" d="M867.9,344.6c-0.6-0.1-1.5,0.2-1.6-0.6c-0.1-0.7,0.6-1.1,1.3-1.2c0.8-0.1,1.6,0.3,1.6,1.2
			C869.3,344.7,868.4,344.5,867.9,344.6z"/>
		<path class="st43" d="M901.8,345.3c-0.1,1.1-0.4,2.4-1.7,2.3c-1.5,0-1.7-1.3-1.7-2.5c0-1.1,0.3-2.1,1.5-2.2
			C901.5,342.8,901.7,344.1,901.8,345.3z"/>
		<path class="st48" d="M879.9,346.3c-0.3,0.8-0.9,1.4-1.8,1.4c-0.6,0-1.3-0.2-1.2-0.9c0.1-1.2,1.1-1,1.9-1.1
			C879.3,345.6,879.8,345.5,879.9,346.3z"/>
		<path class="st3" d="M910.3,344.6c-0.6-0.1-1.4,0.1-1.4-0.7c0-0.8,0.8-1.2,1.6-1.2c0.7,0,1.4,0.4,1.3,1.1
			C911.8,344.8,910.9,344.5,910.3,344.6z"/>
		<path class="st31" d="M551.4,291.6c-0.7-0.2-1.6,0.2-1.6-0.8c0-0.7,0.8-1.1,1.5-1c0.7,0,1.4,0.4,1.4,1.1
			C552.8,291.9,551.8,291.3,551.4,291.6z"/>
		<path class="st44" d="M537.6,291.6c-0.6-0.1-1.5,0.2-1.4-0.8c0.1-0.7,0.8-1,1.5-1c0.7,0,1.4,0.4,1.4,1.1
			C539.1,291.8,538.2,291.5,537.6,291.6z"/>
		<path class="st14" d="M497.5,292.4c-0.2,1.2-0.6,2.4-2.1,2.2c-1.4-0.1-1.7-1.4-1.6-2.6c0-1.2,0.6-2.2,1.9-2.1
			C497.1,289.9,497.5,291.1,497.5,292.4z"/>
		<path class="st49" d="M506.3,289.8c1.6,0.2,2.1,1.2,2.1,2.5c0,1.2-0.5,2.4-2,2.4c-1.3,0-1.8-1.1-1.8-2.3
			C504.6,291,505.1,290.1,506.3,289.8z"/>
		<path class="st39" d="M961.1,591.3c-0.9-0.1-2.1,0.3-2.1-1.3c0-1.4,0.7-1.7,1.9-1.6c1.1,0.1,2.6-0.1,2.7,1.5
			C963.6,591.4,962.2,591.2,961.1,591.3z"/>
		<path class="st14" d="M981.8,593.3c0.1-1.2,0.4-2.4,1.7-2.4c1.4,0,1.6,1.3,1.6,2.4c0,1.1-0.3,2.3-1.7,2.3
			C982.1,595.5,981.9,594.3,981.8,593.3z"/>
		<path class="st44" d="M969.6,592.6c-0.5-0.2-1.5,0.2-1.4-0.8c0.1-0.7,0.8-1,1.5-1c0.7,0,1.4,0.4,1.4,1.1
			C971.1,592.9,970.1,592.5,969.6,592.6z"/>
		<path class="st50" d="M998.3,593.7c0.5,0,1.1,0,0.9,0.7c-0.2,0.9-0.9,1.3-1.8,1.4c-0.6,0-1.3-0.2-1.2-0.9
			C996.3,593.6,997.5,593.8,998.3,593.7z"/>
		<path class="st49" d="M1011.3,590.8c1.6,0.2,2.1,1.2,2.1,2.5c0,1.2-0.5,2.4-2,2.4c-1.3,0-1.8-1.1-1.8-2.3
			C1009.5,592,1010.1,591.2,1011.3,590.8z"/>
		<path class="st31" d="M189.3,467.6c-0.6-0.1-1.5,0.2-1.4-0.8c0.1-0.7,0.8-1,1.5-1c0.7,0,1.4,0.4,1.4,1.1
			C190.8,467.9,189.8,467.5,189.3,467.6z"/>
		<path class="st48" d="M175.7,468.7c0.5,0,1.2-0.2,1.1,0.5c0,0.9-0.8,1.4-1.7,1.5c-0.6,0.1-1.3-0.1-1.3-0.8
			C173.9,468.7,174.9,468.8,175.7,468.7z"/>
		<path class="st31" d="M871.5,482.6c-0.6-0.1-1.4,0.1-1.4-0.6c0-0.9,0.7-1.2,1.5-1.2c0.6,0,1.2,0.3,1.3,1
			C873,482.8,872.1,482.5,871.5,482.6z"/>
		<path class="st46" d="M868.2,484.6c-0.3,0.7-0.9,1.2-1.9,1.1c-0.6-0.1-1-0.4-0.8-1c0.3-1.1,1.3-0.9,2-1
			C868,483.7,868.4,483.8,868.2,484.6z"/>
		<path class="st41" d="M901.4,483.3c0-1.4,0.4-2.5,1.7-2.4c1.3,0.1,1.7,1.2,1.7,2.4c0,1.2-0.5,2.3-1.8,2.2
			C901.7,485.4,901.3,484.3,901.4,483.3z"/>
		<path class="st43" d="M857.3,483.5c-0.2,1.1-0.5,2.3-1.9,2.1c-1.3-0.2-1.5-1.4-1.4-2.5c0.1-1.2,0.5-2.3,1.8-2.1
			C857.1,481.1,857.3,482.3,857.3,483.5z"/>
		<path class="st45" d="M844.3,485.7c-0.7-0.1-1.3-0.3-1.1-1c0.3-1,1.3-0.9,2.1-1c0.5-0.1,0.9,0.1,0.8,0.6
			C845.9,485.3,845.1,485.6,844.3,485.7z"/>
		<path class="st41" d="M887.5,483.2c0,1.2-0.4,2.3-1.7,2.4c-1.3,0-1.7-1-1.8-2.2c0-1.3,0.3-2.5,1.7-2.5
			C887,480.9,887.4,482.1,887.5,483.2z"/>
		<path class="st49" d="M829.1,483.1c0.1-1.2,0.6-2.3,2-2.2c1.3,0.1,1.8,1.2,1.8,2.3c0,1.2-0.5,2.5-1.9,2.4
			C829.5,485.6,829.1,484.4,829.1,483.1z"/>
		<path class="st31" d="M601.6,437.6c-0.7-0.1-1.5,0.1-1.5-0.7c0-0.7,0.7-1.1,1.4-1.1c0.7,0,1.4,0.3,1.4,1
			C602.9,437.9,601.9,437.4,601.6,437.6z"/>
		<path class="st46" d="M598.3,439.3c-0.3,0.8-0.8,1.3-1.7,1.4c-0.6,0-1.2-0.2-1.2-0.9c0.1-1,1-0.9,1.7-1
			C597.8,438.7,598.3,438.7,598.3,439.3z"/>
		<path class="st11" d="M472.2,433.4c1.8,0.1,3,0.5,3.4,2.1c0.5,1.6,0.4,3.2-1,4.3c-0.9,0.7-2.1,0.7-3.1,0.4c-1-0.4-0.6-1.4-0.6-2.2
			c-0.1-1,0-2,0-3C470.9,433.9,471.3,433.3,472.2,433.4z"/>
		<path class="st41" d="M617.5,438.3c0,1.2-0.3,2.3-1.6,2.3c-1.3,0-1.7-1.1-1.7-2.2c0-1.2,0.3-2.5,1.8-2.4
			C617.1,435.9,617.5,437.1,617.5,438.3z"/>
		<path class="st31" d="M574.8,437.6c-0.5-0.1-1.5,0.2-1.5-0.7c0-0.7,0.7-1.1,1.4-1.1c0.8,0,1.6,0.4,1.6,1.2
			C576.2,437.7,575.4,437.5,574.8,437.6z"/>
		<path class="st31" d="M503.5,437.6c-0.7-0.2-1.6,0.2-1.7-0.7c0-0.7,0.7-1.1,1.4-1.1c0.7,0,1.4,0.3,1.5,1
			C504.9,437.9,503.8,437.3,503.5,437.6z"/>
		<path class="st41" d="M531.9,439.3c-0.3,0.9-0.9,1.3-1.8,1.4c-0.5,0-1.1-0.2-1.1-0.8c0-1.2,1-1.1,1.8-1.2
			C531.4,438.7,531.9,438.5,531.9,439.3z"/>
		<path class="st48" d="M481.7,438.7c0.7-0.1,1.3-0.2,1.2,0.6c-0.1,0.9-0.9,1.4-1.8,1.4c-0.6,0-1.3-0.2-1.2-0.9
			C480,438.6,481,438.9,481.7,438.7z"/>
		<path class="st3" d="M519.8,437.6c-0.6-0.1-1.4,0.1-1.4-0.6c0-0.8,0.7-1.2,1.6-1.2c0.7,0,1.4,0.4,1.4,1.1
			C521.3,437.9,520.4,437.5,519.8,437.6z"/>
		<path class="st44" d="M632.6,437.6c-0.5-0.1-1.5,0.2-1.5-0.7c0-0.7,0.7-1.1,1.4-1.1c0.7,0,1.4,0.3,1.4,1.1
			C633.9,437.7,633.1,437.5,632.6,437.6z"/>
		<path class="st11" d="M550.6,438.3c-0.1,1.2-0.5,2.4-1.9,2.3c-1.3-0.1-1.7-1.1-1.7-2.3c0-1.3,0.4-2.4,1.9-2.4
			C550.1,435.9,550.5,437,550.6,438.3z"/>
		<path class="st41" d="M584,437.9c0.1-1,0.5-2.1,1.8-2c1.3,0.1,1.6,1.2,1.6,2.4c0,1.2-0.5,2.3-1.7,2.3
			C584.3,440.6,584,439.3,584,437.9z"/>
		<path class="st43" d="M778.8,238c0,1.2-0.3,2.4-1.6,2.5c-1.4,0.1-1.7-1-1.8-2.2c0-1.2,0.2-2.3,1.5-2.5
			C778.4,235.7,778.7,237,778.8,238z"/>
		<path class="st39" d="M797.4,238.3c-0.2,1.2-0.5,2.4-1.9,2.3c-1.4-0.2-1.6-1.5-1.5-2.7c0-1.1,0.4-2.1,1.6-2
			C797.1,236,797.2,237.3,797.4,238.3z"/>
		<path class="st39" d="M771.4,238c-0.1,1.3-0.3,2.5-1.6,2.6c-1.3,0.1-1.7-1-1.8-2.2c0-1.2,0.1-2.5,1.6-2.5
			C770.9,235.9,771.1,237.1,771.4,238z"/>
		<path class="st48" d="M748.3,238.7c0.5,0,1.2-0.2,1,0.6c-0.1,0.9-0.9,1.4-1.8,1.4c-0.6,0-1.3-0.2-1.2-0.9
			C746.5,238.7,747.5,238.8,748.3,238.7z"/>
	</g>
</g>
</svg>
